<mxfile host="app.diagrams.net" agent="Mozilla/5.0 (Windows NT 10.0; Win64; x64) AppleWebKit/537.36 (KHTML, like Gecko) Chrome/139.0.0.0 Safari/537.36 Edg/139.0.0.0" version="28.1.2">
  <diagram name="Page-1" id="b6xBM5LwBX0yTdn4fnoX">
    <mxGraphModel dx="978" dy="542" grid="1" gridSize="10" guides="1" tooltips="1" connect="1" arrows="1" fold="1" page="1" pageScale="1" pageWidth="827" pageHeight="1169" math="0" shadow="0">
      <root>
        <mxCell id="0" />
        <mxCell id="1" parent="0" />
        <mxCell id="qTVKj7qANSQW3XM0a56Q-21" value="" style="group" vertex="1" connectable="0" parent="1">
          <mxGeometry x="655.88" y="340" width="140" height="122" as="geometry" />
        </mxCell>
        <mxCell id="qTVKj7qANSQW3XM0a56Q-22" value="" style="rounded=1;whiteSpace=wrap;html=1;sketch=0;fontSize=10;strokeColor=#007fff;fillColor=#FFFFFF;gradientColor=none;gradientDirection=south;absoluteArcSize=1;arcSize=4;" vertex="1" parent="qTVKj7qANSQW3XM0a56Q-21">
          <mxGeometry width="140" height="122" as="geometry" />
        </mxCell>
        <mxCell id="qTVKj7qANSQW3XM0a56Q-23" value="&lt;font style=&quot;font-size: 9px;&quot;&gt;VNet Azure&lt;/font&gt;" style="text;html=1;strokeColor=none;fillColor=none;align=right;verticalAlign=bottom;whiteSpace=wrap;rounded=0;sketch=0;fontSize=4;labelPosition=center;verticalLabelPosition=middle;horizontal=1;" vertex="1" parent="qTVKj7qANSQW3XM0a56Q-21">
          <mxGeometry x="-15.879999999999995" width="67.7" height="18.3" as="geometry" />
        </mxCell>
        <mxCell id="qTVKj7qANSQW3XM0a56Q-24" value="" style="aspect=fixed;html=1;points=[];align=center;image;fontSize=12;image=img/lib/azure2/networking/Virtual_Networks.svg;rounded=1;sketch=0;strokeColor=#007fff;fillColor=#FFFFFF;gradientColor=none;gradientDirection=south;" vertex="1" parent="qTVKj7qANSQW3XM0a56Q-21">
          <mxGeometry x="128.33333333333334" y="107.99033333333335" width="9.368333333333334" height="5.588333333333334" as="geometry" />
        </mxCell>
        <mxCell id="qTVKj7qANSQW3XM0a56Q-1" value="" style="shape=image;verticalLabelPosition=bottom;labelBackgroundColor=default;verticalAlign=top;aspect=fixed;imageAspect=0;image=data:image/png,iVBORw0KGgoAAAANSUhEUgAAAgAAAAIACAYAAAD0eNT6AAAQAElEQVR4Aey9a5Adx3UmeLsvCMCC+ZD5kGyTFmDJom2O/BAt2SRlq0EADYAv2ZYpa2QBAmK9+2d3IyZipQhH7Eag8WMjZteO3Y39sT82vAEYGPkhyg/xIaDRANGyTFKWTXmsscYjDyVAJi3bpCiDpCk1G2hgv6/6VuN2932ck/XKqvoQlai6VSczT3558pyTJ7OqJzv6JwSEgBAQAkJACLQOATkAretyNVgICAEhIASEQKcjB0BSIASEgBAQAkKghQjIAWhhp6vJQkAICAEh0G4E2Ho5AERBSQgIASEgBIRAyxCQA9CyDldzhYAQEAJCoO0ILLdfDsAyDvpfCAgBISAEhECrEJAD0KruVmOFgBAQAkKg7Qik7ZcDkCKhsxAQAkJACAiBFiEgB6BFna2mCgEhIASEQNsRuNp+OQBXsdCVEBACQkAICIHWICAHoDVdrYYKASEgBIRA2xHob78cgH40dC0EhIAQEAJCoCUIyAFoSUermUJACAgBIdB2BFa3Xw7Aajz0SwgIASEgBIRAKxCQA9CKblYjhYAQEAJCoO0IrG2/HIC1iOi3EBACQkAICIEWICAHoAWdrCYKASEgBIRA2xFY3345AOsx0R0hIASEgBAQAo1HQA5A47tYDRQCQkAICIG2IzCo/XIABqGie0JACAgBISAEGo6AHICGd7CaJwSEgBAQAm1HYHD75QAMxkV3hYAQEAJCQAg0GgE5AI3uXjVOCAgBISAE2o7AsPbLARiGjO4LASEgBISAEGgwAnIAGty5apoQEAJCQAi0HYHh7ZcDMBwbPRECQkAICAEh0FgE5AA0tmvVMCEgBISAEGg7AqPaLwdgFDp6JgSEgBAQAkKgoQjIAWhox6pZQkAICAEh0HYERrdfDsBofPRUCAgBISAEhEAjEZAD0MhuVaOEgBAQAkKg7QiMa78cgHEI6bkQEAJCQAgIgQYiIAeggZ2qJgkBISAEhEDbERjffjkA4zEShRAQAkJACAiBxiEgB6BxXaoGCQEhIASEQNsRsLRfDoAFJdEIASEgBISAEGgYAnIAGtahao4QEAJCQAi0HQFb++UA2HASlRAQAkJACAiBRiEgB6BR3anGCAEhIASEQNsRsLZfDoAVKdEJASEgBISAEGgQAnIAGtSZaooQEAJCQAi0HQF7++UA2LESpRAQAkJACAiBxiAgB6AxXamGCAEhIASEQNsR8LRfDoAHLdEKASEgBISAEGgIAnIAGtKRaoYQEAJCQAi0HQFf++UA+PAStRAQAkJACAiBRiAgB6AR3ahGCAEhIASEQNsR8LZfDoAXMdELASEgBISAEGgAAnIAGtCJaoIQEAJCQAi0HQF/++UA+DFTjgwI7NmzZ+uuXbsOME1PT8+kaffu3UeY+JvP0gT6qQzVKasQKBUByOtWpCnKL2U5TZRtpvQ3nzORtlQGVZkQ6ENADkAfGLrMFwEot61UeFB0Z3G+wnT58uVzExMTR5hQ26E0Xbly5QATf/NZmkDPvOeQ91yqQFGunAIApaNaBCCHK/Kdyjjk9RzSWcovuBso37zP50ykhWxzbJxjGZRxlCv5Bkg6fAiEUMsBCEFNeQYiAMW1ohCp1KDczoHwEBRdVoW2FeVsTR0ElJs4BVSWUJoH8EyHECgcgVS+KXdr5TsPGWcZlPFUviHblPMZ1lt441RBKxGQA9DKbs+v0VROUIYzVFZQXHkZfAuDiUMApXkE9SfRAfAgZ8CCnGhcCKQynso3jbSrgDDirZBtOs6HWC9lXPIdBmQ7coW1Ug5AGG6tz7VWKfaUVVW4rHIGoCxnqmJE9TYHAcoREkP6iWNbccvoECTOLnhSVKDizmhK9XIAmtKTJbVjreEvqVpPNVwuOAQlyX0DcgQ8yIk2QQCyw82pV/CDa/iUJ1xGc5AfRgXOcimC4zEazsRIZQiEViwHIBS5FuajYmQ4Ek2nYsQp6iNRlOBZjkDU3RQPczCmU5CX1PDHw9hgTpKoF8Zjsk9gMInuCoHRCMgBGI2PngKBnmKMIQwKbtzHiiOAdvDaXYAyNBsBygXW18/SmNawpZRpRbxq2HH5sRxekhyAcOwan3ONYqSiqXObt1LBY4anZYE692LOvFMeIBd8NZUb7nIuvdTiOD4TR4DjttSaVVltEZADUNuuK5ZxKhEoRr7PXHfF2A+UlGQ/Gi2+pnxz1g8I6rCcBTbNR+Loom16I8YMWb0Js3AvByALeg3Nm86K0DwaTJwadyRKku1sXMvUoLEIwPhPwbltwqx/WFv5xgCjAYp2DUNI9xME5AAkMOi/FAHMHM7iupBZ0eJ1t3cWbrmn8/qtDyXp1Xcc7Fy44xOdl9/971cSf/M+E2mZmA885X3QuZGSzBvVyMuDfB+A8aeM587p0qabOpTVtfJNmU5lnNeUbSbKNhPz5M5Mp5PIN98U6OhfgxHI1jQ5ANnwa1RuKMdcQ/5UiFSGVHYv3vXbibF/9e0HO6/fBgcAaeHmexKFSbo0URnyPhNpmag0qUBZDhVmzqDLCcgZ0FiLY8RnYmLiSJ78UV4p45Rvyihlda18k6Yq+eZHi9BubuDNs9kqqyEIyAFoSEdmaQZCovwDPbkYfyo6KkQqQipEKkMa8yz8MS/LZTl0CFhuzs6AnACC3ODUmwlnjmxRDinfTDT6lHPKeFboWG4q3yyXMs466DxkLRv5+YnucxznuNbRIASyNkUOQFYEG5B/aWmJf5wn02Y/KjAqrERxYXafk+IaiC7rSpVlUh+WFAYS+m4e6hkJXy5RR48A+5Uz4ayM9st3HkZ/FD+UcdbxGpbJ6Ozy9yh6w7Nk34ucAANSLSKRA9Cizh7U1DzC/v2KcVAdRd6jYqSizMMRoJFAuFQbp4rssJLLZn+yX7NUW7V809m9cMfHO+QjSzuQN3ECcNbRCASyN0IOQHYMa1tCVuNPhcRwJQ1w1SD0OwIZ9wloOaDqzsypfsg3X4ULDvszipU4lohoUb5yYiuoGNbPcZbwky3ilSz3BTGhTI1DQA5A47rU1iDOjCYmJoLC/lRGF+74RIcKyVZbeVTkjfsEyF+GWg/1jEeGIpS1SgQQ6p6CfAdv+KP8MFGeqmzH2rrJD8cdHQFer31u+Q1cprgsYqEVTbwI5MGZHIA8UKxZGVSOYDloZpTOinhGGdEe5C+jkjwEnPgqVbRtFGODEWC/hb7qR6NKw0/5GVx6HHeX+QxfFuCyCCcBcbRGXFSFgByAqpCvqN4sypGhdSrHilh3V5sqSfLtztzpaL00ALQYsnBTawgfNPp0GnkOyV92Hso3owFcigus+2PQB0FRwMD6lC03BPIpSA5APjjWppRQ5cidyAyt16ahPUYTJXnrg51AJblVodIekDU5cVbLELeXXTqJdXJu+9uXwQmgkxu8TNLPg67riYAcgHr2WxDXocqRipE7kYMqjSBT4gTc9lCQE8BQqWZJEXSigYVePx0ykK4ioXNYR+e2vxF0Ahi96L9nvJaTawQqJrK8eJEDkBeSkZcD5cj1bLdypPGvS0h0XBdQSVLZj6Nb+xzryZolrQUlwt+Ibrnlm7JNuYiwOW6W6OhyvHozwsmdgn7QUoAXuAbQywFoQCdamgDl6DZiNJZUkJby60KzcMvdyd8jcPLLL6np+wBO0Mok51sb3tA/ZTvEYJbZLm9dbBPHrTPfVugHt/PkrEPkuSGQX0FyAPLDMtqS6N2HKMemzIz6O4azpNdvfTD5GwT99w3X3DDFKIqBVCRlIwD5djm4lIOmGf8Uc45brxMA/KboRKVl6NwOBOQAtKCfvd49ZxFNVY7sbip/fmKVZ/42pq0IlWqWZASrTDLubfHWx/735qkTPSNdHMcenuEESL49gFVEm2e1cgDyRDPCskJm/01XjuwmGv8Ld3ycl+YEB4BrpYoCmBErjdBluC7c8YmQCFBpjcmjIso3xzHPjvK2Ul846EVacwTkANS8A8ex753983U/p9IYx0K0z9nOhVvu8fCnKIAHrRJovbN/9rd3ZlxCMwqpgvJNJ8BTuDa8etCqgjbfOuUA5ItnVKXRm0dYz7y7lwqjzq/7hYDP/QCefIwCeOhFWzgCH/PU4O1vT9kx0tLZYXLwpiiAA6y6k8oBqHsPjuAfxsqlHL2zhRFV1+YRnR5GPRwM84+p8I/MOLKItAgEepvWzEsynP2zv4vgJeYyv3PbQy72vFFDV+EizoRA3pnlAOSNaETlwQEwGyrOEpgiYr80Vi5ed3vHYxgQVXGtOZfWkPZV5HJw2zb7T8WB45op/T3uDPk2O1XjytLzuBGQAxB3/wRz15sdmfN7ZwnmgmtASOP/+m0PejhVmNSDVkG0MFTm5S2+Fsd+LoiV6It1RvcU5YqyR/NnSg5A/pjGUqJ5dsTQqGeGEEsD8+SDUQAPBpcvXzYbnzz5VFnLCHgdXL4bv5yznf/T+eE4d7TerD8cZYo0MgTkAETWIXmx45kdLV73zryqrW05VJB0AhwNkIJ0gJU3KeTbvAzjNHx5sxpNeQs3323mBfjqlVczWuUQFlGLHIAiUK24TO/saOFm16twFbeuuOoXbrErSHDBzwM/OD09fadS+RgQfyTTseAwfKYCa0q0eN3t3u8faC9ATfvayrYcACtSNaKbnJx8v5XdBd978NZia0nHKACVpIP5R0H7l0qdKjAA7LbD2ae2QmtKdXnzTWbO9TaAGaoSCIupQg5AMbhWWuqVK1fM69OLCv+v6ivnMsCqvPoRHwJycFf3iScagmUARQBWw9e4X3IAGtelSYPMA1cGL8Fr5b+L19++cq2L+iMgB3d1Hy5tunH1jdG/+LaLWZeMLkpPsyBQVF45AEUhW1G5/PqftWrOjhj2ttK3gc6pINsASa3buKD9Lav6j+N98TqXkysHYBWCzfohB6BZ/dnBup15wC4q/L+u9wMU5LoydCMOBOjgxsFJXFx4vvmh111j6LvieJADUBy2lZSsdbvssGtZJDuGKkEICIH4EZADEH8fuTiEA/A2awYZusFILW12rZMOLkR3K0dgaaP6cVAneJa5rly5Yn6jaFBdupcdgSJLkANQJLoVlI2QnXkJoAL2alHl5U32V6Vq0aCWMilHLnvHY0IhfZIdxmhLkAMQbdeEMeYZsFzvDqtFuYRA/AjIkRvcRxr3g3GJ826xXMkBKBZflV5DBJZ8r0rVsIXtYFn9OLyfF31vAgwvSE9qjYAcgFp3XzjzUgDDsXPOkL6OqMtvKE2UggF67VkkHeUhoCWA8rBeV1PRN+QAFI1w+eWbBuxlxydBy29C9TVanYArV678/ezs7P82q1QKBsD7Nat0WPvQWl6T6DT+m9Sb4W2RAxCOXa1zTi58q9b8i3khIASEQLMRKL51cgCKx7jsGs5bKuy+8bKFrLU03TfkIMXY+ZOTkyb5Ju/qQ6IwOGkCMBiXtt2dbFuD1V4hMA4Bj+HwGKRx9ep5vgh05eQOBVTYDIUmmgdlMCIHoAyUwGDKJQAAEABJREFUS6wDa6SmGVJXM9yhvdKV4RiKTdUPIN/fqJqHJtTftY9/kz5pAiZtbIMcgDb2eq/NDiXQy9GO06RdObYDkJq2Uv1Y044T251OpxwQ5ACUg3NptXhC0l3NdDP3y+XLlz+XuRAVYEYA8j1vJe4uaJ/LIKy6Dgd3YmLCjPegunQvbgTkAMTdP27uPCFSzZAGw+sxHN1uVyHSwTAWddeMd3dRDsCgTrjm1a8Ouj3wnkefDCxAN4MQKCuTHICykC6pHs2QsgPtUZCozWyQQKujRASuecVu6Epkq1ZVwQGQfNeqx3zMygHw4VUHavOA3fzS03VoT+k8bnTMkE6ePGnGu/SGNLDCHt4mzBnq9vRlA+Ea2KQtzz828P6gm4hwaQlgEDCF3iuvcDkA5WEdXU1SkOu7ZPNLT62/OeQO1kePDnmk2wUi4JmVKgqwviM47tffHXyn53ANfqi7tUdADkDtu3B1AzhgoSDNXrsU5Gr8Nr76d6tvjPgFnPVK2gh8inoEx8u88dK5nFMUy9GUKwc3mq4YykiZD+QAlIl2SXVJQYYDvflFewTAs98inCPlXIsAcDdHXrp602UVfJtf1LLfKkBa/kMOQAMFwKMguUbK1EAY3E3yzI5YOKIt5kgL6ZXyQQC4m/YAsLbuG9/qSL6JxHLyYIGJxO8s59L/5SFQbk1yAMrFu5TaPAqSDGkZgCh0YCjs4X8oR/MsdLl0/Z8nAlh+MTtfb3r+0Tyrrm1ZcnBr23WFMS4HoDBoqy3YY6D0NkCnw5miJ/yvDwBVK9/dbvewlYMulgE8M19ruXWj84T/PfqjbjjEzG/ZvMkBKBvxkurDADaH77oIk3pnByU1o7Rqrn3uiKuuubk5RQBciOVO7FoGaHsUgOPb4wR59EfuPasCS0NADkBpUJdbEZYB5j1hUs+7weW2pPjaqBiZrDVBOcr4W8EqiA7yfd7TD+xfpoLYib5Y7/gGvuYllugbXxsGy2dUDkD5mJdZoysKcN3XfLPgMhtSZF3e2SEMjxnXIvlue9nefvBGeZqC75bnH02WuKztAa5ycK1g1ZxODkDNO3AU+1gndXnx3AzI5YBRZTbtGWeFTNZ2Maqi2ZEVrWLp2A/sD2stlG2Gwq30TaHb8oJvEyQcAPP+iqZgFEM7quBBDkAVqJdUJxSkK0xKBbnlhcdK4i6Oaryzf3Ct2T9AiOWAk+syVlscn8GNpY1Z+PBG9WD8j1JvZKlTeeuDgByA+vRVEKcY0C4FyZ3wWxAyDKqsZpmoHD2zfzTvvDb/AYWIDhgr114XOrns94iaUBgrlG2OZ08FXn3hKVu0oxCo5pkcgGpwL61WKEhXFICM8bVAKg9eNzWxfV7liHCzy5lqKnaxtcsbBWC/N93JpaNzw1d+09VVMP6a/bsQqz+xHID69+HYFmBguwwXlQc3TPE8tvAaEtD4e5UjjP+8Zv9xdjacXFcUgK1oupN7w1d+i810Ja+ecBUu4pEIVPVQDkBVyJdYLxTkeRiwg54qafxDlIinjipol9vlmxmRT+8sk3mUykMA/eOW76Y6uXRuKedO9A9TTzjziLzmCMgBqHkHWtmHgnTPkqhEmrZeSqVvxSylw8yIoVHXGxVpXp3LQaBnvNyRLjq5lPNyuCy+Fhp/RricNZ0/derUjDOPyHNDoLqC5ABUh32pNVNBwglwzZLIYFPWS6nkA5VjZ3Z21o0bsVMqF4HeH8EyfyGQ3C3LxW+53pNnvhgTnfUA498BbpLvGDu0BJ7kAJQAcixV0AkAL65ZEug7W154tHPjl36jtkqSSp78ByrH7cRAKX4EKN8wZu7+onzUORKwzP9vduisB/QSQ/+KbgUAl1eWKsuRA1Al+hXUDQV59MqVK+4Bv6xk6jdTotGn8Q+EWsoxELiqstEJQN1uJzeV77q9HZDyTTlHu10H9YBC/y7IGkcsB6BxXTq6QVSQvaUAV6iUpabKpi5Kknwy7E/evUnK0YtYPPQ0auw/L0eUb0a7KDfevFXQ0+jTuSXfIfX39EBIVuXJDYFqC5IDUC3+ldROJwCRAHeolMxS2cSuJMkjDT/5JM8B6byUYwBqEWXp9Z/byWUTKDeUH8oRf8eY6KSQx1DeOP6pB0LzK18zEJAD0Ix+dLeCgx+zpODNP1SSnH1QEbkrLygDFTb5IV+cHYVWA+V4kPiE5le+6hFg/6Ef6eQGOQGUH+4LoDxRrqpv0TIH5OeWZ3492ZezfMf/P3EBPu5lQH9NyjEOgaqfywGougcqrJ8ftsniBFAxxuIIUDHS8JOfLJBKOWZBL668MHLn2Z+hXKXynToCoeXkkY8OSR7yPTEx8T8CFxn/PDqlAWXIAWhAJ2ZpAp0AKIXZLGWkipIKiooqS1mevEm9zz/ayTojSuuksZByTNFoxhn9SSdgW5bWJHLWexOGjmaWsrx5WTdD/Uy89uZfS3/58uWNa+/pd1UIVF+vHIDq+6BSDnbv3n0HogA358EEFRQVFR0BvpO8+aWn8ih2VRmsg0o4rSfrjD8tXMY/RaJ55z4nIGg5IEUkkb2eI0D5o3zzXvo8jzPLoxNNGadjy7HE33mUzTLg7O/buXPnu3itJATkAEgG9gOCdyPldlCJ8Z3k6547knw/IFWWIYqMZTFRIbIcKsQtUMIhZQ1pIGeI22EkFBYdAlATbqN/k35GWzI5AciffA+D8pfKdyKTiETxHmWVNNZEeibKN51mlkU5p4xby3DS/RScXY55ZzaR541ADOXJAYihFyriAbP/nZj97yuyeio3KkYqSyq2dFaTKjoqPSYqQCZek47P+2mpEFlOzrzSKHDDn4x/zsDGWFyeTkB/+yjjlM+1csvflGcmyjYTr3l/kHzTae4vt8Drfbt27ZousHwVXRME5ADUpKOKYBPrgZwJfH8RZY8qkwqTiQadSo+JCpSJ17zP56PKyOHZM6dOndoGoyDjnwOYdSkC/U2nj28HuD8W5Gkj5ZdyTHlmomwz8Zr3+dxTXs60b8FSwP6ZmRnp/5yBtRcXB6UEII5+KJ0LzP73QQkUOvsvvVG+Ch/1kYu6KQjQCdi0adP/Dvn/z01pU0A7fu3pp59u8/gPgKx5WeQANK9Px7YIxv/7Efrn7H8sbVMJ0P5909PTdza1fWrXaAQWFhb2QQZ+fDRV7Z7+i5Pj/ffee+8POvOIPAcEYilCDkAsPVEiHwj90/Pfaa0SivIpzJb+Dyt9HejQHir/VjtBdeinInjcu3fv29H/HANFFF9VmYfRpjtQ+RyS9bh3w4YNTcPB2nbRAQE5AAChTQdm/++GonAZvsnJyf93dnb2f8J5G/IebRBejAI80KD2qCkGBJaWlmj07jGQ1oGEexq2nTp1agZj9B/hrB8H01eQrMf+Xbt2/YyVWHR5IBBPGXIA4umLUjiBgqDy40zBWt9/gGKhUulw7RTXBxvkCLwZIOyfmprajLOOFiCwc+fO96GZLgcY9NEdGMfzHIcw/NzIuvJq49zcHMcqk5XnH4NTT51gpRddgxCQA9CgzhzXFMz+7weNR/n9E+iPIa2aUfQ7Anh2GCmWg4rw/wEzX0KyHg9v2rRJCtCKVs3pYDTZ154vAz6LJlOucKr8IB+H0YZtMPT8dgV/r2MKBp0OwDfXPRhyA87E/unp6QeHPNbtnBGIqTg5ADH1RoG8YN1zEwY6ld/3Oao5jhnG0DVFOgJ4PkOFhLIPQvFUsTxAJUiluB28MBT634MPOi3mZl6+fJkK0GMUzGWLMB4EEOp+GNx4HOCvQzb+HeWKMg65qkK+wXInkXHygTTDcdcZ8Q9RutMYj3QCRlBdfYR23YBf++66667vwVlHixCQA9CSzr506RKN/69amwul8FegNRlSKiTMSI5C8STLA1A+iTOA8zzKKOJIFCKUcmr0qRT76zqOup+wVoy2vg+J+FiziK5mCNx///1v7vWxZ7nn+OnTp/+MTaWMp/JNucO9w5CxfpnDrdyORL5R2mEY/AkkOrYz+G0+wCMdAEYvrHkevvbaazUGrGgF08WVUQ5AXP1RCDd79uzZ2lN+5vKh3Dj7/xtzhh4hFWXqDOC8HYpoG8o6yAQejuLsUZrne/RcZkhn+SsKEXUNLAuK+tuol87LGz22xp5QD6MAd48lFEEtEbh48SKNmyfM/VS326URXdVeyNx5pHkY5ZlUviFr2yE//U4vDfiqfEN+kO48xwWe06E4iHJX5BvXLqOPMlYOjIGvoNx1/K8QDLgA/b4dO3b88IBHutVQBOQANLRj+5vV2/X8C/33xlx/FnloQMeQjX8MZXkeivIoE5TSQZw5a6eSm4Di3NaXEmeBv6H4kuc4J2udOM8woayBBn8QF6jrU1DKHgXYxFfDBkHTunswanzlkw6Aue2UnRMnTnxtXAbIZOIQQK6TCBjOlG/O2BMZpjyvTZDl5BnOpNsGWaXhp0OR9xID5f/xcW1In6PN74PT48IpzauzDYHYqOQAxNYjOfOD2f9d9OwdxS6C9viZM2dexrnQo6c8qUCZ5tPfeVUKxUsnhrMsU5FQgPt37979QROxiGqDQM+oeV51+/TmzZtpPDO3MZXp/nPmQo0FwLH4NsY+22GOhKFo/p2AprwiieboGIWAHIBR6DTg2eXLl+nR/4ijKQz9/76DPlpSKMDP9xSglcc3wQngn0u93ppBdHEjsGvXrh3gkGMAJ9NxATJw/LHHHvuOiTpyIoyBT4FFOsI4mQ5FwkwwhRDFl0cOQHx9khtHO3fu/GUUZlZ+MJbfoPJDniYdVH7POBr0gd6M0ZFFpLEiAJmm/Hs+d3scYfxG/Z0IYMAogDkShr7kB7J+BWcdDUdADkBDO/ihhx66FiFwKr/vtTaRxh/K73NW+jrQYQb0HPikAsTJdgAHKsAftVGLKlYEMPv/KIwfx4CVxb/FmHHJirXgKukwBhgJoyNsZeNNxA0TCEXCrIgZ6GIkkQMQY6/kwNN3v/tdvu/8i46ivrC0tNQ45ddr/zEY9T/qXVtO76UCtBCKJk4EduzY8Rb2Ifrdo+OOY63+L+JsUWauOLbNkTDg9hCcIeqQzBWrgHgR8AyOeFshzlYhcN99972Tym/VzfE/uPHv78aT1Y/i1KlTrwMPKsBXrdxDAe7bvXv3diu96OJCAMs4NF7TDq7OIg9lxJGlPqSIAjyHMeCJAnQ4BqanpxUJy6Wb4yxEDkCc/ZKJq0uXLlH5/ayjkD9+/fXXG6v8iAOcgD+BAvS08bbeBkpmV6oRAgj9/xTY9YT+aeyOnThx4gXka+wBg84PZJkjYRgv7wEY1CU46WgiAnIAGtarUH7vR5PMyg+D/DUqhqeeeuo15Gv0wXaigV9FMh3AhlGAj5iIRRQNAug3Gq13ORj65A033OBxDh1Fx0MKJ/h1hPUZBTBHwsA9x8B2nHVkQCDWrHIAYu2ZQL56yu+HrNlpFOfm5v7YSl9nOijAPwf/HkW/AfhwQ+AtyKejBgggZOTHu98AABAASURBVL2XfeZg9UUYxeOPPPLIkiNPbUmxFPAZ6AjPGLgVjaVDhZOOpiEgB6BBPQrl92E0xzz7B+1/RZjbowyQpd4H2wsDYf6iIFq7BwrTgymy6KgCgTvvvPMa1Lsf/XUTztbj2MmTJ2etxA2hYxTAHAnDeGEUQJGw4M6PN6McgHj7xsXZgw8+SKVHT51K0Jr32OnTp79gJW4CHdr79zAQLqenpwB/sgntb3IbbrzxRjpqdIKtzfxrzv6txE2hQxTgi2iLZwx04Tjzb2UoEgbgmnTIAWhIb77xxhtUfnsdzfnchg0bPErAUXTcpC+//PJxOAG/5+DyJ6EAia8jSzWke/bsmdq1a9eBNCEqNMO0e/fuI2nCs7NrU/qMtEx4npTB8nppazUtstW6c+dOLnvRAbZlABUcO87+v4zL1h2QZ24INEfCMF52I9ViDMTWmTHzIwcg5t4x8gblxw1PLuWHoo9/9rOf/QbOrTueffbZi1D+VIDfsjaeyg9Gco+Vvkg6GOStqYEGT0dwfRZG+xzSFSj2s+D1SJrAxyEmtPdAmvBsam1Kn5GWCc+TMlheLyXlsy4m1DUDPqZ6qXLnADN5GidugAX7puNkWx1gohMYCePfylAkjAA2JMkBaEBH9pQfX32ytub3r7/++lbO/lOATp06dQK4cS00vTXufAuM5L6HH364O44w7+cwuAdo6GF0EyMMg3wuNdDg6QCup1BnKUaYdTGhvkPg42wvka9z4JOOSOoYlMIP+OgAl58FDh4H+BL7/sSJEy8xf1tTQCTsJ4AVHS2cdNgQiJtKDkDc/TOWOyhdfuzEo/xehrLkrmf+1b+x5TeZAMaLTtB/crTxIxcuXChcAaJPVxl8GNwj6LMD4LM0o4q6vMdW8ElHJHUM+h2CQvlGvfuQ3mllGFjyi3+eJSBr0bWiSyNhYNrsCAE7RgGiiISBbx0ZEZADkBHAirNPQvHRIL3Fwcfxubm5zzroG0sKHP4jGueJAnSA9/69e/fy1ShkzeeoqcEf23hglToEjBBcQTu59+AAlg1ycwgw+/9FGqWxzFwleL7b7br6/GrW5l0xEoZ+oiNsbdzNwHvf1NTUBmuGNtPF3nY5ALH30Aj+oPxo/D86gmTto7+R8lsNSe/vH5xafXfkr+29Ly2OJBr3EMYwneVfgQKuwwx/XJPGPkc7uffgCCIvSXSAGGRxBmCEvhdlcgxcO7byHgGMF2f/5s1vvWyNPqE/6AB4NkN+ZNOmTcS90bi0oXFyAGray/fee+8P9pSfuQVUflj3/CtzhhYQnjlz5p/RTM4IL+NsOog7DBc/k2qi7ydK1/JRRmr0+x+35hrtX+UMAE9uKHRFBjZu3LgPMs0/eW3F7YtygNdD1YuE0QlY/3DIHeDOD2TdNuSxbicIxP+fHID4+2gghxs2bKDy2zHw4eCbc9dccw0N3eCnLb6LMOgnYZA82PwoZk3mGRBnukjcIAe9eeUAoHYZOtA3+gD2U8Az2VCIqBY3EY7FB3j+CEAx9wFouXzD2b/5AzjM05bESBj6wfNBpO0QZhf+bcGyTu2UA1Cn3urxCuX3MxisnsGHsXqFr/39U68IndYgAIA4A/qHNbdH/dyPfnhoGAFmtFt7s/0kxI/+4nr4MHLdX0aAhp+bCJMlAmA4NCowOTlJ+b9rOZvp/88gj8fJMxXaFCJGwnpjwBUJg4y/tykY5N2OOpQnB6AOvbSGRxgTzv5/fM3tUT+58Y8GbhRNq58hCvAkAPBgdD374cEHH3wT8q0cNFpwDDibPQeFytn+yjNd2BEAtklUADNTfudg1cZBRAl+AdjSAbAW+DrKO47lL88fwbGW3Rg6jIFCI2GNAapBDZEDULPOhPJ7EMrP89rfN6n8atbMSthFGJozxL90VP4rCwsLiSHqM/z8EE8dZvvn0c404TLOA7Kb7BXodwRwj5gzWmBiGuPl+Ozs7B+aiFtORKyQzJEw9gWiAB9oOWwDml+PW3IA6tFPCZdTU1ObccF3nm/A2XRgMFP5nTYRt5zo9OnTfwsIPFEAriv/D5jxfwHOQ9WG/zyU8VEm9PlBJoS8t/fSNpy3YYY30Zf4O03JfdL0UpqP67wHgclhlDfPhGs6DTiVe6BdiSMAnL8IPg44an8OeV196ii7caSQjyeBFx1ha9uuR3/sWxsJs2YWXbUIyAGoFn9X7Rs3buTM/2FHpmeh0KX8HIAtLi5S+T3myPJvoDB/1kGfiRTKdh71HcU5NfI04jTg2zDLPcg0Nzd3lOnkyZPzvXQe57GGmzS9lOabZzkwCjM4b2fCdeJMQK5WOQdo1NjyQZPHcTMKMb+DDqyOg+enkUeHEQE4WdQZnkjYBxEJo24y1tB8srq0UA5ATXoKof9tUGYMfZo5hpHg7P8r5gwi7MzPz18gboDiu0hRHOj3xODD6G6jEV5j5MsyvCtYpE4CeDkK45o4BzjTMdgOoiRagHPpfKHOtcfne3259r5+j0CgFwmjIzyCavUjyOi+vXv3vn31Xf2KHQE5ALH30FX+9kOZve/qz7FXj8Ng0JMfSyiC1QjAsD2CO5VhB2W6YvBhWCdSg0/DC76iPcDfPPiNxiEAjpz9n4sWsIgZQySM8u+JhN2dxweyIobEwVp9SOUA1KCvMPu/G2x6Zv8LVH4wHN9GPh0BCPTCoF8PyBqUBf11FA7bdhjQ2hj8cQ1d6xDAgeWyRSlf4UNdn3rjjTdoxMaxqecDEGAkDLePAUdzJAwyvG/Pnj2eSQqq0FElAnIAqkTfXjfX1zzhNYb+P2UvXpRrEUAY9M9wr1ADAoW5yujTYKLOxh6IrHBvQrLBEI08jFTUMsElYDsLI7aAOnQEIgBn9NPA0TMGtsFxpq4KrLEZ2erUCjkAkffW7t27PwgWPbP/c85Bi+J1rEUAMxm+yvffrL2f9Tf6JgnvQ7kmM/2mG/1BeLHNaP8MUrJvgJiALk9ngJsE/z9EzkxfFUTdOoYggAgA9wJ4ImH7du3a5dmoPKRm3S4DATkAZaAcWMfOnTuvR1Z61Ks+NoN7Qw8MWM7+Pz+UQA/GIkDDgZnMWRDm9lf/aOQY4seyzEHOhFG2DiBAZ4CY0BmA7PKVwzwdgUP8fgCcOfM3A8CSjj4EIKtP4acnCrAZsr7//vvvfzPytfCoV5PlAETcX91ul1/8G/q52QGsPw0j4xmsA4po7y0aCsxeaPgP5YUClCHD/MkrejR2eZXbxHJgbPhWwbY8HQHgzy8K8tPCB5qIWRltghPFKAAdAWt1D1y8eNETtbSWK7qcEZADkDOgeRWHWSj/4Axn/+Yioew4+3/OnEGEKwjA+CeGAhgy9L9yP/QC5fQb/jxntaEs1SZfQY7AEYwpLQkESMGZM2e+DqfMO7HYv3fvXs/nygM4iy9L3TiSAxBpj8GA8It/73Gw94cBg9RRfHNJOevvhfwzNxL9JsOfGcXlAlJHAFEtfl8gDydKSwLL0Lr/v+GGGxgF+LQj452IHCgK4ACsClI5AFWgPqbO3bt38ytrntn/qzA8fOf59TFF63EfApj1b6XxB3aZZ/1wvuZhqNJQfx7Gqo/Tdl9y6YR7BIBC5jcH2Ndw9rQkADA9xyOPPPJdyDijABcc+bgh0PMnyx1Fx0haP57kAETYZ1BQ9JzNG9AwMI/Nzs5+JsKmRMsSjH9eIf/zMPzJZ3JhqGT4C+xxOAEzxBpG/GjWalCGlgScICIi8yiy0AnAyXT8IHCmLjMRi6h8BOQAlI/5yBox+/8IBo1n9v9VKEXPoBxZfxse9ow/N/tlbe5hGKVtMPylfNwmK7NNyA+sz8PZPQiZ3472ZHW4tCQAED0HwvrUNfyjWdZs+xFl+6iVuM50deRdDkBEvTY9PX0LZv80/l0rW3AWOPv/opW+7XRQRgeAcSbjj4hLEu6H8Z9pO55VtR+OAD87vA31Z1oWwPiZglE7AqdQrwoCzHHHmTNn/gI0dAJwMh2AeGLffffd91YTtYhKRUAOQKlwj64MI4Ub/3aPprr6lIYIyTMYr2Zu4RWiK0eA8ZEsTefME6HQ7TBAWWefWdhQ3h4CdMLYJ/gZ3B+QCS4HnZUTABQNR7fbpc550kCakkxfunSp4UsBaVPrdZYDEEl/wTj9JIw5Z/9mjqD4jkEBPm/O0GJCzPzPAt/gd8GRN5n1w/Ar3B+ZHKFPzmMcpNGAUO62MjIkJ2A8fCdOnHgB44FOwHjiqxT7du7c+dNXf+oqBgTkAMTQC+AByoce8k/g0nRgAP6e/tiJCaoOjT9neTbqgVSHNesfiEtUN+EEJJsEwVRoNEBOAMCzHDfccAMdgE9aaHs078KEhTqu97NZp7q2Rg5ABD2H2f8eGCjP7P8lDKZj8/PzlyJgP2oWshp/4My/0Ke1/qh7+SpziAYwUsPXaEMjNXQC9JrgVUgHXj3yyCNLmLTQCXhxIMGAm9BxfC3wvgGPdKsiBOQAVAR8Wu3DDz/cxWyenvHN6b1xZwwkfvHv5Di6tj/PYvzRJzQk2uFfQyGCE3CeERuwHrxBEGNMGwMB4Kjj9OnTs3jODwThNP7AmLoJuO678847rxlPXSeK+vIqB6Divnv11Vc58/+Ig40vg9Y86EDbyiOL8YeSOkoDQkPSSvAa0ujekkDwHxjCDPec9gSMFgZEyBgF+OvRVKuefvjGG2+kzlt1Uz+qQUAOQDW4J7Xu3bv3VnjFnP0nv43/cfbvGXDGYptDlsX4oz8O8j3z5qDR7pbAiWMkZztQCNoXACdAbwcAvGEH8P0yxox3QsINgT80rMy63a8zv3IAKuy9S5cu0ROmcjJxgZmpK+RmKrRhRLt37+arfkGf9sVshl/0O9owSFrfHBip5GuNACLECeCeADkBAG/YsWHDBkYBPEuS78dYo+4bVqTul4SAHICSgF5bDUKL74FB98z+l+Bp83v/5k03a+ts+u/p6ekZYBT0qh8UEt/tD9041nRoa98+OQHFdeGJEyeSTcmowbwpmboP4/VnkafmR73ZlwNQUf8tLS3RA/5Ra/UYMDT+ntdurEU3gg5hfxr+QyGNkfEPQa1+eegEnDp1ahucxBBHbyvGrDYGDul2YPt7wJWRgCEUq2+D9p24Qx2Ik46qEJADUAHymP0/BIPumf2HfHijgpZVUyXwnAKeIV/4S0LDUF4hBqGaxqrWzAhwgyfkxb3Ugzz8YuAByJs+GzygF7rdLvcCeD5Mtg9RgF8cUFRtbtWdUTkAJffggw8++KbLly/T873eUTVn/0866FtDSmUMPEO+7Z98PU7GvzWisqqhvY2efE1w1X3Dj0OQN0abDKTtIuFYwszeHAUAOtci7Z+amvpenHVUgIAcgJJBX1hY4Mz/g9ZqMev4Cygcz6CyFt0IOmATZPwnJyf5elgjMFAjwhDAcsAMxpc7EoDaDsHxDNpoiryNPnpRAM8fJ/uljRs3UifWEJf6sywHoMQ+3Lt379uhcDj7N9dKj/r06dPXTlY1AAAQAElEQVR/a87QIkKs+9P4u8OxNP6crbQIKjV1CAK9SID77QA6nnAC3LI3hI3G3Ma4+ip0nHfCsh9j+UcaA0KNGiIHoMTOWlpaoqd7t7VKDKRHFxcXvYPJWnyt6aAwDgAf9ywMxl+7/Wvd8/kzj0gA/5CQnICcoMUY416AzziK+znkoW50ZKmetAkcyAEoqRd37tz5PlRlnv1j5v9dpOPz8/MXkE9HHwKcecH4uzf9QcnI+PfhqMurCFA28MvrBPAbAQeQT0cfAidOnHgV45MTl9f7bo+8hK7jhsBfGEmkh7kjIAcgd0gHFwgFQ+PPmcZggjV3MYD4p34/vea2fgIBhl9xch1QMAcRnpx3ZRJxaxCAbCRvhKDBXidA+wEA2toDSyt/iDFHJ2Dto2G/t0Ln1SgKMKwZ9bovB6CE/kK4+mFU4xHurzsHD4pvxwEsQ9b9D8/NzR1tB0JqZSgCoU4AHVJGpULrbWo+GHQ6AM9Z2wedt396evpXrfSiy46AHIDsGI4s4f77738zBgJn/5tHEq5+eAwG66nVt/QLxt+97g+lMo81Xv05X4mPCQE6ASD8HSTXISdgPVwYd09D99EJWP9w8J2NGK/7duzYcePgx/HcbQoncgAK7smLFy9y5v+Ao5qnlpaWPIPGUXR9STnDgjLxrvufhyNl/lsL9UVHnOeJAAwXHUbvNwK0H2BAJ8CgU5d9fsCjgbcwxu/fsGEDdebA57qZLwJyAPLFc1Vp8GR/HDc4+8fJfBw7c+bM183ULSGEU+Q1/p1JvevfEunIv5k9JyBkP4BeDezrDuB4DkadTkDf3dGXcBq4IfDfjKaq8mlz6pYDUGBfdrtderJ3Oqr49GuvveYaLI6ya0uK2T8/9et95e8wwrna9Fdwr6Nvtqap4KpKLx4OJKNHLicASwF6K2BNT73xxhvHYdQ/teb2qJ/vhtNA3TmKRs9yQEAOQA4gDioC69U7cN8z++frfseeeeaZ7yKfjj4EoFRds38oG6379+EXeknDPj09PQNZPovzub50BddJQt+cS1Pv3jnS888y48zv5nsdt1B2c88HB5LG37sf4BDbnTszNS5wfn5+AQadE5tvW5uBMcwowC4rfZl0TapLDkBBvQmBpwf7A47i+b3/xxz0rSCFUeF6rCesqnX/QMlYY/Cv0LCjqEOQZRpx9kGacHvowde5pqDAuWHzCMqg80Bn4RydAtTBsoZmju0BQtiUP9d+AODFVwOJVWzNqYwf4Pg4cKETYOXh+yFD1KFWetEFICAHIAC0cVkwA/goaDyz/7+FsPPrWcimI0UAxoJK1PUnfhG21Tf+UwANZ2JMJwtprcE35HaRbIWMH+g5BIwm0LC6CqiKGMaLvDIaYGVBGwIHIIX+pwPwlQGPBt6Cw7APTqNHjw4sJ9+bzSpNDkDO/bljx463UHBR7ASS9Tg+Nzf3l1bittAFbPzTur9ROFLDD4N8DllcThbosx6JYwenozZRgZ5j6XECFAVYIyVwpJ6FbqQTsObJ8J9wGugEfP9wCj3JgoAcgCzoDcjb7XbpsU4PeDTs1pMbN27U7H8NOjBQ3o1//PO+nKmtKUk/+xEArlsxq2JovgrD388Kr1dFBcgbb8aYTp48yQ2lrv0AAQ5sjE3PlSc4nNwQeMZR6E7QUqfiVP3RNA7kAOTYowj9/xSKc61bwcM9/vjjj/8D8unoQwCKgl/867sz9tKlnMeW1jACGtfU8EPmYtypzrA59wtE68RhBkvezFEAzHanoBNixLoy6Uak85uIprgmPJBXRgHeXRnTDa5YDkCOnYsBT0/1XY4iP3nPPfe4BoOj7NqSIjRMRevhX7P/EWjB+E/BoToHRRq7MVpZGgDPvB7RqsoeeR3Nj1XGaaQVz87OHoeu9CwF3AH5pW6tuEXNq77VDgCVDFLipdPo9CfOltLf9OKZSDtMBEC7F0Ltmf3/M4T6+MzMzOVhZbb4vktpYkbB97VbDNfwpkMuZyBn3mjK8ALLeRJtNEBRgFwEAL7oFToA/2QtjboVOvn+YfTQzfwexTpdjjxHmDgOqMPTBPpavY0yrN1Z77fGAUCHb6UQMEEIGGq8AsXId5jPQrj4njk3Qq0kSChnS8lvPmcCfZIPZax61/nOO++8Bh2xH3luwtl6HD99+vSslbgtdMCWs3/P7I8b/8xh2bbgSHmnnKO9lGGcandQBg5BHs6xLTFx33M4PTLncmhjamtRvMCRmoNO9UQ/vw/6d//evXs3UR4gF/3fpxiqy6GTDzChHXyd9QjqTBLKWqXLWR7KHekUoIzGHY12ANChqdFPBAS9R2VIQcja0avedb7xxhsXUfaHkazHf4QSoQdspW8TnUdZKvQ/QDIg90nIH8ouq5wPKL30W0k0gG0qveYhFZ48eZLG37wUwH4A/3RohpTYztswzNwQ+FfW1gPHDy0tLS3AeCcbWPGb8p0V10SXg4dDKJdOQTK56zkEWctGsXEfjXMAONDYeUj9Rj+qXqDgQ4l8OSqmImAGfead/ZuVcATNK4UFyD+Nf2Eh/6VNN3WYFq+7vcO0cMs9HabXb30oOfNeAQ2lE3CEbSug7KAiMYOlrNIRMOWH4WKU0UTbFiJg+DeYCHmiAGVAs8ohYBQN6UCnU0bV5dfRGAeAygEGhCH9xDssH0pzjSc2bNig2f9guDT7H4yL6S7GAA1lrsafxp7GnenFu3678/K7/32SLtzxiQ7Tq28/2GF6/baHkjPvpXS8fvUdBxPHwNSA0URs2xGMcRre0ZTlPTU7oJytsn/KY60eNV26dIm68LORcps4A+g7yl2tPl5lxbP2DgAVAhINPxVf7CGbJc7+T5w48ZK1g9pCB+XoDeeZlW8bMAR+NJAcA5mbmxr91JDTuDN5CmYZjAYs3HxP4hjQcaATwfuectbQcnx/DOM9CicAM1jyoSjAmk7y/Dxz5szLoOdSwEWcoz3AGGUv2ZNC+eN4w73aH7V1ANgB6Ih0ts/OqUNndBHymibvdWC2TB6x/uYJkWrtf03n9ELMmcYBjTONdGKsMaNfU0Wmn0nZKPPCHR/vZIwKsI0fwxiiw5iJp5wymx1RzCSnwDf5z6nqxhTzo8CGG6nr0CD2X7pfgA5gHXgeymPtHAAOIBh+vtpE48/OGNq4GB8gApB+D732wpMXvuxTlOXpS7PSRbmNP7BGyTdZgg1iYpyxhl+E4V8LPutKowJ0NtY+N/5mtIN7AjwyYyzaR+aNAmD8cyOyr5KGUnPcU3bRvMgxAYfrD8peEhFAO4LH3vpiy71TKweAQGOmSMNfR4Hp79l+4eF1/7PWXaNP+cqltd2tnv1jDPB955VEBYrZU7AC4ga+Mgz/oM7lsgLr5lLBoOdj7tEJyGXJY0w9lsdmhxQOwAH2oaXQJtOkk7gsshsJPokcsj2R8ONiozYOAAGGoYhlwLtAHkFca+EZ0S7vI49DZ1a2XiZioqeRQJqi3PNDJjT0uE7ebME44J6XJGVRoJyBcwNfle1mRODCHZ/okJcAPpLXfAPy5ZoFy3pHUaBnL0Cww4Z6an1AprdSltEIz5gHeXWHseY0GlCrCV30DkCDBSaVKwoMhaeVSwIwap52N3r2T1knHjT4PSNPh/cQZ41ZDH0qaP3nxOhiTb7/XpXXaTSADoGTD/7VvUoN6smTJ8+jf+YdfHvednEUGzcp5JuvqJ4DVpX2V4Eo1W5CF7UDUKTAUNEw9MgQKGcfTFSKTAxLMvGaG5aYSMfEPAUJEJ2A6L56VlBbV4qFcXv/yo/xF42b/UPGk1lsavQBQWLwcS7koNxTrguU42C+l3n7ePKdAU8hcJY8G0g9RZtpYdTMsgna1m0GpGOLfqJDa8bUSki5oW6mDmeivqaMM1GPM/Ga95lIy2QbA1YuVuhqNaGL1gGAYqS3mKvAUFAoIBQIpkQo3n6ww9kHEwWCiXRMvOaGJSaGSpmYh3mZWBZpVro++0XiQaLtFKLspUVeAttJZWhlsxdqtZJHT9dTismeFjhCnn0QwW177R0Hkw/4BBdQcEaOuwt3fNzLY+JEFczayOIRBWAEwLwMAGNYSn+PZLqkh3RuUVVuIX/KCPUu9W/6qip1M3U4E/U1nzORlonXvM9EWqYLWHqiHk+dAvCY53Go1+48y8y9rCgdAKwRJTvl82gtO75fUCggFIgsZTM/E8tKhYh1sK4s5fbytsYJcCrB81CyZgXbwzLKEx0fyDid29yUoqWhlNWcZNRSXTANx1aAoxJDWN0cBYDD54l8BWNZdUbKOdqa2dmhTFDHUoZptHmm/s3aPpabOgVpuYwO8D7LzpLYbjj5dPCzFFNo3ugcACjHKcwKM4f0qOjSDs1DUEb1AoWFdVAoWSfrHkVveJY6AU1dK0sh8Chts3JNC4/tDNlOZqpwfEpfB6XyzEEuS4OUY4pOgKPCrVXPuDyvBELHNX4ZgMaf7XT04TpSygFll3qVOrZIGWZdLH85OvDxDutdx5D/Bsd8tE5AVA4AFGTmsD87kYaYidf+/sqWg3WyboaVeJ2hNDoBUbzrnKENQ7Oir7nMwTSUpv9BT7n236rVNdpL2aYiKHXWT5Co1Kg8eV2nxPHDcWTlGTOuyh1mGDwuBZhYhiOYeWZsqqgCojyMPw1wavjLbgJl7/XbHko+e00+MtZfuXM6jP9oHICegmRYdBivI++zw2h4KTBUeCOJS3jIsNIFrGVSeMhbYJV0As4CG7OhDKyn9GxO5Vfr0D/6j8Y/WLazdA5l7wLWOrOUUWVejiOOISMPnG153ioxFmsng1x/zk7d4RsMjRvbjMTAEQp2xqi/qcdjcFo5fshHws+tDzm6djUpnNMDxGX13ep/ReEAQEEmhi4UDioIdhAFJ7SMIvKlwnOh5wgE1pEJm8A6C8+GAeFZA61t+B+yXbHx/3jhfVl0BQu33O2pwrOs5CnXRDs3N+f6JoCp0BoRUd4xtoMiG9SXF+CsMvG66mb3109+UkeA1/3PrNfEZXp6ulIHdS2vUTgAve+Yr+XN9JvCwo4xEVdERIGhEqOjEshCtCGkkPZASSR/ZcuYt7bv/qOdlRp/rqFT9ow4R0vGNjiWAviVxODZZx4gYPZrXgaA7quU1zzam5aRRd7ZxxcwUYptEpe2LT2nfPKc3nOeY/o7Fp3KHQCGRTBg3IOAHXAB3mLsApMKB/mloxLqBNB7xLpakGed8hDL2an0ajn7z6IMx/UTZWltSvPwPmUsxohYymPI+eJ1t5u/D4AwvFufhPA0LA/0mUdmK41YDGtDyH2M66D9LdThlFfKbki9xeQZXir5vABnheNsONXQJ4zoRrO3q1IHgEqShm0oVEMepALD8xCSaG/TCQgVdiiWRqwZoh2NW/fsFzjINQd5bmv+VDhUNhfg8KbvPVOG+hPvM/EeZayfnyZcE4OFm81LAZUa1ZMnTzICYNq3grHQiLcBMDkJ+oNUqVzXTUYpjxxn5D+A961wljK/27yjcwAAEABJREFU6RZQ77oslToA8NTdSpJGn4pwXUtqdIPCcwEeJM9OtqMRHCffa8nNCrqOu//zGNyUDSqXfqNO2V8LZJt+cxnN2N5aLQOgTbV2iOHw8tVtd9TlAhxaGlG0P7rDyhD5Zzus9CkdHT84TZVHdCtzABj6T8GwnqkAQ8C2ll8mHRX8BTgB3jpjERwv3yk9lAWVHVN6a9TZNIsaVUDZzzio2Ueh9S7LxSeWXz+K6Fv9oe3JMx+xoQ6wlInJhdsgWcq10qB+89sAoK2UV2ubhtGBf/dsls6ttS+H1RvLfbbDsUdlhW3oiaAlk5UCcrioxAGAEZjyhv45+C/AY8yhzdEUEdqmGAQnFEQoC4/X61lLDWUpt3yQa25udCvDlAEqRYbwqVDSezqvRoB7AVbfGfwLY+Rtg5+Uc7fb7ZqdV+hCzxsx5TTAWEtvV7vVoU9KpXxz5pz8iPI/P1MLN98T8uGgyjd3V+IAIETq9ny4o9nfLfHn4GAI8B4rF5z4kS2fQ8h1kPGnI0jD3zSlWEQPWJcB4Gi6jFLevLZhHwAdXuDm0uXUd02byAGD5KBssn3JD+N/cP4OAMfKIkClOwAhIVIKjBdYI/5RkIV4jxCcum4eMiuMmNf/MWi5zsw0xVkQl7Qw63QP5NT48xyFMDaECfRFpQ4AYQQP3AzIS0uqnF8Lk/000EHmscx8lHHqcl7HnEJ5Y/s4UeXZUwYmDi4cPWWPoy3dAQBD5g1goE3CKk02/mwjU4D3uNU7AFlPlYlG01G/OYTqKDOYlLzT0MOBPYvzFcwwz/USN7IeQl94ljYSPqgoqDCSH/rPhAAxYzIQV25QIR+N3QfA8eCV+TbIOmXzgnNvFxxFTubckwfDGBhLUqoDAOV5gI0dy1WPgGC2JSzKtnoHCAZgJULT656Qk0cpR7H+D2M/A7k9C2WefMffI7/jAGJ/t8G5HYeD9/nSphtNWWikTIQFEXn2AUCuKt2z4IUAusc1a+X+lnrIuheJ9fTU5d5l3aqiAKU6AIDKNfungkSe1hwUnIVb7vG0t/Jvn3uYhRE1OyxQMJVGAGj4kXI3+ileVBBtUYhpm8s+Q97cUZk8efTsAwCvHuc4TzaDysL4dGHblolcCiY3q1Kfp7/HneEAVhIFKM0BoDfORo4DIn1O5ciU/m7L+fVbH/Q21eVUeQuvit4ze8qTR8gp1/QTw49yC1HKlGvu+0D5OopF4BCdOPRpIf1oYR2G0uTIenSjpd4iaRARcxl/OrtF8pNn2XmVReP/+m0+XQ5ZKV2Xl+YAoHGukNF3WvoONAXHOWCSjWh5CW6R5UAGzK879WZPRbKzrmwYixnMxLimX6jBaKtsrwM88MblzTd5ciZfZWTfejLlRTs5OWlyAFhflY4K67cmOCtmXU591lZnl1EAOvtWXKEfzRFSa5nj6CbHEeT13NM4hsE9wOXFYyzlUHA4cKz8ANvSPUcrb/10UBxWATcrzf7yQ6+hePtn/aHFmPK1XbZNIOVPRIcuiQaU7QjAoTRvBESzySdO8R692b+ZT+8suNqW51s7dbjT2S99MleKA+AVmgX7N7/z7bFISqPgeAYOHACrYa2shTCyZqWB9pTmAICv9C/2mfnLAmLAEk+W6hqZd2mjbRPggMazj+kIRPUnWVM+l5aWyF/6M8ozIhrmKB4ncQs3u/Y0RdnmLEwRAyZrGZABc3TFWuYoulIcAI/QaIa03F2MAixfmf4v3XM0cRVIhEiBZ9YUWEunQ8cUMzSG/IPL8GTk0g6dO08e0a5HYOEW8x8FWp95+U5pToBnL4tHTy43o/z/4ZybJxs59FOpDSyqMk8UALqvVCewFAfAIzSL172zqH6oVbk0FIvX3W7mGYbMPDDNheZICM82Kv5o/DHYgr7cFwILX4Nq+2woBLdBeTg2FnxvywwqphQnwLOXBWO4VOU/CBTDPTOPzkmMoep6klhfW+21rtTJXCkOABomoQEI3mPBN9OJeh8AjK1ZBjAT8nxBzQtrh2F/8FOY8aeBShMNvz7z6+6isRm4lEKMxxKOJijFCQALpiUtyKR5jKDM0g86zdZKF+Cg5dA/1upyoCuuCOIQ62SucAfAIzQEiWAV1xX1KtnpQUetPKDczB868cyavD1K44+ZVuawP+WUSo4GnunCHZ/oML14128nf8mPRp+J7z+T1sun6EcjQEwv3PHx5EuhoynHPj3EzziPpcpAgAioyQFAFVGPYTjmjvV/RXLRnyvHgmMyB3kx47xSQeBF4Q6AR2icr/cENrk+2ajk6BRZOaZxs9K2lS6r8WefcC2fxv3Vtx/s0MAzsZ+Y2oprFe1mXxB79sUCZpyhPEDhHvBMVLz1QAdaHQBGp6J1AoCTeRnPOXnxQpo7fdEFevDAZKk0GSjcAYDCNTeGYb2iO6Ju5XsEB1ibB2jZOIA3qxyYlaW3DVDywTN/zvJpaJi0lu9Fvlh6OgJ0xtg3vA6pDUr3EBxoq4y6qoDh/IYrQ7zEZnxC+yHepmfjjHg4Jgil7QMo3AHAwJLQZJCdhUhDRxmaVElWKPcpyKLbQeLAvYDwPmeavK6EeVVqQoD9cyF8WaB2f1zLBEpORBw/1qIWMkRjrHXkS1dOaZ7JXDkcdTqFOwBoiMkBcHhHKFJH3RCA8TXJQVHtQgTCPfunQeGsUrJZVK/kXy77jM4a+43XnhowUz/gMXTWslGuJ6pV6TgZ1qYlxzcKFvUm10AYlzbbv18BfeWerAysdMzNQh0Az2C67Pu855hmNeexR4nByL5nenr60wh1/yHOf4T0x0h/wrR79+7P4Pwo0mN4/jjOTyB9FukEE56fxHkW6RTSHH6fxvkM0pOgP4vf/DO48/j9OaQ/xe/P4/xnSE8hPd1Lz+D8BaQ/R54v4vwXSH+J9Cx65AeQxh5OZTm2PBKgfveHXxYwi6ERYX6l+iHAccNoAM8e7qF4C3s7xMIH6v+/Ia9/isRxxvE2j7HEsfck7p3BuOO4nMM1xynTLJ5z7HIcczw/gd8c34+BhuP9Ufzm2KceoD74I5RB/fBpPH8E6VNMoPkDnH8f6ffw/Hdx/iTSf0A6jt/HoFv+Fwv/daQpi+fLm+yfsAbe5k3TWfgv1AHweI1ZGtH0vIv27wFsARYfhPD8Ms6/hPSLSB9ggmF9CGf+dYoH8Px+XN+HtBdpDxOe78Z5GmkX0k783oHzvUjbQT+F3/RIuTv1F3Dv5/H7fTjzM1/8KstduGb6OZx/Fum9yPMenH8G6U6kdyNtRKrqcH1di3hzTbkqZlVvPgjQ+NMJoDPnKLHqv7D5LvD680gcZxxv78dY4tjbjnv3YtxxXO7ENccp0zSec+xyHHM834ffHN8PgIbj/UH85tinHqA++CWUQf3wQTz/FaSHmUDzIZx/FenDeP5vcf4I0q8hfRS/9+H8diTT4TF0pgIbQrS0yRUBKCUSVKgD4Om3DJ/39FQj2pYhgJmN6y+XLRuNT7QMpeY2l/3JzcU8O1qZ6zc1PF8DdPAYLanH0FXfiHZzEI8D4FgfaVuXtWl5xPPKlEUOMLNxzf5fe8dBS7GiqRECNP6MBDhYLm0XtoOn2pAS79owWyKjHlygt+ofAfA04rJjfaTEPouiKkVHwrqhN/s3DyS+6sfwf1htyhUzAlS+7F8rj1iLZ9jdSi66miJQNtuUw7LrHFVfPBEAx/rIqAbpWb0RwHpjbu9MI5rANVQzINw9biYWYe0QWLjl7o7DwctzGcDzFkDtcO1nODYD189bDNdLkdm5aByA7hsvx9A/4qFiBBA1ym33K5wJ8yxu4RbuZ6y48aq+UARonBbgBBgr0TKAEaj6kpXPeWx2LhoHoPyuqE+N3UU5R4G95Qj/c8N0YC3KVhsEPB9jyXEZwCyHtQFSjDYCgUIdAMzAzKGvyTe+1QhA1Yg4EOit/5uYWcDsn7NDE7GIao0A+5n9bWkE9JdrCclSZtNputDjTHVoZxU8WrGB7JltZ5Z2FOoAeBjrLmiWOwyvyYX2OEeYdeUyW8JSgrmcRX25bJjoNfI+Xwsss2Ft+x5KV8u5A8WrC+do4IMKbxbqAHjef1WYe7gUdH0D6jJKWkK6hHQRaRHpDaQFpO/Cs/wuzt9Beh3pX5FeQ3oV6RWkC0j/0kvfxvll0NP7eAnXLyL9MwzrP+H8j730TZz/AekFpOeR/h7PuYmP3ivTOdz7OtLXkMgLTuUc4MO8l+Cy3kApp1NUy1gEILccbxxXHGMca/+MTBx7L/XGImdKHJvpOOWY5djlGOZY5pjm2P4O6DnWOe45/pmoCzgOqRuoI6grrqD8Fh7lN9mjxycnJ6k/C2dysuAazI1o0yzXi3nX4TmeOnWqi7QB6RqkjUibkDYjfQ/Sm+bm5t6E8xak70W6Fuk6pOuRbkB6M9L39dKNON8E+ptxvgXpLUhvnZ2d/X6cf6CXfhDnW5FuQ/ohpLfh+Vact/XSD+P8dqR3oM10FHAafUABmmfuo0qC8jNvAFyKbGfuqHbpWf0Q8Mg0aB/GeOG44hjjWHsrfnPs3dIbizfhN8dmOk45Zjl2OYY5ljmmOba3gJ5jneOe45+JuoA6gbqBOoK6YhLlTSBN3n333d3rr79+w+Li4jUvv/zyRib83oSJ3Gag/r8imQ4t5w6GKUZcCnUATp48aXYAur5Z7mCEW34XyuNorBDAIJtlIdY2iC8h0GAErszMzFx+5JFHlubn5y89++yzF5nwe/HEiRNvYEZ62tr2OiznWttSFR2WQj9XRt2FOgBsABT/PM9KYQhsfumpsIz1zZVLBMDTfG4M89CLVggUiECsjrKZr2te/WqB8NS36I2v/p2ZeURdzHibCx1AWLgDMKDOgbe6CHNvlOCsw8YjNGV5jeuYNNzADKIUge5jpXRHoq9uXQqBFQQQmTPvR/FETVcqiOyiG300txrArnnF5RiVoi8LdwAg/OZQxpuef7Sanom4Vo/QlOU1Fg3Xnj17ZLyLBlnll4YAHPPayzMdE2s0t6vJ3DrZYiSXuKx7MOQG8R7yKNfbhTsAmPmZlwC68hxXdW6A0JixXlVRfD8yK0yrsmLTFXkiCu1JZYeoMQmyynMps77QnkY7zJO5zS89HVpN4fmqqMATyQXOR8visXAHAA0xC3VXniPgunrEKjRXObRfYRZkVh5lvzftibLYWyzKWBGwjitMXsy6a0xbTQ4AnNa86hvDTthj4GGeYGhMrcbYg4dHV66uxf+rcAeAoQwItllw5Dle7cRYheYqh/Yrz/IEFE3mL7DBizY7HGXPCO2oibIIBKzjCnqL37TIxIJnOcsjs5mYCs9sdlDincyFNz40J7FgsuaHrjTbS2uZw+gKdwBYsUewrYOT5TY5UWCYrG0sU2isPPXTwRE0CzU8YNOMqb/8LNddLT1lga92ebuINFqYhgNgNngjyitVlkfwkfkRxvB5YGIex5rMLUPunWAQ5+Wcxf9figOAGZ15TYODk2vfxT+HxU8AABAASURBVDc97hq2vPCYh8HzZQqNh7E1tCaFCocxs9L0ypz2AazpqYb+3OLYaJyHUw1n1vxBKsis2bhW2D2/Y62bkznqcyt9GXRV1HHdc0fM1UL3mW2ludARhKU4ADROHs9xy/Mu4zeiefV8RGO0+UX7+//A9nAdWgo+TQ4A2rLVEzoF/brDK3PXOgbpusp0ozYIbHnB/qYRZajkhlnHR8lsXa3O4xTR+G/xTWSuVtSQqy0Oh5NNhgNQqi4vxQFgw5DMnmMiOE7gUH5jDu/rkJ5BWSVImOGUquA89VHmFHmqUjqKr9ujjKGIc5mJwek172epwOFwg04e0SZzpIJRAE5o3BUVkqH8Qrc4HE7iSnzL5LI0B8BrpNq6fsTBwmQVAiqqsoXGyttaOoRDzRvzlpaWzKHTtfWkv4GN2elkni0tjzwRgyYnjzL2yOoozCCDVjku1TkexfO4Z9Dl5lkqHWvvhGZc/XV5ft3X7KH/Xptc+qqXJ9OpNAeARgqDwexVU3ACAMwERgyZvYMFmJYuNKE4QXGYlRzalXkfAPhkfUy4HH9Q5ra0OPI0HqH6Utzwld90MQ9ZNc9yhxXsWcbC7M8sp8PqK/G+azMgJzRMJfI3sKoyb1KXeJZxydvc3JzZPpI+j1SaA0BmodTNniPpGT4ikLxuQ2II2jNQoDTm4VhlVlQlYmtWcmibOXQ6jH9gQ0XlkjnOEuUEDEO0nvc5kfCMK+ipo5SdrK1FFOGAtQzUaY6OWcssiq6HjWvi4Z3YFMV7WeUG7Cly6am82lGqA0DBgaCbvRwa/xu+8lt5tTXqcthWz27RXmNcg7CXp7IT+x+Vm5wAyMmUZwaFcgceITM5Lj/RGRtYoG7WCgH2o3cmBtkrXRlPTk7WyZHv9MaVaSxTYOiAVetYk4tyEtvJ9npqO3Xq1IyHPi/aybwKspbjHVyJYfSvpVjZiYYuwGM8X0XIKCtg6H+zostjHwCdDtRpdjrZPsrclucf63gHMfMqxYMA+y/AqT5MmcmpFYes5aBO87iwllkkHfgNiq7RISuSr6rLpswxiujko3SHM+WvdAeAgoPKXQ2mB7+lwWuzXJ+k4AAX84EZw0EzcUSECIuaQ51oY+ZlADYdDoBL3piHTgCdsibLHdvZ1MR+47jyti+vmZgzemWeSXvbUyS9NwpAXrZU5Fiz7qITdUaVMhfSvtIdADIJxc4ZmUvo6VU10Xv0rk8SP6yP123tn2wnCUrD3O9wFvLYCNih0wnM3A4TBzTl7sYv/UaH10kD9F/UCNCRZn+x37yMhsjIsDogu+b1f5RRq6U88JscHFfQ5a5xxXFEx5rnpJAG/cd2eZsD/LZ78+RJX4kDQMHBYHPPyprmPVJZMbrh7VAYUdeg85ZfJD36nqFOkxOAmXsu+wDYHmA2D5lj3fzpSlRW3IuyBVEoXrsyi7gUBNgv7B/OwHgdUGmuS2qQNXP0CkYgSC4D2ph7Fo5ntNXFP/uH4yl3ZoYWWPwDyh31uacm4kb8PHnypq3EAWAjuH5NAHhtTRQcelk8W/PESsdoBoUmgL881ygDqs+eBYbdrDDy2AdAjjHQzsMJCHacKHOcVXJ2ycT+Y7lK1SGQ9AmcMvYHE/snlBsY4WDZGFQnZNz6/j8jVObxMKiuqu+FjCv2Hfusat7zqJ963Gv8WS9wc0+CmS/PVJkDwEYAAA4602yQ9EwUHHqP9Pb5u46JYf+AzUkdOkx5rVFWiRvCo6XvA2B76QQAQ8ocfwYnyiD7jwqMg5/9SYcgTVQGSl9NNlHmiQPx5bhnIu7En0af/RHcmcgI478dspGbEW7D+j9gWzmAHTcEuscV+419yPNKYQVcFFUk+aYcUsYD6uBELjeZC6g/yVKpA0DBweALEhwOfCqCpBU1+S8VmJCwP5rIEGWl60XgIZeD0R9rQTDYB5wKdWTRvbpz8bzZnxz87E86BGmiUlD6zU7eGBDfZNy/8GjiXIzsaOND6J9cjT+rhYPb+PV/trM/hY4rjqE6Tug47um88NyPg+UaOm0+lolcpQ4AwYITQC8oSCFTGVDJsJzYUyroIQLDtkFRuR0l5os4mSM/eS0DpFj0Bl+QzKVl6Fx/BKCID/b0T96NMb/+h3FN/Zd3/ZWUh7YcBabu9lA38tsbxUzo8oeCkagMdieqiVzlDgC7J1RwmJcGNdQTY/4yEgWbPFLQA+uLIlwUyPvAbFgjNSsKyId5Q9XAygbclBMwAJR23Trcm7Xm2mpntOp8QQ5Irm2yFoa2pPtszM59WjZ1Iyd01JW8Tu/HdCZf5I+RqFC+oMuimshF4QCkghPiPbIj2DH0yLgWy2veiyGlzgkFO5QfGMqjPWMVWkSU+dAu86tPkItclwFSQHq4KhKQAtKe8+Fe3+fe4jaG//tBpC6HkQteqqSuzHNJoJ+3LNc0/JzEkb/QcogL8DFPfELr8eSLwgEgwwAm2HtkfiauxVJ4qnYE6ITQIWHiNXkLSTB887Ozs1F5jCHtGJQH/c2BYJ4p5L0MkPJEQ4CBuQ2/zbyAVkc9ETjPvmafF8F+b/bfyvB/P54Y28Q52AmgzqShTQzu84/2F136NQ3/Lc/8eof8ZKkccpf7XpMs/KR5o3EAyFCf4AQrYwpP6giw8/ibZZeRWBedDwouZ/9Z6qTxR4gyeBBlqbvEvOYoAHj6GFIhR5/cKRpQCMJRFMpZ/zb2dVHcOGf/jQr/r8UUOPO7GwfX3vf8pj6l4aU+pS735F2mDf+f6/xJvS9kd0Cgy4vaaxLewF7OqBwA8gTBSb3HYCeA5fQLT9KR8CSzGmWWuzYl9aBseomsh87HWhrvbwjMfAuMfwdeMb8IaYIHSwa5fRRoUIWUO84MwdM24j+IRvdqiUCiT9i3RXMPufHsVfE4v0WzXkj50GHcFJjJCSBjiY6FIaZ+5QSLxpn380xJHdDjLJ+6nOv8vJe1DuiT7cQhazlF5Y/OAWBDqYwJHAYUw8S8lSmxI+lJMiSfChGdAd73Fsw8zEuPlILC8li2t5xh9DB0RyEwTZ/5J81nP+PC7Og5Z1go2n+QJ+IP2TuIlIv8+blQjhwQoFyls/7C+5Hhf4xd88d/oN/Mzm8OWFRWBMbSUbSVS2yZeaDu5QSLxpl6l4l6mPp4UOGj7rEsJuZP7QL1OMsflc/zDO2OMuzf34YoHQAySEXc+1BQrmFZdjo7Oe301IhTmHiPHiCFgonXvMdnpGPiNe9RWMhnzulwU9f8h+EEI+vp349R0Q4rK8/7VFxI2zGIqbw8PObJhsryIZAYffYZZvzbkEr7E6tO55Thf/Lqa11NqanL2SdgP7c2U48zUQ9TH6e6OdXP1N1M1ONMvCYdn/fTMn+IA4G2jDqSqBPaXbjjOYoJy7NoHQAyDwDP9wZxoQqYgsREQaBzQKFg4jXv8Rn5KTAlAtNra4HVxFc0jCxnQlbFsNWpaDM3OJVBKjAkRmYOw2mJfmBnbnh9CqDsHGbfYPwkRp99Vib7PafUvPkPvDU+/I82rjrYJ+wj3CxMl1NPM1Fnb37xqQ71N/U4E695n8/BQ2EHdQPlEO2thY6I2gFIewmAzkB4OBPjYE9vN+JcN4EpAnSETj2DpbQoQH9bMaA5a0u+4AWnJYkMQCa3o/8Ogv+jShOFY4D+oPFIErGHXphASo2+R4ZQVH6H1ykFz6VFJvJrZfaSOIZ6bWcfZi8wvhL4bQlOEuLjbAhHtXAAyDuFh4Me100SntoJDPDP/YDx9MyIthb1SqCnYZRHJG7WPMplG6XZg0VjQOORJmLv6a+iaL2zfziMlTkqRWHgLZd9CF1e6GZbL08Z6Wsbwa2NA8AOwqBPlgQoPPhd22gAlQAGAWcvrZwJoO9WHehXKkVzf8JhONRTvKvK0Q8hUDYC3tl/t9tt0gQmGG6M+fS7L3XHo7SNpsFgj8hYKwcgbQeFB04AQy0UHrPhSPNXeF5E3b/OEDLOOlYjULsowGr29aulCHjW/pNlpJbitK7Z1OOYCM1gQvQBpG+tIwi+UXxGTEL4hdbaT+Jq6QCwe1PhqZkjsBGC82PkX2k1AlQEuGN25oCjR/GiaB1CIF8EpqenXRE86KrM78Tn24I4SsNY3ol0UxzcjOWCG063cblrLGUNCGrrAKTY9jsC8CKjf3cbPO7fvXv3npR/nVch4IoC7Nq1y/NnV1dVpB9CIAcEPE6oZv8DAMcYfgi39yHldhRQECcmieHnRIU2p4A6Kimy9g5Aiho7BaH15CM68LT5xkCsywM3wwnYNzU1tSHlXedlBDi4cMXBhtP4A7MG7QUYD5MoCkDAO/vHmKc+KoCT+hb58MMPfw/GMI3/DTG2An2WfM4Yeil908Ssm2JszyCeGuMA9DeOzgA6bQZpG50BdGSRkYHzEOJHUcc/9/Mw5vojmzZtouCPIWvlY1cUwLsJq5WIqtG5ItDbgOqa/XNykisTDSjswoUL+9GMX0GyHjTAfwJdy03DQ/Jkus3yOdPfDtsxgT6L+jO+mVray9xIB6DXtuREZwAduRIZgEOw8u52T5DY6Qmt4T8ae364hh+DOciyIChcD/oAnIDfMuRfIUHd+zCLuG3lhi4SBIAn11U9faIoQIKc/isLgaWlpSOeujDWNftfA9iOHTt+GDrTNQkCjv8X9MMvQZ8n3+HAb07sku9w4NrjFFC/rOjynh7nhr50pu8pa03L6vWz8Q5Af3fQGUBaeXebggSBYqez8ycgCEnEoP+M58mz3pnG/iCuZ5D3KMvqK/8YBHq27/e4SzoirgEwrsAGPfdEAToY/J7ZWINgUlPKRgCz/ymMc/M3/8HfeeoKnHX0IdDtdjn7v6fv1rjLxzdu3HgsJYLuTXAlttyQh3Mya4duXqvHE2eBOp3Peok6f0WXo6zWGPwUv/TcKgcgbfSwMwSBG3VWpWG0a+9DsF6EITqO+5eRTAcUyb7du3e/10TcIiJg6YoCAPcDu7QhsEUSUl1TseR01lm7y5l1ll1LcoxVGn7P5GcBuvL4E0888S+WBq/R4/Ppb0vettHIAcixx2G4PglBXfFSDUX/KBSKZyAYimwMiUtxAnctBTSm6+NsCJbs6Jh6mEs+XObJ0AZajFXO/n/Y0dbjmOV/ajy9KLwIyAHwIjaGHrNRRgH+YQzZymMMBkYBPrByQxcJAnCmqGy5Vpf8NvxX+h8KMvAkkoYggND/VjTFtdSEsLPe+wdo/QecqF+BjvRMes5BR1Kn9hej65wQkAOQE5BpMTBcT+LaEwW4ngPiwQcffBPy6ehDAAqUX3v0OAGKAvThp8v8EPBu/EPNhxF6bu3aMtq/7piamuLrfvth0L9n3cMhN6AbOfv//JDHq27rhx8BOQB+zMbmQFifHutfjiW8SvDBhYUFhsWu3tFVBwqUxt+1FADsz/Zma0JQCOSCAGatMzBaU47CFPofANbGjRs5839wwKNht57GJIC6dNhz3c+IgByAjAAOyn769Om/xX3+LTQuAAAQAElEQVRPFKADBbNv7969b0c+HX0IIKKipYA+PHRZLgJwJmn4XaF/cOhyWkHf+GPnzp0/Rh3naSjoOft/zpZHVCEIyAEIQc2QZ3FxkZ7rYwbSlOTuS5cuKQqQorH67FWohzhrW12EfgkBHwIw/txX4tr1j5D1fM9p9VXWcGrM5PcBm/c4mvmHoKcOdWQRqRcBOQBexIz08/PzF0B6DEL8XZxNBzzefVA67zMRt4iop1C5HOBptfYDeNAS7ToEAtb9O91uVxv/1iAJZ/xe3GL4HyfT8Qp04XGM+9dN1J1OR3RhCMgBCMPNlAsC/GkKsol4mWgb1rAVBVjGYtX/mEF4NwR2gKX2A6xCUT+sCMBoedf9WTQ3/nkdVeZrdIIOpPG/1dpITJoY+v+MlV504QjIAQjHzpQTwsy9AF83ES8T7du1a9fDy5f6P0UgZEMg8jKEewBnHULAjACicCHr/tr4NwBhOFK/Bh3omdR8Fc6+M/Q/oGLdMiEgB8AEUzjR3NzcU8jtEejN8Jj333///W9GPh19CCCiMgNlMt93y3Kp/QAWlESTIADjT6fRte7PjDBaCv0TiL60Y8eOt0CXcfZvtjOgPzY7O/vFvmJ0WSAC5o4pkIfGF421REYB6AhY2/rAxYsXOXCs9K2h662xesOscgJaIyHhDQ01/nBKDyJC5XVMwxmtSU6MVW78221lFzjyz+96JktJ0fovHAE5AOHYmXOeOXOGSwB0Asx5QLh/7969P46zjj4EoGjP92ZbbicASytaDujDUperEYCjzr/yxy/+rX4w4hdmrPxLo0dHkLTyEcbaT6HhrkkMxvUxRPmeRz4dJSEgB6AkoF977TV6tp92VHcnFJJrADnKrjUpnADOtryvBvJbC0c4y6t148V8IQjAYJ2FMefav6f88whXK/Q/ADEYc+qunxjwaNit333jjTeoI4c9H3Jft7MgIAcgC3qOvM888wxfB2QUgK8HWnPuh2LaYSVuEx1mCiH7AfhmwDk5AW2SlPFtxRgLMf4dGDkZ/wHwTk9P70U4nw7AgKcDb70E5+v4/Pz8pYFPdbMwBOQAFAbt+oJhtPhhII+X+wMYGJ6BtL7SBt/BGiMVsHcpgE6AXg9ssFx4mrZ79+4jGGPemX8HBk7r/gOAnpqa2gA8qbNuHvB44C3Q87W/kwMfjrmpx9kQkAOQDT93bigORgH4qWBrXkYBPmolbhMdlgJC9wMkO70VCWiTtKxvK40/xuOB9U9G34HB0rr/EIg2bty4H5j+2yGPB93+Mm5SJ+Kko2wE5ACUjPjc3Bz/SJAnCgB9M7Hvvvvue2vJrNaiOjgBQfsB0Dg5AQChrUeo8Ydxm9e6/2CpQej/NuDD2f9ggsF3Ofv/68GPxt3V86wIyAHIimBAfnjJ9HifdGSdvnTpkndgOYqvNymWVvgHgw4HtEJOQABodc/CNX8YKvfMH+0+DweeX6TEpY4BCOzHbMW8nII+mEUZ1IU46agCATkAFaD++OOP/wOE3xMFIJf7du7c+dO8UFqPQEYnQBsD10PayDs0/h4j1QcCv/S3re+3LvsQQETlvfjpmaQsoR/4vf8XkS/oUKbsCMgByI5hUAn33HMPPd9POjK/a3Jy0jPAHEU3gzSDE8CNgedgHEJmhc0Ar+Gt4H4P9G/Qbn9Ak+41waWOIQjwc7+3D3m27nbP+Hv037oydCM7AnIAsmMYVMLMzMxl/GMUwOwBY9Dw7wTcF1RhSzLRCUB0ZT6kucD3CIyEnIAQ8CLOQ+O/tLQUtNufzYLjrR3/BGJIwuz/AxhznsnJC6Cn7htSouW2aPJAQA5AHigGlnH69GnXGhgGzU0wUvsefvjhjYFVtiJbb53W/XogwQG+R6anp2doNPhbqd4IoB+n4GifQ7+a16b7Wwzjv7230bT/tq57CGCsbAG+nP1f17tlOTH079kDZSlTNAEIyAEIAC3PLFAw9IQ9u2A//Morr3i87TzZrU1ZwJWbtYKcADTyEGeMMB6uz8Iin46IEIBxYpjN/Yd90iZQhmT8UzQGn+FY7UP65cFP19/FJOYv4DBQ561/6Lgj0nwQkAOQD47BpUDBfBmDgvsBPGXsu/fee9/mydA2WuDKddtgJwBKjTNHfjAoaObYNrxjay+Wcmj4D4XyJeM/HjmE/t8B3cXZ/3jiHgXG1XFEPj3fQenl1KkIBOQAFIGqs8wNGzbQI/Z8Cev9yKMowBic6QScOnWKO7dDIwHJa4KcSSoaMAbsSB6jn6bQX+dgaIIdNxl/W2diJk8ddJeNusO/xfHo4uIidV0n2z/lzgsBOQB5IZmhnBMnTrwET5pRAPO3sKHg+Frgz2WotjVZ6QQAr6MZGqwlgQzglZUVhj8N+Ycu3SRRIziOQZtIy2pnDPVg9v/zGFOe2f93oOP4vX/P30KJoamN5kEOQCTdOzc393scIFZ2QPtOzFTogVuztJqOX2+Dwgp2ApBXSwIRS1DWkD+aRuOv3f4AwnJA/1D3eBwtbvzz/DXUoWzoQX4IyAHID8vMJXW7XUYBnncUtA+znl900LealE4AAAj5YiCyJUeyJIDZzxGEmj3KL8ms//JHAIb/AMbAFTpoGUpPPvKjmb8NQcj/h0Bpnv2jb74Gh0Ghf4AW2yEHIKIe6SkgOgFWrq4F4f6pqanvxVmHAQEsB4R+NnildCizA1j/TD4cJEdgBZZSL4D7FIw/P+xzJEvF6Mt5yAT3iWQppjV5Yfy/D5hx9r/J2mjQH0eE8ykr/Wg6Pc0TATkAeaKZQ1mTk5P0lL/oKOqXNm7cyAHpyNJuUij81AkI3RyYAIiZzRG9LphAUep/MEJH4IDR+Adv9CPDMEzzMEx8U4Q/lQwIAHfqmgcMpAkJxsifYYxQpyW/9V9cCMgBiKs/OogCfBWKyRMFYAv4J4N/hBdKNgToBMDZOgjqrE4A9waco1HCrFTLAgC0qAMz/iTcj/FxIIc6Dsv4+1CEjN8Bg04HwJwRfXX8zJkzXzdnGEOox/kiIAcgXzxzKW3D8muBn3EU9nMwZq6B6Si7saRwtpLwL5Ra8ObAFBwoOi0LpGDkfKbhR+KMP1O4v8cWN/ttpwPY+62TEYHe7P9OIznJHnnttdc0+ycSkSY5ABF2zIkTJ16FQWcU4HUrexic+6enp3/BSi+6qwj0bQ7MFA1giXAmGJ7W/gCCkTHB6B9ASgw/cM0U7icrcNISh4+OH38r2RHA7H8n+sA8yQDWfN3v+DPPPPNdey3jKPU8bwTkAOSNaE7lQUn9EQaR2XvG4HwbknmA5sRmY4rhjBBOV+YlgRQQ9EXiCEBx6o2BFBTjGUY/V8Pfq1Yh/x4QISfoIuqWH7Dmhfwfw5h6zEovumoQkANQDe6mWrvLrwU+ZyIGEQYpowC/iksdAQjA6UpmiFBemZcE0urRJ8nSgByBFJHhZxp+RLH4Fb/gv9w3oHSF/AeA4rmFfqHxZ7Jm+1vIvXnyYi1UdPkjIAcgf0xzKxEG6RkYI89A2gj6fTt27LgxNyZaWBCXBKDAcosGEEKUlzgCUKbJ3xfQhkGi0ukAhyk6R6nhx93cNlJiLBzFLHQbxpG+7AdgQ4777rvvrcCRxn/Ckf/Y3NzcXzroRVoRAnIAKgLeWi0GH/cCfN5KD0Nz/4YNGzhgrVlENwABKLCjwJ5/TCbXNUyUybcGzl6+fDl9cyDz2vYA9qO/BUeIO/rPAYezkFnu6s/N8KPxl4Dzv6Mjh2sdGRC4ePEiP/izy1HEk5cuXfJMWoxFi6wIBOQAFIFqjmVi9nIeysw1oKBQ+YXAf5MjG60ramZmZhI4TqPh34NUyIHyGRU4C2N4FjPgGcyG8zSChfCcpVC0M1nbR1v55T7u6C+qvRuA7buy8Kq8nc7evXt/GrrHNZkA7seffPLJfxB+9UBADkAN+mlycvIYBtanHKy+2ztwHWW3gvTpp5+m4vu1MhqLvmIU4BBmw3x7IHUGpuruEIB/fq3vQC/Enxj9XlvLgJVO8IfLqKipdSwtLXH275lIfPKee+5hxDJ3SFRgMQjIASgG11xLPXHixBtQnIwCfNtaMBwGKkBP6M5adOPp7r333h9EI6n8cCr3QD+nzkCyTIBZc60cAvCbGvwkvI/2HIEsMsRfLpCdzkZUqP0wACHkQD/eh3x0gnEyHf+Mfj6GyNllE7WIokBADkAU3TCeiVOnTj0OZUonYDzxMsX3g54D2LN5Zzlny//v7aG4NwYY0IcDHQIo6AOcYSMVFUYf2XzUm8zuEc6f6c3wz+E6meXDENDgV8LXGqbv63a7lThya/io1c+HH36Ym4mJm2czMb/3f6qYhqrUohCQA1AUsgWUC8VKB+Ar1qJBvw/KmU6ANUvr6WBYfwYgUPnhZDoA85VvmShzIEodApz5nYEkSkDDC77Poq+P4Jp7Cbh8wLQVhjpJnqrTPDgnRh5lJ7P6XvmJocdyRfKBHpR7CADEYvDBzuoDODES5gljry6ghb9eeeUV6gzP68T/EcsF1E0tRKveTZYDUKP+QxTgWSg010CDct4HBW7+gEeN4CiEVeBL5fdjjsI587l5cnJyO7Ced+TLlRR8T6F+GmLuJaBjwMQwfJLgGFzpSzTia9PKcxj3JA/OiZFH2UkYv1d+lTP7w9dffz3/Ct0fWMEDzz8NWo9DB/L2Hvfdd9/b0HoXXsCY3/v/MvIVcqjQ4hCQA1ActoWUDKVMB+C0o/CdME40ao4s7SSFgXwQLfcov29C+SWbnk6ePJn8ZTlgXakjAP4tB4342mTJVwkNMD4I53cCaeaRRx5ZhEPCMWDeDwOmGQXQfhgAMe64dOkSdYXnk+InsGTG/hhXtJ5HiIAcgAg7ZRRLc3Nz3+wpwFFkq55BgVIBev6Ix6r8bfhx11138XU/Kr8bHO3lB0/O9NPXzBHoZz226/OQ28TwQ+ZXfZlxdnb2CTCbOF44W463goiOnfbDAIhhx86dO38Oz4gTTqbjIvro+IkTJ14yUQcRKVORCMgBKBLdgsqGAjzudALuAD2NW0Ec1b/Ya6+9lvg87GjJs91ud+jMp98RQJmHkTL/oSGU0fgDcnqUURTM9retNfz9jQcdsTfvh0Hej+7evZt9jEsdgxAA7sTnRwY9G3LvOPro94Y80+0aICAHoAadNIBFON5XqAD/acCzgbeQgVGABwY+bPnNHTt2/DAg8Mx8QN45hpnPf+bFqERHAMZsBmkbFOx2GC7OZuUM9IFGTCCfyWwfzu1BYtb3eOAl6L6EPJ4oAMvZr/0whGF9Ai6/hLueMfD3kGfqIGQr7lDJxSIgB6BYfAsrHQZlDorTowC/Dwpz3969e7mJqjC+6lgwZvKc+dzj4P3xa665xq38aNhguGjoEmcA/cFNg610Bth2pIMwItuICWaSdIwcXdDpIC/7wLwfBvXtQB72tauephM/9NBD10KXEJfvdbT1OOXZQS/SCBGQAxBhp1hZgkI7jvRXVnoM8g9dXoJu/QAAEABJREFUvnzZ4+Vbi64tHWY+NPweTBaA+bEnnnjiX7I0msoTRm87HLnWOAOQv6PALjH6bDvSUeAQ7ADBcfhHlOlxgjuU/+npae2H6RPehYUFGn9GAPrujrz8czhSdL5GEmV/qBKKRkAOQNEIF1g+jMffYCC6FCAU8L49e/ZwB3iBnNWnaBgQKj8uAViZ5rrnI1ZiCx2MYPIGAfozcQaQ5zD6qfbRAWDLP6iUrulPwGAfzGr0gc2qA2XSCTYbI/D040js81XltPUHlr/eiba78IBscvb/VeTTUXME5ADUvAMvLf/lrc86mvHzS8vf+HZkaSYpZoK/AmXmmf2f8zpcXuToDMARmIGhXIkOoIxaOATAch7GNZnlow2JwYeBNq3po43BR69P/tFaAPjcj77XfhgA1lv+4u5//DIdf1LWa38mbkSUCQE5AJngqz7zmTNnXgYXjAIs4mw6oKQZBbjLRNxQoqmpqRuIAxJf/zO1EoaDM58/MxHnRLTWIaBhhcHbzoQq+h2D4FA6ynEdwCyZ2QOPg0zgZRv5otNCg4+zez3fxcAaYtR5GjyZowDI/mbQ74MMbMZ1aw8sf72fODgAeB19zdf+XnXkEWnECMgBiLhzrKxB+fLLaB4F+I62RwE2bty4D8brISvGoHsaMx86Wris9qBTwIR+X4kU4JrLB0z8EFFimMElXz88DCWfGux5tDlJeEaHge/aJ79TGp7xLMkH2qQcnqH4EyOPelZm9jT0TOCFZSFbpQf75ktWDtCmD23atMkV+raWXRc69DXHAL/8Z2X5GPr6j6zE2eiUuwwE5ACUgXI5dRzDgP6GtSrQMgrwy1b6JtHt3Lnzx9h+T5tgMDjz+ZonT9m0UM7nkbif4CgNM4w1Xz+cwQz5IBPubU8TntGg81375B6fpwnPknygTcrhGeXGYOSHQgrev4I+9TjBHfQpX43dNrTQBj/AEsiH0TyPA/QcnEAXvihfR+QIyAGIvIOs7EFp/ykUmmeAbuGO6L17915nraMpdFBknPm8x9GeP9y8eTNnmI4sIq0AgWMYA/xKoLXqn4fT4DGC1nKjpsPSx01gkO3mn0zG5fgDuHL2/8x4ynwoVEo5CMgBKAfnUmrhIEVFX0CyHh+4tPztbyt97ekw87kXjaDyw8l0vAIjcfyxxx77jolaRJUhgCjAt9lXYOANJNOBMcMowN0m4oYQcfkLTbkPyXp8vtsd/tVLayGiiw8BOQDx9UkwRwjV/ldk9kQBOlCY+/fs2XM78rXiQHtp/G+1NhYG4jgMy2es9KKrFgFEwv4AfewZA+9AH1MmqmW8pNqx/PUu4ONqL+g5+y9xCagkMFRNRw5Aw4RgcXGRoeo/djTrvVgKcCkER9lRkWL2/2tQ9p7X/v4Llgs8xiSq9raVGfQx+8xssGDg9u3evfuDbcAL8szlr5+2thVYfgp5iKc1i+hqhIAcgBp1loXV+fn5f8Wg5R8Les1C36PhhsCp3nUjTzD+t1DRo3FmmSeOmP1/EXl01AgBRAH+FH3tMVpb0Nf7MDu+vkbNdLO6a9euaWTyOPvfhvHn37wwL6mg/MyHCigPAbMyLI8l1ZQVASwF/DEUmkcB/lALogD7gcluB7ZnnUbEUbRIi0YA8kz592xa+wDWuT3Gsegm5F0+xHmC7XurtWCMFy5/eTZVWosWXSQIyAGIpCPyZoMKECP+7xzl8i+l/VsHfW1IEd79STBL5YeT7QB2xzGTfN5GLarYEIAT7N4PA4PHDYE/Gltb8uAHETAufX3UUdZXOPt30OdEqmLKREAOQJlol1jX6dOnvwCFxlmQtdYNMHr8a4E3WzPUiI7K7ycc/P7uddddx70UjiwijQ2BxcVFLoV5PlzzXowZl6MYW5sH8YPQ/w9wbA96Nuwe6Dn7N39YaVg5uh83AnIA4u6fTNxdWv47AZ9zFLIXeRqlADH73+NU6i9R+T3yyCNLDtxEGiEC6X4YsGbeD4O+54bA7cjTmAMzeW782+FoEP/EciUOsINHkeaAgByAHECMtYgnn3ySXwb0RAH4WiA3BHpmy7E2vzM1NbUBzHH2b45qwFk4Njs7exL5dDQAASzj/AmMuseY3Ybls8Y4wQj934n2cAyYexN4cfZv/uNK5oJFGB0CcgCi65J8Gbr++uvpAPy+o9SfgsJohALkt95h0D37Gr6M2RLxcsAl0tgRgAxwKcC8HwYGkFGAj8TeLgt/bAvSj1toSUOsZmdnPQ4Ts+WUVEzZCMgBKBvxkutDKHuRgxrV8q8G4mQ6+EqUZ8f82EL37NmzFWkKM5IZJoTmj2Bt8myacO8cU/qbz5nw+wDzIW0dW0kfAcriTM478+Hs/6/7itFlAxBAFODPe2PA2poNoHfvh6GsMlFumXCdyDdkcZVs8z6fM+HZDGR7ConjwyXj4xqDsh9AOzxj4B/hLMgBHgdsg57LAWhQZw5rytzc3GfxzOPVvwUz4X0zMzPB8kGFBgU0Q2WH8xVEFc4hnQUfh5igmA5A2UylCfeo/Lamv/mcCb+PMB/SihJFeYnSRJ6hB/LtQzJ/2wB1zSJJ+Q1FtN4PID+Uf89+mD2XLl0aajwh31OQ7QM9I34FMnkF8naECXJ0gAnXiXwDuVWyzft8zoRnh8DbWSSOj3Mo8yzKSuQbdTAfSPwHlr82ox5G8t5szQ16vvkyZ6XPm07llY9AsIIvn1XVmAUBKBgat79xlPFrTz311FAFuLYcKisqrp4CSww+aA5BqZiNMOjHHYmDAKJEaaK+c1TAqPMA7q0cuMfd3GbekXEJDs8xzBRfxLWOBiJw+vTpv0ez6ATgZDsgu6v2w1DOIFtHKHcYT/xOxJGeEbcVaKBCnRwviXyjjsQhYL0cX4bsKyS95a8PrdwYf/EltIU6YjylKBqDgByAxnTl6IZAAf4VKNwK8IEHHvhB5Bt6UDFBIc5QWYEob4OPIkceW6G0GElIlDKVM/iZAi80/ua/bwCly01PvzuyJj2sPQIvv/wyDZxnP8xPLi0t/c+UK8j4OchJavCDZ+ZeEFEnowiMgiXOAOV7XBngdRvGBWf/40hXnqMezv49E4SVvPlcqJQqEJADUAXqFdW5YcMGKkBPiO/excVFGtN1HFMRQdEkYUs8ZFgfp0qPxBmA8efM7L9zcPICaF2OEeh11BCBZ5999iIM43Gkb1nZh2H8EOgZYSrN6A/jDbzQuU32FYyKCoCOxv/nh5Wz9j7a9wSWO6gb1j7S74YjIAeg4R3c37zPfvaz/4TBTmN3pf/+mOt9UDY/k9LA6HMTHw0/1/MrV4opX2vO16z5PfQnlCU3/rEtQ2n0oDkIcD8M+rzWxg78J1EBRCe4kZabZFfGIcbn3RjjdACsnbaI8o6fOXPGs0nYWraZToTVICAHoBrcK6sVCvA/oHKPAvwxKIj9mPFvhSNAQ8nZ/orCQVm1PaAo/wLJg0Vt2yrGryKAKBH7/D9dvVPPK4zLFUeA45OtgDzT+L+D15aEMrj35Q8stKJpHgJyAJrXp2NbBCXBKMA3xxJeJfhvoTS5BsoNSlfv1vyqt/Hvv9S8GWLfiUBvPwydAGfOOMlhxLk0wLdknsT1wCW7QZxDD3wDKQIcBnGne2UgIAegDJQjqwNRgDPOgb85siZkZgeK8lGEUKX8MiNZzwIWFxfZ95+vJ/dDueYnjN809OmaBz0H+E/X3NbPFiEgB6BFnd3f1A0bNjAK8Gz/vRZd8zXFNzATfKVFbVZT+xDYvHkz/+qfeaNcX9amXH4BUT06QZW3RwxUh4AcgOqwr7TmEydO/GdnFKBSfnOuHAGAiYenp6dnci5XxdUAAfY7jB/3s9SA28JYPIZI4H8trHQVXAsE5ADUopuKYXLjxo2MAjxeTOnrS1287vbOwi33dF6/9aEkvfqOg50Ld3yi8/K7//1K4m/eZyItE/OtLy2XO4f4jncuJamQWiDQt5E1d34pp5RXJso4ZZhpkHzzORPzMC1tuil3fkYU+Me9JZARJGU9Uj1VIiAHoEr0K677iSee+BfMhBgGXCiCFSo1KjkqwRfv+u3E2L/69oOd12+DA4C0cPM9nVT5kZaJv3mfibRMdAqoRFkOlWuevCIKcgAzwnN5lqmy4kSAxh+hn1w3slIeKZeUT8op5ZWJMk4ZZqJcpymVbz5nYh6mND/LI22BCL6Gso/Nz8//K846Wo6AHICWCwDWwT8FCE4j5XJQedHop0qNSo5KMGvhLJflULlSWVLpUllmLbeXfyudgPRVqt49nRqCAPs1T+NPuaP80amlPFIuKZ9Z4aJzwPIo3xw/HEd5lLuGL37x70/W3KvspyquFgE5ANXiX3ntVI5g4gGkTAcVFRUWlReNPpVZpgJHZGZdVLqpsmS9I8itj7YiGtL2dWErVrWiW1pa4h/pyTzzp+HvN/pFgsDxw3HE8URngzKfU32eL4HmVKWKiRUBOQCx9kwJfNH4w+hlDn/TAFNRUWGVwPaqKqgYWW9S/60PrXoW8COJBATkU5ZIEchj5k/DT/miw1lFM+nssn6OM8p7Rh7+T477jGXklF3FVI2AHICqe6DC+jkzylI9FRJnRDTAWcrJIy8VI/mgoqTCzlDmVm0MzIBeRFmzGn/OwhmKp+GnfFXdtH75zsBPEumSE1B1b8ZRvxyAOPqhdC6yKEcqHypGKqTSGR9TIXmjwiZ/Y0iHPu5tDNQrgkMRiv/B9PT0TJYNf5QfJjoBsbV2Wb4/3qGsB/IWhRMQyLuy5YiAHIAcwaxLUVmUIxUiZ9k8x9xe8kc+MyjJQ5glZV43jhmjpvLW6zf+zQp3EykvsRr+/saQT8p3hmgXnQD+lcP+YnXdMgTkALSsw7MoRyobKse6QEYleeGOjyffHgjh+fLly0eAVyP+8FFI++uYh/2FfgvazJk6jTzXpe2MBnApLpDfCp3cQI6VLVcE5ADkCmf8hYUqR+5EprKJv4WrOaQT8PqtD3YClSRnSUHGZDUX+lUWAqH7Wmj0L9zxibLYzLUeLsVRvinr3oKpD+g0efOJvhkIyAFoRj+aWhG6uY2KkTuRTZVESETFmCrJAPb4Z5AVKg0AruwsMGT887juZZu6RbYG4Ur5fu0dB4P2BcAJKF2+B7VB98pHQA5A+ZhXUiOVIze3eSun8efsyJsvRnoqSc6UvLxNTEwwVKqlAC9wJdJDvoOiNTT+dYxsDYKW43Th5rtDnADKt9txGsSD7tULATkA9eqvYG4RGnVviqKxpFIJrjTCjAu33B2yJ2ArnCc3fhE2v7EshcxiKdtNMf5px9LJpROQ/raegV+J+12sXImuaATkABSNcATl79q16wBmsS4Pn8qRyiQC9nNlIVkOuPXB5G8QeAqGA3AAs0wXhp7yRRuOAPqF0RmXg0Y5YHQrvNZ4c3Lc0nl3csgIipYCnKDVnVwOQN170MA/jL9LOdL4N1U5Ei4q/5D10pAoCutTKhYBzF7dhov9XyxX1ZZOJ04Qiv0AABAASURBVIBy7uSCSwF0ppzZfOSijgcBOQDx9EUhnHD2j4Jdg7rpyhF4JOukF+74OC/NCY7UFGabigKYESueEP1B2XY5uBfu+IQ7AlR8S/Kv4QLk2+sEhDhT+XOuEstCQA5AWUhXVA+Mlks58nU/r9KoqGmZq2U7F265x1WOogAuuAon9hosRreYCmcsggoS+b75bi8nH+s5Vd58RnqRxYSAHICYeiNnXryz/2WF4TOIObNcenH8RoCnUjhUigJ4ACuQtmeoXA5uG6Jb/ZAHLAVshZOrKFc/iA2+lgPQ4M5F0z6GZD7aphwJDJ0eRj14bU2YdUpBWsEqkA794Fr758Y49neBLEVZdMC4dukNT6NFGxcCcgDi6o9cueFs1Vogw6JMVvom0V287vZkT4CjTVKQDrAKJDX3Aw0/Z8MF8hJt0RzXnqUu6o1edCXaNomxfBCQA5APjtGV0gv/m/n6zm0PmWmbRrhsHB70NGsrFKSiAB7EcqYF/tz8x2QqOeTdeFPBNSFi+ynnVna90RVbuaKKDQE5ALH1SE78wIs3r41ydsBZQk5V17IYRgE8GFy5csU8+6wlIJEz7TFQNHxtnf2n3UjZvnj97elPy1nybUGp5jRyAGregSPYN8+OFq9754hi2vGIRoJOgLW1cAAUAbCCVQyd2UBx9lsMC/Uq1YkDo1xmHWJBQjTxISAHIL4+ycyRN/y/cHO7dv4PA3jhFtcrU1SQcgKGgVngfW/43znzLZDzaotedO510dsA1fZXGbXLASgD5ZLrmJycfL+1ygXne/DWcutIxygAlaSVd4Sh5QBYwcqRzmOYvH2aI5tRFuVxhjx6ZHxjRREjAnIAYuyVjDx5wtOLCv+vQtu5DGB2tFZVoh+ZEJiYmDCHphf8H8LJxFvsmT14QI+4XrOMve3ibz0CcgDWY9KEO2YF6TF4TQBmXBs8MySPIRpXr57bEYBhMjteS5tvtBfcAspF5zJAb7klMzIqIE4E5ADE2S/BXHnW/xn+Z4g0uLIGZlza5DIYZkergVBV1iQ4XuallwXtb1nXTx4n17Pcsq4i3YgeATkA0XdRcQwuKvy/Dlw6RIuYJa17MOQGZkhmYzSkCN12IAC8zU6Xpx8dLNSedLH0cV97yBrbADkADetabdzJ3qGeZRHMkMwGKTtnKgEImPH29CPKbc1xedNN5rZKn5ihqiWhHIBadls+TEtBDsbRs26McLTZIA2uTXc9COjNCw9ag2mXHMtcwDuzfA/mQndjQEAOQAy9kCMPV65cUUg6I56XHTMkOABvy1idsheEgMeRK4iFKIvlMpeVMci3HAArWDWkkwNQw07Li2WPIsirTpUjBMpCwOPIlcVTLPWUN/ZjabH4GISAHIBBqOheqxFYUog02v7HjNQccfH0Y7QNrp4xRQCq74PCOJADUBi0lRVsGrCLjp3ulbWkooo1O6oI+JyrVT8OB7Qs52g4B3oSAwJyAGLohQp4uLzZvhO4AvYqr1LGo/IuGMiANqUNhMV9U+PfDVkjM8gBaGS3jm/U5MK3xhOJQghEhsDk5OT5yFgSO0MR0IPYEZiMnUHx50bApCC7b7zsLrhNGbpv2BwkGKQ7p6env6ZUDgaQwQ8imQ5rH5oKaxiRJgAN69DA5sgBCARO2ZqLgMdwXLly5Vog8cNKnVIw6OENuHVkQaBrnwCYJhSDeNG9+BGQAxB/H7k4hII0DdiucYbrqrwhxF27cmxIi5vZjGte/WozG5ZDq7oa/zmgWP8i5ADUvw+DWyAlMBi6SSnHwcDobiMQKGfcNwKqxjdCDkDDunhiYuJz1iZ1NdO1QiW6GiLQXdA+l6zdNjExMZ+1DOWPFwE5APH2TeGcaaY7GGIZjsG41O1ud1EOwKA+8zj+WFL8xqAyxt3T83ogIAegHv1k5nJyctLsscvQDYZVa8eDcanbXe10H9xj17xi3xsBB8C0p2hwTbobOwKTsTMo/twImAfs5peedhfehgwbtXmsEd3MfuxqP8e6vvQ4uN1u16xPrlakq7ogIAegLj1l5PPkyZMcsExjc1A5UkmOJWwRweaXnmpRa5vfVI+xaz4anY5zzJ+HPjFHFNuAX9PaKAegaT2K9njCdp5wIIpu/LHx1b9rfBvb1MDNLyrK1d/fHjw8eqS/Dl3XBwE5APXpKzOnCNsdthJrhrQaqc0vuiIA/wm5n1XqlIrBxMSE2UtjhIuzXvSRDiDgGe/A2fxGEYrWUUME5ADUsNMMLJuWAFgOFSQTr9uevOH/U6dO/QTSzyidKhWD2dnZ2yGrZhn3GD2U29iDjpBnrHs2FF8FTVd1QkAOQJ16y8gr1u3OI3xnXrvTMsAysJ7wP2ZHR5dz6f8qEAD+Zvn29GsVbSmrTk/4Hzxp/R8gNP2QA9DQHoaCNIfv9DbA8uYoT/gf+P5OQ0WnFs3y4M9+5ey3Fg0rkEnnOA+S7wLZV9EFICAHoABQYygS4TvzDJXK0Rv+jqGNefJw7XNHXMUhymKegboKFrEJgR7+5mWALS88Ziq3qURbnn80eQPA2j6P/rCWKbr4EJADEF+f5MIRFKRrGWDL84/lUm8dC+G6KJOVd8w+zc6VtUzRBSFgnqW2PQqw5YVHPQAz/G92rq4WrKu6ISAHoG495uPXrCAZBbjua75ZsI+VeKnfhNmRhzs4AOa3LDzlitaHQG+WajZU3iiPj5t4qbc45RstMesN0OqoMQJyAGrceeNY73a7DFObFSQ3A9IRGFduk55z5s9kbROM/1FGV6z0oisOAfYD+oMybqqE/dy2pS6OZ+/s/9SpUzMmQNcQ6Wf9EJADUL8+M3NMBXnlyhXzbHVZWbRrKSBg9q/ZkVkCiyeEA+Dqjy1Y6qKcF89ZHDU4d/6TaReezKBUXwTkANS370yce6MAXCvd4g8ZmniJjYhLHpwVWvmCMzUPp8o847SWK7pwBNgfcALMezJo/AOMYjiDFeakbJc3+6+woao6GAE5AMHQ1SMjFCQ3A5qjAGwVXxei8uB1UxPbR2fH0z44Uy4cPWWLNhwBOACuWSuNYtOdXDo6N3zlN72gunD0Fi76+BCQAxBfn+TOEQzXPGev1oKpPLhhimdrnjrR0fh7lSPxgzOl2X+EHd3rF5dzRieAchBhczKzxHF7w1d+y1vO+Sxr/97KRB8HAnIA4uiHQrmAgjwPJ8ClIAOVSKHtyKPw5Xa5Z0Yd4Hcwj/pVRjEI9IyXecMruaATSHngdZNSiPMOB9elH5qEV5vbIgegJb0PJ2AeoVLzWilhoXLkOjmvm5KoHAPachj4uYxLQB3Kkh0BdwibM2XKefaq4yiB49Ub2YDxn5+bm3PphtWt1a+6IiAHoK49F8A3HAB6+S5DxnXyJqyXUslzxheiHHuzywDElaVMBHr95JJvygWdQp7L5LWIumj8OV69ZSu65UWsOfRyAJrTl2Nbwlns5OSkO5TN9dIbv/Qbrk+JjmWmRAIqd/LvNf5kEcqRThMvlWqAAOR7O9h0OQGUi7pHAujchhh/zP4PUi8As+BDGeuLgByA+vZdEOcY7NzI5jZqNKJ1VJJU7jT+IWDRmPTwCsmuPBUggP6i8XcvBVC+KSd1+1AQ+abxp5x74UZE8KhC/17UmkUvB6BZ/WlqDQzbUXj+dARM9CnRsrL5rU5dlgTIJ5Vjyr/nTOUIY+LGyFOHaItBoLcU4HZyyc11zx1J5Juyzt8xJxp9Oi08B/B5fnZ21h0NXF+P7tQZATkAde69QN5h2PhWAAc/Z0uuUqgYuSRA4+rKWCIxeaThJ58h1dI5knIMQS6ePHQC6MSFcES5iX1fAMcfZTykfchzHpMAjn9c6mgzAnIAWtr7dAKgBNzrpSlcVJKcfVARpfeqPtPwkx/yFTgr6tD4IyxKXKpujurPiEDPiXM7uayW8kM54sY6yhXvxZC4REG+OP5C+cG457p/LtGtUB6ULw4E5ADE0Q+VcNHnBATVT8VIRZQopIo/H5wafvIT1JjlTOdl/JeBaMr/iARsQ1uCnADk63BjHeWbhpfyzntVJNZPPrhEkYUPGP/tGPcy/lV0YoR1ygGIsFPKZAnKgOFAKsngaqmQaHipoDhzCi7ImTGpF47HLc/8eof1O7OvJScOB9fe1O/6I0Cjh1YEOwHI26Hh5SZYGmLKHe+VkVgfQ/2sP2u9xAHjPUfjXwYCqqNIBOQAFIluTcqGUqDxoxOQSUlSQVFZ0RFg6JTKK28IWAdn+2k9ORh+ssjPoG4DDlKORKNhCf1K+eayTmb5piGmfFP+KN+Ux7zhYrkcP6yH9eXhVMv4591LzShPDkAz+jFzK/JSkmSESpGhUyovKrFUWYYoMpbFtNboh5RF3tYmrvn3wsRrH+l3gxCgfLOfQzcGroWC8tcv35RPyinTWtpxv5knNfqMZrFcjh/eH5fX8DxxftD+3J1bQ90iiRwBOQCRd1CZ7EFJJMqCRjGveqnEUmVJR4AKjk4BE39zpsNEBcrEa97n835azvRZTl58sRwaA635E4n2JG4MZL/n2WLKJeWTMsuUyi3lmIkynco2r3kvpUtpU6OfJ18cx5j5a8NfnqA2rCw5AA3r0KzNoRPQ7Xa5Fh70HrWlfjoFTFScnOkwUYEy8Zr3+dxSVigNlONBGoPQ/MpXXwTY7+x/tCDTkgDyDz0ov5RjJsp0Ktu85j0+H5o5hwd0cujcYjwXNPPPgUkVUTkCcgAq74L4GIDS4Jr4DGYPmddN42tdJ4lyQDnqj59E2DllscT+b6h8d9guOjllYal66ouAHID69l3hnMMRmKcyQUWFRQNQdpnHYa4Ds11lVqq64kQAckBHl5tfKd+FRQPKaj1n/RivpWxmLatNqqdYBOQAFItv7UvvKUlGA6goa6kkEe6lI7MNxn+m9h2iBuSOAOUChnM75ST3wsspMIlqcdbP8VpOlaqlCQjIAWhCL5bQBioWKklUVafZ0nko9YMI9/LjJ7V0XoC3jhIQoHxTTijjkJnarJuD14NwYEqe9ZfQIaqiFATkAJQCczMqoZKEsmE0gLMlbhSM1agmhh+8boNS11p/M8SvlFZAxuchM9tjdwR6hn8CvEq+S5GMZlYiB6CZ/Vpoq6Ak+cncoz0leZBrj4VWaCuczshh8MRQvwy/DTNRDUEAMr7iCPTkm/I1hLqc2+QjBsNfTmtVSxkIyAEoA+WG1gElmTgCXHuk4aVyQio7fErFnGzuw4x/hjw1FG41qwIEIE/zlG/I1jbIOCNflG/KXCnccDwhHUTd28iHZvylwN6aSuQAtKari20oFGXiDEBBMXy6jUqrN2OhwsyzcipfzvS3QylPIHHGr819eSKssgYiABlPogKUORhkviJ7GHJO+aZMDswTcrM3bhKjz/GEdBR151pHCF/LefR/kxCQA9Ck3oykLVRWVFq9GUviEEBhrjgFPQU336c8qdxWEu8zkQ5NopKlMlxl8FEHFS8e6xAC5SNA+YMjMAM5p1xC3ILAAAADrklEQVQm0QHI+IpTQPllAmcrcp1e8z7TGvlmGXRmJ3rjRkYfgOkoFgE5AMXiq9KBAJTleSYoy6NUbky43s4EJUqltyrxPhPp8JxKlspQBh9Y6ogTAcj3PFNPXhPZpgzj9yrZ5m/eZ1oj38kYibN1V7nSVbMQkAPQrP5Ua4SAEBACQkAImBCQA2CCSURCQAgIgbYjoPY3DQE5AE3rUbVHCAgBISAEhIABATkABpBEIgSEgBBoOwJqf/MQkAPQvD5Vi4SAEBACQkAIjEVADsBYiEQgBISAEGg7Amp/ExGQA9DEXlWbhIAQEAJCQAiMQUAOwBiA9FgICAEh0HYE1P5mIiAHoJn9qlYJASEgBISAEBiJgByAkfDooRAQAkKg7Qio/U1FQA5AU3tW7RICQkAICAEhMAIBOQAjwNEjISAEhEDbEVD7m4uAHIDm9q1aJgSEgBAQAkJgKAJyAIZCowdCQAgIgbYjoPY3GQE5AE3uXbVNCAgBISAEhMAQBOQADAFGt4WAEBACbUdA7W82AnIAmt2/ap0QEAJCQAgIgYEIyAEYCItuCgEhIATajoDa33QE5AA0vYfVPiEgBISAEBACAxCQAzAAFN0SAkJACLQdAbW/+QjIAWh+H6uFQkAICAEhIATWISAHYB0kuiEEhIAQaDsCan8bEJAD0IZeVhuFgBAQAkJACKxBQA7AGkD0UwgIASHQdgTU/nYgIAegHf2sVgoBISAEhIAQWIWAHIBVcOiHEBACQqDtCKj9bUFADkBbelrtFAJCQAgIASHQh4AcgD4wdCkEhIAQaDsCan97EJAD0J6+VkuFgBAQAkJACKwgIAdgBQpdCAEhIATajoDa3yYE5AC0qbfVViEgBISAEBACPQTkAPSA0EkICAEh0HYE1P52ISAHoF39rdYKASEgBISAEEgQkAOQwKD/hIAQEAJtR0DtbxsCcgDa1uNqrxAQAkJACAgBICAHACDoEAJCQAi0HQG1v30IyAFoX5+rxUJACAgBISAEOnIAJARCQAgIgdYjIADaiIAcgDb2utosBISAEBACrUdADkDrRUAACAEh0HYE1P52IiAHoJ39rlYLASEgBIRAyxGQA9ByAVDzhYAQaDsCan9bEZAD0NaeV7uFgBAQAkKg1QjIAWh196vxQkAItB0Btb+9CMgBaG/fq+VCQAgIASHQYgTkALS489V0ISAE2o6A2t9mBOQAtLn31XYhIASEgBBoLQJyAFrb9Wq4EBACbUdA7W83Av8/AAAA//+S7moBAAAABklEQVQDALA6AaPUKIahAAAAAElFTkSuQmCC;" vertex="1" parent="1">
          <mxGeometry x="380" y="410" width="159" height="159" as="geometry" />
        </mxCell>
        <mxCell id="qTVKj7qANSQW3XM0a56Q-2" value="" style="image;aspect=fixed;html=1;points=[];align=center;fontSize=12;image=img/lib/azure2/networking/Bastions.svg;" vertex="1" parent="1">
          <mxGeometry x="684.12" y="350" width="68.24" height="80" as="geometry" />
        </mxCell>
        <mxCell id="qTVKj7qANSQW3XM0a56Q-3" value="Secure Edge Interconnect&lt;br&gt;FLEXNET" style="text;html=1;align=center;verticalAlign=middle;whiteSpace=wrap;rounded=0;" vertex="1" parent="1">
          <mxGeometry x="375.81" y="569" width="170" height="40" as="geometry" />
        </mxCell>
        <mxCell id="qTVKj7qANSQW3XM0a56Q-4" value="&lt;font style=&quot;font-size: 10px;&quot;&gt;Azure Bastion&lt;/font&gt;" style="text;html=1;align=center;verticalAlign=middle;whiteSpace=wrap;rounded=0;" vertex="1" parent="1">
          <mxGeometry x="692.36" y="431" width="60" height="30" as="geometry" />
        </mxCell>
        <mxCell id="qTVKj7qANSQW3XM0a56Q-5" value="" style="endArrow=classic;startArrow=classic;html=1;rounded=0;exitX=1;exitY=0.5;exitDx=0;exitDy=0;edgeStyle=orthogonalEdgeStyle;curved=1;strokeColor=light-dark(#000000,#006633);" edge="1" parent="1" source="qTVKj7qANSQW3XM0a56Q-1" target="qTVKj7qANSQW3XM0a56Q-22">
          <mxGeometry width="50" height="50" relative="1" as="geometry">
            <mxPoint x="380" y="440" as="sourcePoint" />
            <mxPoint x="430" y="390" as="targetPoint" />
          </mxGeometry>
        </mxCell>
        <mxCell id="qTVKj7qANSQW3XM0a56Q-6" value="" style="shape=image;verticalLabelPosition=bottom;labelBackgroundColor=default;verticalAlign=top;aspect=fixed;imageAspect=0;image=data:image/png,iVBORw0KGgoAAAANSUhEUgAAAgAAAAIACAYAAAD0eNT6AAAQAElEQVR4AezdC3ycRb3/8d2kTREp7fkX/YuUS7mKCkeoyGlRTM29UBEkKuIFFFFQwAPiOYJiqYIo6hG84A3xgkchokewTTYXG7xQFQpHEEUUC0IVFdBSBJtmd8932gZTmjR7mXmemWc+vGZIdvM8M/N7zzbze57dJ09Djv8QQAABBBBAIDoBEoDoppyAEUAAAQQQyOVIAHgVIIAAAgggEKEACUCEk07ICCCAAAJxC5joSQCMAhUBBBBAAIHIBEgAIptwwkUAAQQQiF1gc/wkAJsd+D8CCCCAAAJRCZAARDXdBIsAAgggELvAWPwkAGMSfEUAAQQQQCAiARKAiCabUBFAAAEEYhf4Z/wkAP+04DsEEEAAAQSiESABiGaqCRQBBBBAIHaB8fGTAIzX4HsEEEAAAQQiESABiGSiCRMBBBBAIHaBreMnAdjag0cIIIAAAghEIUACEMU0EyQCCCCAQOwCT42fBOCpIjxGAAEEEEAgAgESgAgmmRARQAABBGIX2DZ+EoBtTXgGAQQQQACBzAuQAGR+igkQAQQQQCB2gYniJwGYSIXnEEAAAQQQyLgACUDGJ5jwEEAAAQRiF5g4fhKAiV14FgEEEEAAgUwLkABkenoJDgEEEEAgdoHJ4icBmEyG5xFAAAEEEMiwAAlAhieX0BBAAAEEYheYPH4SgMlt+AkCCCCAAAKZFSAByOzUEhgCCCCAQOwC24ufBGB7OvwMAQQQQACBjAqQAGR0YgkLAQQQQCB2ge3HTwKwfR9+igACCCCAQCYFSAAyOa0EhQACCCAQu8BU8ZMATCXEzxFAAAEE6hJob29/jeq1qvep/k11qK2t7a11NcrOdQuQANRNSAMIIIAAAhMJaKE/XfU+/ewbqt2qe6jOUn1ZPp//rH728+bm5tl6TLEuMHWDJABTG7EFAggggECFAl1dXTtrYX+X6p+0y6dVzaKvLxOWg6dPn/6BCX/Ck84FSACcE9MBAgggkH0BLfzP6Ojo+HCxWLxf0V6q+kzVKYvOBJzCWYApmareoJIdSAAqUWIbBBBAAIEJBRYvXrynjvY/Zxb+crn8bm20s2o1ZYempqaXVLMD29oRIAGw40grCCCAQFQCra2tB7W1tV0zOjp6rwI/VXWGaq1l91p3ZL+JBCp7jgSgMie2QgABBBCQgE7zL9IRf6GhoeF2nb5/lZ6yURptNEIb1QmQAFTnxdYIIIBAjAJ5He0fq4X/pzrN/30BtKtSPBWodFgkAJVKsR0CCCAQmcD8+fOn64j/ZC38v9TR/rcV/otUKRkRIAHIyEQSBgIIIGBLYMmSJTtq0f/3OXPm/E5H/F9Su89RpQQhUPkgSQAqt2JLBBBAINMCRx111L/oVP+FGzZsMJfyfVzBzlWlZFSABCCjE0tYCCCAQKUCWvSfrSP+yzZu3PiATvVfoP3+nyolQIFqhkwCUI0W2yKAAAIZEujs7DxAC/9XtOibP9d7pkLbUZUSiQAJQCQTTZgIIIDAmIAW/cN11P+9Uql0l557g+o0Vdvlr5U2qASkXOm2bLc9gep+RgJQnRdbI4AAAsEKaOHvUr1RAfxEi+5R+mq9qN3bVF+teoz1xmnQqgAJgFVOGkMAAQT8Euju7m7s6Oh4rRb+n2tkK1SPVHVRVpbL5Y5CoXCo6rX6Pl9pJ9VsW2mbMW5XbcwkANWKsT0CCCAQgEBXV9cMLfqnr1u37jdaYL+uIR+saruYU/ff0VsJh/b3979sYGCg33YHtOdOgATAnS0tI4AAAokLaOHfWe/vn1csFn+vzs3teOfpq+2yUUnFVTrNv78W/uMGBwdvs90B7VUrUP32JADVm7EHAggg4J2AFv5n6Ij/I1r4zaV8F2mAz1S1Xf6uBv9Li/9eAwMDb9Kp/t/qMSVQARKAQCeOYSOAAAJGoKWlZW8t/J/Xwm/+eM+5em6mqtWiBf8hHe2/X6f6d9MR/9la/P9gtQMaq1uglgZIAGpRYx8EEEAgZYHW1taDtPBf29jY+BsN5S2qM1RtF/M2wlmPPfbYHjraX6ZT/etsd0B76QmQAKRnT88IIIBA1QJa9F+m2m9ux6udu1Vd/B6/U0f8bxwZGdlHR/yXr1q16gn1Q/FWoLaBuXjh1DYS9kIAAQQQmEwg39nZeVxbW9vPtMGQapuqi7JKp/uP0aL/fB3xf3V4eHjURSe06YcACYAf88AoEEAAgW0EzO14dbT/JtVf6f3363RUftg2G9l5olfNvFQL/0K9v3+9vqcEJFDrUEkAapVjPwQQQMCRwJIlS3bU0f7Zc+bMWaMurlQ9QNV2KSqh+EZjY+PztPAvVv2B7Q5oz28BEgC/54fRIYBARALmdrwdHR3LNmzYYC7l+5hC303VdvmHGrxi2rRp++g0/2t7e3t/qceUYAVqHzgJQO127IkAAghYEejq6pqr0/yXb9y48QG9B/8+NfovqrbL39T2xcVica6O9k9fsWKFuQOg7T5oLyABEoCAJouhIoBAtgQ6OzsP0Kn+r2pRNqf6z1B0Lm7H+0e1++6RkZHd9f7++UNDQw/rMSUjAvWEQQJQjx77IoAAAjUIaNF/oY74ry+VSr/S+/CvVxPTVG2X36jtU2fNmrWXjvgvHR4efsx2B7QXtgAJQNjzx+gRQCAgAS38i7Xw/0AL880a9hLViu+Yp20rLbfqVP+rtOgfoPf4v9DT0zNS6Y5sF5pAfeMlAajPj70RQACB7Qp0d3c3dnR0vFYL/+1a+Jdr45eouijfV6PtWvjn61R/j743d+rTFwoCEwuQAEzswrMIIIBAXQJdXV0zdMT/9nG34z2orgYn3rmko/1v662EQ7Xwt6gOTLwZz2ZRoN6YSADqFWR/BBBAYJyAFv6ddbR/frFY/L2O+D+lH81TtV3Maf0vqf0DdLT/ysHBwdtsd0B72RcgAcj+HBMhAggkILB48eJnaeG/VAv/A+rug6oubsf7mBb9j0+bNm1PHe2/We/xczteQcdZ6o+aBKB+Q1pAAIGIBVpaWvbWe/xfGB0dNdfVv0sUM1WtFp3mf0j1Ap3qn6tF/5wVK1Y8aLUDGotSgAQgymknaAQQqFdgy+14exobG3+jxfkUtdekarWoXZNUnGlux6tT/R/QqX5ux2tVONzGbIycBMCGIm0ggEA0Am1tbS061T/Q0NBwu4I+XtXF79Ff6FT/G2bPnr2PTvV/ctWqVU+oHwoCVgVcvHCtDpDGEEAAAQ8E8jrN/0ot/DdrYR7UeFpVXZSb1OjLtegfpFP9X+vp6SnqMQWBpwjYeUgCYMeRVhBAIIMC8+fPn65F/81a/O/S6fhvKcQXqlovanu5EosjtfAfoXqD9Q5oEIEJBEgAJkDhKQQQiFvA3I5Xi/45W27H+0Ut0Ps7EBlVm1/XWwnP0fv7R+uI/4d6TEFgSgFbG5AA2JKkHQQQCF6gpaVljo74P7BhwwZzV76PKqDdVK0WJRNP6Gj/042NjfN0tP+6vr6+X1vtgMYQqFCABKBCKDZDAIHsCnR1dc1ta2v7pI7G71eU71V1cjtetXtRqVTaXUf77+jt7TV/L0BPURCoRsDetiQA9ixpCQEEAhPo7Ow8QEf8XysWi2t0VP4O1ac5COEPavPckZGR3XXE/96hoaGH9ZiCQOoCJACpTwEDQACBpAV0tG9ux3uDjsZ/pb5fp+rkdrw63f+Whx9+2NyO96PcjlfKlLoFbDZAAmBTk7YQQMBrgY6OjqNUf6gj/Zs10KNV86q2y2o12K2jffN3+r+4evXqjXpMQcA7ARIA76aEASGAgE0BczteneY/UfV2HZF/T/XFNtsfa0tJxZBqmxb+F6qaSwa5He8YDl8tCdhthgTArietIYCAJwJdXV0zdKr/7evWrTM3zLlawzpI1XYpqcHr9FbCwYVCoVXV/JEgPUVBwH8BEgD/54gRIoBAFQKtra2zdLT/3mKxeL+OyM3tePeqYvdKNzW3471Sfeyno/3jBwcH76h0R7ZDoFYB2/uRANgWpT0EEEhFYPHixc/SEf9Ht1zK9wEN4hmqtstjegvhY9OmTdtTC/8pQ0NDv7PdAe0hkJQACUBS0vSDAAJOBFpaWvbWEf8Xze14dcR/jjqxfjtetfkX1ffpVP/cgYGBd3E7XmlQEhaw3x0JgH1TWkQAgQQEdKr/IC3832psbPyNunuzapOq7XKvkooz1Ie5hv+Dg4OD62x3QHsIpCVAApCWPP0igEBNAh0dHa2qgzrVb27H+0o14uL3mHlP/3WzZs3at1AofKq3t3eD+qEgkJqAi45d/MNxMU7aRACBuAXyOto/XvUWvQc/oNrigkNH+z9SPVrv7x+s+vWenp6ii35oEwEfBEgAfJgFxoAAAhMKmNvxtrW1naIj/ru0QY/qfFXbxVyvb/4+wGE62n+J6nLbHdAeAvUJuNmbBMCNK60igEAdAs3NzTvpaP9dc+bMMe/Bf0FH/PvX0dxku47qB1frrYQDdbS/ZGBg4BY9piAQjQAJQDRTTaAI+C/Qsvl2vB9samoyd+W7VCN+tqrVomTiCdVPNW6+He/ruR2vVV4acyDgqkkSAFeytIsAAhULdHV1zdVp/k/paNws/Odrx9mqtstf1eAHS6XS7jraP6O3t/cBPaYgEK0ACUC0U0/gCKQvsOV2vFcXi8U1Oip/ez6fd3E73rVq910zZsyYq1P97xvidrzpTzwjqELA3aYkAO5saRkBBCYRaG1tfXFbW9v3dDRuPtx3ojabpmq1aNG/Ww2e8vDDD88rFAofu+GGGx7XYwoCCGwRIAHYAsEXBBBwL9De3n606o90qt/ckvcoRz3eosX/eC36z9ER/5WruR2vI2aaTULAZR8kAC51aRsBBHLd3d2NOtp/nRZ+88d1bhDJEaouyqDeRmjVom8u57tOHZjL+/SFggACEwmQAEykwnMIIFC3wIIFC57W0dHxjr/97W/36Ij8a2rw+aq2i7kd77f0VoL5wz1tAwMDQ7Y7oD0E0hNw2zMJgFtfWkcgOgG9vz9LR/vvnTlz5n06Iv+kFv89HSCMqN0vFovF/XTE3z04OGjOLjjohiYRyK4ACUB255bIEEhUYNzteM3lda5ux7teQX3U3I5X7/G/ZYjb8YqDklUB13GRALgWpn0EMi7Q0tKyt474rxwdHb1PR+XnKNydVG2XP+tswvmNjY3mUr5zV6xY8aDtDmgPgdgESABim3HiRcCSgE71H9LW1nadFmVzO943qVkXt+Ndo3bfrj720Pv7F/f29j6qxxQEIhBwHyIJgHtjekAgUwI62m9THWpoaLhVR/zHKTgXv0duV9snzpo1y7zH/xkt/BvUDwUBBCwKuPiHa3F4NIUAAp4I5HW0362F39wwp19jepmqi/JDneo/qr+//1/1Hv9/czteF8S0GYJAEmMkAUhCmT4QCFSgu7u7qaOj4y1a+H+tI/JrFcZ8VdvFXK9/gxb+w7TwH6lT/Stsd0B7CCCwrQAJwLYmup8LFAAAEABJREFUPINA9AJbbsd77rp16+7Vwvx5geynaruMqu2v6a0Eczvel2vhN2cXbPdBewgEKJDMkEkAknGmFwSCEGhpaZmjU/0XNTU1mbvyfUSD3lXVdjF/k/+TjY2N87Tov6Gvr+/XtjugPQQQmFqABGBqI7ZAIPMC5na8Os3/aR2N369T/ecpYCe341XbH5g+fbq5lO/MXm7HK2YKAtsKJPUMCUBS0vSDgIcCWvifq4X/68Vi8V4N73Qt0E/TV9tlrU71nzNjxoy5hULhguXLl//Vdge0hwAC1QuQAFRvxh4IBC/Q0dHxEi38y7Xw36lgXqvaqGq7mFP7bza349Wp/o9zO17bvLSXTYHkoiIBSM6anhBIXUCL/hLVH+uI/AcazGJVF+Vneivhlf39/ebDfV9avXr1Rhed0CYCCNQnQAJQnx97I+C9QHNz8zQd8b9eC/8vNNjrVRequigDarRFC//hfX1939b35vI+faEggEClAkluRwKQpDZ9IZCgwIIFC56mRf+Mpqame3TE/1V1/TxV26Wktq8tlUoHa+FvV/2+7Q5oDwEE3AiQALhxpVUEUhNobW2d1dbW9r6ddtrp9xrE5ap7qNou5k/zfr5YLO6n9/dfze14bfPSXpwCyUZNApCsN70h4Exg8eLFz9Kp/o/p/fcH8vn8MtVdHHT2qNr9SGNj4+462n/r0NDQ7xz0QZMIIJCAAAlAAsh0gYBLAS36++pU/6bb8ep0/Nnqy8nteNXueWbhLxQK/9Hb2/sXPaYggIBFgaSbIgFIWpz+ELAkoFP9h2jh/7YWfXO53ZvUbJOq7bJGDZ6uhX8PHfF/SAv/o3pMQQCBDAiQAGRgEgkhLgG9v691v/37OtV/qyI/VtXFv+OfK7F47cKFC/fVwn+FFn7znr+6oiCAgBuB5Ft18Ysj+SjoEYHsC+R1qv9VWvlX6z34gsJdpOqibPr7AFr0XzAwMPCNpUuXllx0QpsIIJC+AAlA+nPACBCYVMDcjleL/qmqd+uI/BpteKiq7VJWUnG92je3432pFv9e2x3QHgIIbF8gjZ+SAKShTp8ITCHQ3Ny8k071v3vdunXmb/R/Tpvvq2q7mL/Q91W9lXBgoVA4Rkf8t9jugPYQQMBfARIAf+eGkUUoYG7Hq6P9i5uamsylfB8Wgavb8V6uI/69dLT/xj5uxytmCgJpCqTTNwlAOu70isBWAosXL95TC/9nGhsbH9AP3qM6S9V2eUSL/rLp06fP1cJ/lo74/2C7A9pDAIFwBEgAwpkrRppBAXM73o6Ojv8eHR29R+GdprqDqu1ikoqzZ8yYsbsW/fdzO17bvLSHQH0Cae1NApCWPP1GLaCj/SNVVxSLxTt1VH6CMBpVbZe78vn8m0ZGRubpiP+/brjhhsdtd0B7CCAQrgAJQLhzx8gDFGhra3u5Fv6bNPQbVbtUXZSfKqk4Tov+cwuFwlXDw8OjLjqhTQQQsCGQXhskAOnZ03MkAs3NzdN0mv8NWvzv1BH5dxX2AlXrRYt+oaGhYZEW/n/Tqf7vqIOyKgUBBBCYUIAEYEIWnkSgfoEtt+M9s2nz7Xi/osX/ufW3uk0LRT1zjbkdrxb9zr6+vmE9piCAQCACaQ6TBCBNffrOpEBra+ssHfFfMHPmzPsV4GWqe6jaLuZP835u2rRp++iI/zWDg4N32O6A9hBAINsCJADZnl+iS1BAp/ifrff3P67T8Gt1Ov5CdT1H1XZ5VG1/uLFx0+1437ZixYr7bHdAewggkJRAuv2QAKTrT+8ZENDR/r5a/L+kU/zmr/b9u0J6uqrt8ic1+B6z8OtU/3/29vb+RY8pCCCAQM0CJAA107Fj7AI61T92O967tfifLI/pqrbL79T2abNmzTK3471ECz+347UtTHsIpCSQdrckAGnPAP0HJ6CFv0NH/Ct1qv9WDf5Y1byq7fK/avCEhQsX7lcoFD7b09MzoscUBBBAwJoACYA1ShrKssDSpUsb9P7+q3W6/1Yt/H06Km92FO+Narurv7//ENVvql9ux+sImmYRSFcg/d5JANKfA0bgsUB3d3eTjvbfetNNN92tYX6zXC4foq+2i7le/7tq+zAt+s064u+z3QHtIYAAAk8VIAF4qgiPEZBAc3PzTjra/49169bdpyPyz+qpfVRtF3M7XvP3AfbXwv+KgYEBbsdrW5j2EPBUwIdhkQD4MAuMwRuBrq6uZ+hU/4eampoe0BH5JRrYs1Rtl78rqbhM7e+lhf8kHfH/1nYHtIcAAghMJUACMJUQP49CwNyOV6f6rygWi79XwP+p6uJ2vA+r3QunT5++uxb9d+qIn9vxCoSCQHwCfkRMAuDHPDCKlAR0xP9cHfF/Y3R09B4dlb9Nw9hB1Xa5X0f771y/fv3uOuJfunz58r/a7oD2EEAAgWoFSACqFWP7TAjoaP+lWvh7dcR/pwJ6jaqL2/H+Su2eNDIysreO9i9btWrVE3pMQQCByAV8CZ8EwJeZYBxJCOQ7OjqO0cK/Skf7w+qwU9VF+Ynaf4WO9p+n+pXh4eFRF53QJgIIIFCPAAlAPXrsG4RAc3PzNC36b9RR/y90Kv5/NOh/U3VR+tR+sxb9BXqP39z211ze56If2kQAgWAF/Bk4CYA/c8FIHAiYhb+pqWmNmv6yjsqfq68uytUNDQ3/qoW/S6f6b3TRAW0iEJqA/r1VnABXs21oDj6PlwTA59lhbHUJaPF/vxr4supcVdvlHzra/+y0adPMpXyv7+vru912B7SHQMgC+vdR8Z/IrmbbkE3M2H2qJAA+zQZjsSagxX++Gluqarus1y+ri4vF4l462j9txYoV99nugPYQyIJANUf11WybBRtfYiAB8GUmGIdtgXNtNqhF/yG1956RkZFna+E/f2hoyNyeV09REEBgIgH9m6n4DMBE+2fzOb+iIgHwaz4YjT2Bgy01dY9+kb1t9uzZu+k9/kuGh4cfs9QuzSCAwBYB/RsjWdhikeQXEoAktekrSYG6/pKfTknepsG+ZuHChfvriP9z3I5XGhQEEKhLwLedSQB8mxHGk6qAjkSGS6VSZ6FQOFRH/NcsXbq0lOqA6BwBBBBwJEAC4AiWZoMSKGu0/6OF/1Ad7S8aHBws6DEFAQQQsCjgX1MkAP7NCSOyI2AW9Slb0hH/fTrdv7+O9o/Vwm9O+0+5DxsggIBdAf0brOjfq91eaY0EgNdAVgUq+lCRfvGs1el+bseb1VcBcQUhoES8on+vQQQzySB9fJoEwMdZYUwIIIAAAgg4FiABcAxM8wgggAACsQv4GT8JgJ/zwqgQQAABBBBwKkAC4JSXxhFAAAEEYhfwNX4SAF9nhnEhgAACCCDgUIAEwCEuTSOAAAIIxC7gb/wkAP7ODSNDAAEEEEDAmQAJgDNaGkYAAQQQiF3A5/hJAHyeHcaGAAIIIICAIwESAEewNIsAAgggELuA3/GTAPg9P4wOAQQQQAABJwIkAE5YaRQBBBBAIHYB3+MnAfB9hhgfAggggAACDgRIAByg0iQCCCCAQOwC/sdPAuD/HDFCBBBAAAEErAuQAFgnpUEEEEAAgdgFQoifBCCEWWKMCCCAAAIIWBYgAbAMSnMIIIAAArELhBE/CUAY88QoEUAAAQQQsCpAAmCVk8YQQAABBGIXCCV+EoBQZopxIoAAAgggYFGABMAiJk0hgAACCMQuEE78JADhzBUjRQABBBBAwJoACYA1ShpCAAEEEIhdIKT4SQBCmi3GigACCCCAgCUBEgBLkDSDAAIIIBC7QFjxkwCENV+MFgEEEEAAASsCJABWGGkEAQQQQCB2gdDiJwEIbcYYLwIIIIAAAhYESAAsINIEAggggEDsAuHFTwIQ3pwxYgQQQAABBOoWIAGom5AGEEAAAQRiFwgxfhKAEGeNMSOAAAIIIFCnAAlAnYDsjgACCCAQu0CY8ZMAhDlvjBoBBBBAAIG6BEgA6uJjZwQQQACB2AVCjZ8EINSZY9wIRCDQ3t5+ZFtbW3cbNTiDfD7fHMFLNOgQSQCCnj4Gj0D2BBYsWPA0LfwfUS0ruhu1kFxLzQdnUC6XL9T8RVDCDZEEINy5Y+QIWBPo7OxsVt3LWoM1NtTd3d00c+bMW7X7uaoUBBBwKEAC4BCXphHwWUBH2EtV16iWS6XSStU1OtW+Ms1E4NFHH32/zJ6jSkEgCIGQB0kCEPLsMXYEahDo6Oi4yiz62tUstlsd9etUe7MSgdSSAJ02Pk/josQn8Mz4Qk4/YhKA9OeAESDgXMAc1Y8t/FpkT5qiw73SSAKUlBw+xbj4cXYF9g0ztLBHTQIQ9vwxegS2K6CFv9mc1teCvqaChX98W+bMgKnjn+N7BBDIkAAJQIYmk1AQGBPQon+Sqnlff6U5rT/2fDVflTQkehlXf3//T6sZH9tmSuC3IUYT+phJAEKfQcaPwDgBLfqbFn4t+lep1rWAa/89xzWdyLfq8+JEOqIT3wT+7NuAYhgPCUAMs0yMmRcwC7/eQ1+jBbTuhT9NrJ133tlcO35XmmOgbwQqEwh/KxKA8OeQCCIW0KK/6VI+s/CLIfj37Ht6ekbWr19/qGK5VJWCAAIOBUgAHOLSNAKuBMY+0a/2t7mUT88FXVatWvVEf3//u1XzCuSl5XL5VdTwDJSUmtempjCbJQtRkQBkYRaJIQoB84n+sYVfC+JUl/JlwkRJwA8GBgZ6BqjBGeg1OpyJF2GGgyAByPDkElo2BMzCr/f4N32iX79Uo1j4szFzRJFdgWxERgKQjXkkigwKaNHf9In+UqlU86V8GWQhJAQQsCRAAmAJkmYQsCUwtvDrPdSgP9Fvy4N2EPBNICvjIQHIykwSR/ACZuFvb293einfIYccErwTASCAgB0BEgA7jrSCQM0CWvSdX8pnFv6zzz47d+yxx9Y8TnZEAAEjkJ1KApCduSSSwATGPtGvYZvLpZxcw79o0aLc2MI/e/ZsdUVBAAEENguQAGx24P8IJCJgPtE/tvC7/ES/OdJftmxZziQALPyJTC2dRCKQpTBJALI0m8TirYBZ+PUev9NL+cxCP7bwm1P+3mIwMAQQ8EKABMCLaWAQWRXQou/8Ur558+blTj755E2n+ln4s/pKIi4/BLI1ChKAbM0n0XgiYBb+9gQ+0W8WflNNEuBJ6AwDAQQCESABCGSiGGYYAuMXfo3YyQf7zFG+WfTN6X4WfilTEEhIIGvdkABkbUaJJxUBHe2bS/nK5o/3aADOFv6xT/Sz8EuZggACdQmQANTFx84xC3R2du419ol+OZhL+fTFflnEpXz2UWkRgaoFsrcDCUD25pSIHAto4W82C3+pVFrDpXyOsWkeAQScCZAAOKOl4awJmIVf7/E7vZTPnNo37+2ba/jNe/1ZMyQeBEIVyOK4SQCyOKvEZFVAi35il/KZD/ex8FudPhpDAIFJBEgAJoHhaQTMwt/OpXy8EBBAIJdNAhKAbM4rUdUhMH7hVzN8ol8IFKXdJPoAABAASURBVAQQyJ4ACUD25pSIahTQ0X6il/KZP91b41DZDQEEEhTIalckAFmdWeKqVGCG+US/Fv+ydnB6KZ/5YJ/5gB8Lv6QpCCCQugAJQOpTwABSFpif1KV8KcdJ9wggUJNAdnciAcju3BJZSgJcypcSPN0igEBVAiQAVXGxMQKTC5iF31zGZyqX8k3uxE8QCEkgy2MlAcjy7BJbIgJmsTeLvqkmCUikUzpBAAEE6hQgAagTkN29FdjR9cjMws/NeVwr0z4CaQpku28SgGzPb3TRjftE/2xXwY9f+PlEvytl2kUAAdcCJACuhWnfuUDnuLvyufxEv7krH5fyOZ9OOkDAG4GsD4QEIOsznOH4tPA3t7W1mZvzOLsrnznCN9fum4XfJAAZ5iQ0BBCITIAEILIJz0K4WvQTuTmPWfjNe/zmlH8W3IgBAQSqEcj+tiQA2Z/jzEQ4tvDn8/mrVJtdBGY+xW8+zW8qC78LYdpEAAFfBEgAfJkJxjGpgFn427kr36Q+/AABBOwLxNAiCUAMsxxojFr0zc151uho/yqFwF35hEBBAAEEbAmQANiSpB1rAuMu5TM353G+8JsP+lkbPA0hgEAGBOIIgQQgjnn2PsrOhC7lMx/sM5/oN19Z+L1/WTBABBBwKEAC4BCXpqcW0MKf6KV8fLBv6jlhCwRiF4glfhKAWGbaszjNB/tUzTX8K/Uev7NP9JsjfS7l82zyGQ4CCHghQALgxTTEMwgt+puu4deiz6V88Uw7kSIQkEA8QyUBiGeuU43ULPztXMqX6hzQOQIIIDBegARgvAbfWxfQos+lfNZVaRABBFwJxNQuCUBMs51grFzKlyA2XSGAAAI1CJAA1IDGLhMLmE/0jy38Lu/KZz7Yx6V8E88BzyKAQD0Cce1LAhDXfDuJ1iz8eo9/0yf6XS385pr9sYWfS/mcTCONIoBAZAIkAJFNuM1wtehv+kR/qVRyeimfuTEPl/LZnDnaQgCBiQRie44EILYZtxDv2MLv8lI+c5RvFn5TzR36LAybJhBAAAEExgmQAIzD4NvtC5iFvz2hS/nM6X4W/u3PBz9FAAGbAvG1RQIQ35xXHbEWfXMpX9kc8Wtn5zfnYeGXMiXX2dm5QK+98zs6Or6qr5dT24MyKJfLZ/Ey9luABMDv+Ul1dPrFe5V+6ZY1CHNXPn2xXxYtWpQz7++bI37zQT/7PdBiaAKtra0v1uvut6VS6SaN/YNaSF6vr2dQc0EZ6IDhOM1ZMCXGgZIAxDjr24lZR13NYwu/fvGetJ1N6/qRWfDNpXwmAWDhr4syUzvr9XdAQ0PDsILaR5WCAAIOBRoctk3TAQnoF+/YXflWulr4zUI/tvCbD/kFxMNQExLQUf971FWjKgWBBAXi7IoEIM55fzJq88E+1U3X8OuUnbO78plP85tT/Sz8T9LzzVMElixZsqOeeqMqJTIB/e5x8tmiyBirDpcEoGqybOygRf8kvc+6Rv/wnN2Vzyz2ZuE3lQ/2ZeN14zKKkZGRw122T9teC6SaAHgt43BwJAAOcX1sevzCr/E5+Uc3tvCb0/0s/FKmVCSg9/7/VNGGbJQ5Ab3tuD5zQQUQEAlAAJNkY4g62udSPhuQtOFMoLe395fOGqdhrwV0JvJX6Q0w3p5JADI8952dnXuNfaJfYXIpnxAo3guc7v0IGaB1AZ0BeNx6ozQ4pQAJwJRE4W2ghX/TpXylUmmN/mFxKV94UxjtiPv7+6/Q0eD10QIQeOICMXdIApCh2TcLv97j3/SJflcLv3lP37y3b67hN+/1Z4iPUDwRKBQKxygJOF7D6VOlIICAIwESAEewSTarRT+xu/KZT/Sz8Cc5u3H2pSTgOp0N6Jo1a9Y0/bcrdVpwBnrlHqvqeYl7eCQAAc+/WfjbE7o5j1n4zdF/wFwMPUCBnp6e4ooVKx6khmegl9sjqhSPBUgAPJ6cyYY2fuHXNlzKJwQKAgggUK1A7NuTAAT0Chj7RL/eH71Kw3a28Ju/2Gfe5+eIX8oUBBBAIKMCJACeT2znuEv5XH2wzxCYm/KMLfzmb/ab56gIIIBAdgWIjATA09eAFn4u5fN0bhgWAgggkAUBEgDPZtEs/HqPn0v5PJsXhoMAAtkSIJpcjgTAk1eBFn0u5fNkLhgGAgggEIMACUDKs2yO+LmUL+VJoHsEEIhMgHCNAAmAUUipauFfWiqVVqp7PtEvBAoCCCCAQHICJADJWW/Vk1n89YSTG/SYv9THJ/qlS0EAAQQmEOCpzQIkAJsd0vi/9cXfXMpn/ka/uYafS/nSmFL6RAABBMIRIAFIYa70vr+1U/5moTcLvln4TQKQQjh0iQACCAQkwFDHBEgAxiQS/Kr3/U+qtzvzV/rMwm9O9ZtT/vW2x/4IIIAAAnEJkAAENt9m4Tc35jGVhT+wyWO4CCCQugAD+KcACcA/Lbz+ziz2ZtE31SQBXg+WwSGAAAIIeC9AAuD5FJnF3pzmN6f7zfeeD5fhIYAAAh4LMLTxAiQA4zU8/N4s/OaDfh4OjSEhgAACCAQsQAIQ8OQxdAQQQACBygXYcmsBEoCtPXiEAAIIIIBAFAIkAFFMM0EigAACsQsQ/1MFSACeKsJjBBBAAAEEIhAgAYhgkgkRAQQQiF2A+LcVIAHY1oRnEEAAAQQQyLwACUDmp5gAEUAAgdgFiH8iARKAiVR4DgEEEEAAgYwLkABkfIIJDwEEEIhdgPgnFiABmNiFZxFAAAEEEMi0AAlApqeX4BBAAIHYBYh/MgESgMlkeB4BBBBAAIEMC5AAZHhyCQ0BBBCIXYD4JxcgAZjchp8ggAACCCCQWQESgMxOLYEhgAACsQsQ//YESAC2p8PPEEAAAQQQyKgACUBGJ5awEEAAgdgFiH/7AiQA2/fhpwgggAACCGRSgAQgk9NKUAgggEDsAsQ/lQAJwFRC/BwBBBBAAIEMCpAAZHBSCQkBBBCIXYD4pxYgAZjaiC0QQAABBBDInAAJQOamlIAQQACB2AWIvxIBEoBKlNgGAQQQQACBjAmQAGRsQgkHAQQQiF2A+CsTIAGozImtEEAAAQQQyJQACUCmppNgEEAAgdgFiL9SARKASqXYDgEEEEAAgQwJkABkaDIJBQEEEIhdgPgrFyABqNyKLS0J3Hbbbblrrrkmd/nll+eWLl2au+CCC3Kf+cxnqAkZWJpGp80cccQRM9vb289ULajeo1reUm/TV2p7u/cGeoFcqUrxWIAEwOPJydrQ7rrrrtwll1yS+853vpO78847cw899FCuVCptCvPBBx/MUZMx2ATu8f+0wJ/69Kc//VEN8TLVdtW9VcfKC/QNNZcLwWDfXOL/0WE1AiQA1Wixbc0Cjz32WO7aa6/NPf744zW3wY7ZF9Div1BRfk6VggACjgVIABwD0/xmgVWrVuVGR0c3P+D/QQiUy+X/n/RA1ec5SfdJf9kRIJLqBEgAqvNi6xoFbrnllhr3ZLcUBfZIsu/m5uad8vn8cUn2SV/eCBzozUgiGggJQESTnVao5rT/E088kVb39Fu7wC6171r9njNmzDik+r3YIyMCu9cfBy1UK0ACUK0Y21ctsOOOO+Z22GGHqvdjh3QFdDT+cJIjKBaLtyfZH315JbDWq9FEMhgSgEgmOu0w58+fn/YQ6L96gd9Xv0vtewwODq4rl8vX194CewYscGe9Y2f/6gVIAKo3Y48aBBYsWJDTEWUNe7JLigIPptD3x1Poky4RiFKABCDKaU8+6J133jnX3d2da2pqSr5zegxGYGBg4EYN9ixVCgJVCLBpLQIkALWosU9NAs9//vNz5513Xu7oo4/OzZs3Lzdr1qyt2pkzZ06O6t5gK3QPH/T391+uYZlLEN+js0Y/0vdbnYnQc3dT894baN7uV6V4LEAC4PHkZHFoDQ0NuRe96EW5k08+OXfOOefkli1b9mQ966yzclT3BiG8rpQE/Fn1kkKh8BJ93VU1P1b13AHUgvcGep29TjWRQie1CZAA1ObGXggggAACCAQtQAIQ9PQxeAQQQCB2AeKvVYAEoFY59kMAAQQQQCBgARKAgCePoSOAAAKxCxB/7QIkALXbsScCCCCAAALBCpAABDt1DBwBBBCIXYD46xEgAahHj30RQAABBBAIVIAEINCJY9gIIIBA7ALEX58ACUB9fuyNAAIIIIBAkAIkAEFOG4NGAAEEYhcg/noFSADqFWR/BBBAAAEEAhQgAQhw0hgyAgggELsA8dcvQAJQvyEtIIAAAgggEJwACUBwU8aAEUAAgdgFiN+GAAmADUXaQAABBBBAIDABEoDAJozhIoAAArELEL8dARIAO460ggACCCCAQFACJABBTReDRQABBGIXIH5bAiQAtiRpBwEEEEAAgYAESAACmiyGigACCMQuQPz2BEgA7FnSEgIIIIAAAsEIkAAEM1UMFAEEEIhdgPhtCpAA2NSkLQQQQAABBAIRIAEIZKIYJgIIIBC7APHbFSABsOtJawgggAACCAQhQAIQxDQxSAQQQCB2AeK3LUACYFuU9hBAAAEEEAhAgAQggEliiAgggEDsAsRvX4AEwL4pLSKAAAIIIOC9AAmA91PEABFAAIHYBYjfhQAJgAtV2kQAAQQQQMBzARIAzyeI4SGAAAKxCxC/GwESADeutIoAAggggIDXAiQAXk8Pg0MAAQRiFyB+VwIkAK5kaRcBBBBAAAGPBUgAPJ4choYAAgjELkD87gRIANzZ0jICCCCAAALeCpAAeDs1DAwBBBCIXYD4XQqQALjUpW0EEEAAAQQ8FSAB8HRiGBYCCCAQuwDxuxUgAXDrS+sIIIAAAgh4KUAC4OW0MCgEEEAgdgHidy1AAuBamPYRQAABBBDwUIAEwMNJYUgIIIBA7ALE716ABMC9MT0ggAACCCDgnQAJgHdTEs+ANmzYkKMmbxDaK6yrq2tnangGep09XbXGwm5JCJAAJKFMH08K/PGPf8x997vfzV100UXUlAyenAyPv2lra1vc0dFxXXt7+z+KxeI6angGenmtUKV4LEAC4PHkZG1oK1euzF1xxRW51atXbzryz1p8xGNHQIv+l/P5/PJyuXycWpyhSolMgHCTESABSMY5+l7Wrl2bMwlA9BAAbFdAR/1v0QZvVKUggIBjARIAx8A0v1ng5ptv3vwN/w9GQEfgeyY9WPX5+aT7pD8vBHb45yj4LikBEoCkpCPv54477ohcIMjw5yY5ap36f06S/dGXPwJ6y+dAf0YTz0hIAOKZ69QiNZ/037hxY2r903HNAol+iltH/7vVPFJ2DFpAcz97LAC+JidAApCcdbQ9zZgxIzdz5sxo4w848D8nOfbHH3/8Z0n2R19eCdzr1WgiGQwJQCQTnXaYCxcuTHsI9F+9wJrqd6l9jx//+MfrtffXVSnxCWx5rcUXeJoRkwCkqR9R30cccURul112iSji8EPV+7LrUojikhT6pEsEohQgAYhy2tMJ+sQTT8wdeCAqzKUeAAALfUlEQVSf9UlHP4xe+/v7f6HEo02jXatKiUyAcJMVIAFI1jvq3ubMmZM74YQTcqeddlqutbU1d/DBB+cOPfRQasIGvr8IC4XCoBKBueVyuVX1Yo33OtUrqbmgDJTILdecUTwWIAHweHKyOrRdd901d+SRR+aOP/743Cte8QpqwgahvK4GBgaGVM9XMnC86inU/qAMlLx9pLrXGlsnLUACkLQ4/SGAAAIIIOCBAAmAB5PAEBBAAIHYBYg/eQESgOTN6REBBBBAAIHUBUgAUp8CBoAAAgjELkD8aQiQAKShTp8IIIAAAgikLEACkPIE0D0CCCAQuwDxpyNAApCOO70igAACCCCQqgAJQKr8dI4AAgjELkD8aQmQAKQlT78IIIAAAgikKEACkCI+XSOAAAKxCxB/egIkAOnZ0zMCCCCAAAKpCZAApEZPxwgggEDsAsSfpgAJQJr69I0AAggggEBKAiQAKcHTLQIIIBC7APGnK0ACkK4/vSOAAAIIIJCKAAlAKux0igACCMQuQPxpC5AApD0D9I8AAggggEAKAiQAKaDTJQIIIBC7APGnL0ACkP4cMAIEEEAAAQQSFyABSJycDhFAAIHYBYjfBwESAB9mgTEggAACCCCQsAAJQMLgdIcAAgjELkD8fgiQAPgxD4wCAQQQQACBRAVIABLlpjMEEEAgdgHi90WABMCXmWAcCCCAAAIIJChAApAgNl0hgAACsQsQvz8CJAD+zAUjQQABBBBAIDEBEoDEqOkIAQQQiF2A+H0SIAHwaTYYCwIIIIAAAgkJkAAkBE03CCCAQOwCxO+XAAmAX/PBaBBAAAEEEEhEgAQgEWY6QQABBGIXIH7fBEgAfJsRxoMAAggggEACAiQACSDTBQIIIBC7APH7J0AC4N+cMCIEEEAAAQScC5AAOCemAwQQQCB2AeL3UYAEwMdZYUwIIIAAAgg4FiABcAxM8wgggEDsAsTvpwAJgJ/zwqgQQAABBBBwKkAC4JSXxhFAAIHYBYjfVwESAF9nhnEhgAACCCDgUIAEwCEuTSOAAAKxCxC/vwIkAP7ODSNDAAEEEEDAmQAJgDNaGkYAAQRiFyB+nwVIAHyeHcaGAAIIIICAIwESAEewNFu9wCOPPJK7++67qY4Nqp+Z9PZoaWk5rLW19ShqeAb5fH5Beq8ceq5EgASgEiW2cSpwxx135C644ILcJz7xidzVV19NdWzgdDLtNJ5va2u7sL29vdzY2PizhoaG71HDMyiXy5fYeTnQiisBEgBXsrRbkUBfX1+up6enom3ZKAqBvBb+/9XR4wVRRJvpIAnOdwESAN9nKMPjW7t2be6mm27KcITBh9aYdAQ68l+qPg9WpSCAgGMBEgDHwDQ/ucCtt946+Q/5SeoCOoW7b9KD4Mg/aXF3/VXTsl5ru1SzPdvaESABsONIKzUImA/81bAbuyQnsFtyXeVy5gN/SfZHX/4INDQ07OfPaOIZCQlAPHPtXaTK+r0bEwPaSiC/1SPHD3T0n/hbDo5Dirj56kLX7wLWourIrGwNuhVGGqlFYN99Ez/DXMswY97nD0kGPzg4+JMk+6MvrwR+69VoIhkMCUAkE+1jmIcccoiPw2JMWwR0RH7Plm+T/HJpkp3RlxuBGlr9Uw37sEudAiQAdQKye+0Ce+65Z27+/Pm1N8CergVGXHfw1PZHRkaW6bnfqVIQQMCxAAmAY2Ca377AMccckzvqqKO2vxE/jUZgeHj4MZ15OEzvCX8qmqAzFygBhSJAAhDKTGV4nIcffnhu2bJluVNPPTV37LHHUh0b+P5SKhQKjwwMDJyxfv36HTXWxUoGTqaWgzPQ3H1IleKxAAmAx5MT29Dmzp2bM58LoB7i1CGU19WqVaue6O/v71Uy8GXqQDAGY3Ol11mfKsVjARIAjyeHoSGAAAIIIOBKgATAlSztIoAAAtEJEHBIAiQAIc0WY0UAAQQQQMCSAAmAJUiaQQABBGIXIP6wBEgAwpovRosAAggggIAVARIAK4w0ggACCMQuQPyhCZAAhDZjjBcBBBBAAAELAiQAFhBpAgEEEIhdgPjDEyABCG/OGDECCCCAAAJ1C5AA1E1IAwgggEDsAsQfogAJQIizxpgRQAABBBCoU4AEoE5AdkcAAQRiFyD+MAVIAMKcN0aNAAIIIIBAXQIkAHXxsTMCCCAQuwDxhypAAhDqzDFuBBBAAAEE6hAgAagDj10RQACB2AWIP1wBEoBw546RI4AAAgggULMACUDNdOyIAAIIxC5A/CELkACEPHuMHQEEEEAAgRoFSABqhGM3BBBAIHYB4g9bgAQg7Plj9AgggAACCNQkQAJQExs7IYAAArELEH/oAiQAoc8g40cAAQQQQKAGARKAGtDYBQEEEIhdgPjDFyABCH8OiQABBBBAAIGqBUgAqiZjBwQQQCB2AeLPggAJQBZmkRgQQAABBBCoUoAEoEowNkcAAQRiFyD+bAiQAGRjHokCAQQQQACBqgRIAKriYmMEEEAgdgHiz4oACUBWZpI4EEAAAQQQqEKABKAKLDZFAAEEYhcg/uwIkABkZy6JBAEEEEAAgYoFSAAqpmJDBBBAIHYB4s+SAAlAlmaTWBBAAAEEEKhQgASgQig2QwABBGIXIP5sCZAAZGs+iQYBBBBAAIGKBEgAKmJiIwQQQCB2AeLPmgAJQNZmlHgQQAABBBCoQIAEoAIkNkEAAQRiFyD+7AmQAGRvTokIAQQQQACBKQVIAKYkSneD2267Lbdy5UoqBtZeA5W+osvl8gva29uXUjFob6/eIJ/Pn1zpay2fz5cr3Zbt7AmQANizdNISiz/Jj+3XQBUv1Bdo2/dTcxjkqjdQAnmSXjsVFW2br2hDNrIqQAJglZPGEEAAgewJEFE2BUgAsjmvRIUAAggggMB2BUgAtsvDDxFAAIHYBYg/qwIkAFmdWeJCAAEEAhEol8ulQIaaqWGSAKQwneVy+d4UuqVLBBBAoGqBhHb4c0L90M04ARKAcRhJfdvY2EgCkBQ2/SCAgPcC+Xz+Ru8HmcEBkgCkMKl9fX3D+Xz+yyl0TZcIIIBAFQKJbPql/v5+zgAkQr11JyQAW3sk9kgJwIXqjDMBQqAggEC0Aj9V5GeqUlIQIAFIAd10qbMA9yrrnadEwJwJIBEwKFQEEPBKwOFg/qLffZep/Rb9Hvy7vlJSECABSAF9fJeFQuFk/QOY19DQQHVoUCwWnyfjV6meQG2YzGCRbKgNDRg4NGhsbHyefuc9U7/73qmvLP7jF4SEvycBSBh8su7MGQFq372uDIaGhn6ptntUv0ntm8xguK+vj4rBlteAm9dCb2/vLyf7PcjzyQqQACTrTW8IIIAAAgh4IUAC4MU0MAgEEEDALwFGk30BEoDszzERIoAAAgggsI0ACcA2JDyBAAIIxC5A/DEIkADEMMvEiAACCCCAwFMESACeAsJDBBBAIHYB4o9DgAQgjnkmSgQQQAABBLYSIAHYioMHCCCAQOwCxB+LAAlALDNNnAgggAACCIwTIAEYh8G3CCCAQOwCxB+PAAlAPHNNpAgggAACCDwpQALwJAXfIIAAArELEH9MAiQAMc02sSKAAAIIILBFgARgCwRfEEAAgdgFiD8uARKAuOabaBFAAAEEENgkQAKwiYH/IYAAArELEH9sAiQAsc048SKAAAIIICABEgAhUBBAAIHYBYg/PgESgPjmnIgRQAABBBDIkQDwIkAAAQSiFwAgRgESgBhnnZgRQAABBKIXIAGI/iUAAAIIxC5A/HEKkADEOe9EjQACCCAQuQAJQOQvAMJHAIHYBYg/VgESgFhnnrgRQAABBKIWIAGIevoJHgEEYhcg/ngFSADinXsiRwABBBCIWIAEIOLJJ3QEEIhdgPhjFiABiHn2iR0BBBBAIFoBEoBop57AEUAgdgHij1vg/wAAAP//ZkVp3QAAAAZJREFUAwB7MHRK8229HwAAAABJRU5ErkJggg==;" vertex="1" parent="1">
          <mxGeometry x="20" y="350" width="92" height="92" as="geometry" />
        </mxCell>
        <mxCell id="qTVKj7qANSQW3XM0a56Q-7" value="&lt;font style=&quot;font-size: 10px;&quot;&gt;&quot;Managed service, no VM&quot;&lt;/font&gt;" style="text;whiteSpace=wrap;html=1;" vertex="1" parent="1">
          <mxGeometry x="662.94" y="469.5" width="125.88" height="40" as="geometry" />
        </mxCell>
        <mxCell id="qTVKj7qANSQW3XM0a56Q-8" value="&lt;font style=&quot;font-size: 10px;&quot;&gt;Branch office&amp;nbsp;&lt;/font&gt;" style="text;html=1;align=center;verticalAlign=middle;whiteSpace=wrap;rounded=0;" vertex="1" parent="1">
          <mxGeometry x="26" y="442" width="80" height="30" as="geometry" />
        </mxCell>
        <mxCell id="qTVKj7qANSQW3XM0a56Q-9" value="" style="image;aspect=fixed;html=1;points=[];align=center;fontSize=12;image=img/lib/azure2/management_governance/My_Customers.svg;" vertex="1" parent="1">
          <mxGeometry x="130" y="570" width="61.61" height="50" as="geometry" />
        </mxCell>
        <mxCell id="qTVKj7qANSQW3XM0a56Q-10" value="Remote Admins" style="edgeLabel;resizable=0;html=1;;align=left;verticalAlign=bottom;" connectable="0" vertex="1" parent="1">
          <mxGeometry x="120" y="650" as="geometry" />
        </mxCell>
        <mxCell id="qTVKj7qANSQW3XM0a56Q-11" value="" style="endArrow=classic;startArrow=classic;html=1;rounded=0;entryX=0.457;entryY=1.008;entryDx=0;entryDy=0;entryPerimeter=0;exitX=0;exitY=0.5;exitDx=0;exitDy=0;edgeStyle=orthogonalEdgeStyle;curved=1;strokeColor=light-dark(#000000,#006633);" edge="1" parent="1" source="qTVKj7qANSQW3XM0a56Q-1" target="qTVKj7qANSQW3XM0a56Q-9">
          <mxGeometry width="50" height="50" relative="1" as="geometry">
            <mxPoint x="570" y="685" as="sourcePoint" />
            <mxPoint x="740" y="650" as="targetPoint" />
          </mxGeometry>
        </mxCell>
        <mxCell id="qTVKj7qANSQW3XM0a56Q-12" value="" style="endArrow=classic;startArrow=classic;html=1;rounded=0;entryX=0;entryY=0.5;entryDx=0;entryDy=0;exitX=1;exitY=0.5;exitDx=0;exitDy=0;edgeStyle=orthogonalEdgeStyle;curved=1;" edge="1" parent="1" source="qTVKj7qANSQW3XM0a56Q-6" target="qTVKj7qANSQW3XM0a56Q-13">
          <mxGeometry width="50" height="50" relative="1" as="geometry">
            <mxPoint x="200" y="305" as="sourcePoint" />
            <mxPoint x="370" y="270" as="targetPoint" />
          </mxGeometry>
        </mxCell>
        <mxCell id="qTVKj7qANSQW3XM0a56Q-13" value="" style="shape=image;verticalLabelPosition=bottom;labelBackgroundColor=default;verticalAlign=top;aspect=fixed;imageAspect=0;image=data:image/png,iVBORw0KGgoAAAANSUhEUgAAAgAAAAIACAYAAAD0eNT6AAAQAElEQVR4AeydC7Bd11nfz7k3tlRUy+7YVmnHHq4Sk7T1TB8JFGLR5qrR1VWgcct0wvCspQ7D9MWjxS5p6SCJ0jY07pRHmZYCI1GeJQwT5IIly0FKiw2FkLYzuEyCjUTtTqlsg6zgcC1xz+333zr75t6r81hrP9fjp9lL55y9115rfb9vn/X911p7n7sw4B8EIAABCEAAAtkRQABk53IMhgAEIAABCAwGCACuAghAAAIQgECGBBAAGTodkyEAAQhAIG8Csh4BIAokCEAAAhCAQGYEEACZORxzIQABCEAgdwI37UcA3OTA/xCAAAQgAIGsCCAAsnI3xkIAAhCAQO4ESvsRACUJXiEAAQhAAAIZEUAAZORsTIUABCAAgdwJfMZ+BMBnWPAOAhCAAAQgkA0BBEA2rsZQCEAAAhDIncBW+xEAW2nwHgIQgAAEIJAJAQRAJo7GTAhAAAIQyJ3AdvsRANt58AkCEIAABCCQBQEEQBZuxkgIQAACEMidwE77EQA7ifAZAhCAAAQgkAEBBEAGTsZECEAAAhDIncCt9iMAbmXCHghAAAIQgEDyBBAAybsYAyEAAQhAIHcCk+xHAEyiwj4IQAACEIBA4gQQAIk7GPMgAAEIQCB3ApPtRwBM5sJeCEAAAhCAQNIEEABJuxfjIAABCEAgdwLT7EcATCPDfghAAAIQgEDCBBAACTsX0yAAAQhAIHcC0+1HAExnwxEIQAACEIBAsgQQAMm6FsMgAAEIQCB3ArPsRwDMosMxCEAAAhCAQKIEEACJOhazIAABCEAgdwKz7UcAzObDUQhAAAIQgECSBBAASboVoyAAAQhAIHcC8+xHAMwjxHEIQAACEIBAggQQAAk6FZMgAAEIQCB3AvPtRwDMZ0QOCEAAAhCAQHIEEADJuRSDIAABCEAgdwIu9iMAXCiRBwIQgAAEIJAYAQRAYg7FHAhAAAIQyJ2Am/0IADdO5IIABCAAAQgkRQABkJQ7MQYCEIAABHIn4Go/AsCVFPkgAAEIQAACCRFAACTkTEyBAAQgAIHcCbjbjwBwZ0VOCEAAAhCAQDIEEADJuBJDIAABCEAgdwI+9iMAfGiRFwIQgAAEIJAIAQRAIo7EDAhAAAIQyJ2An/0IAD9e5IYABCAAAQgkQQABkIQbMQICEIAABHIn4Gs/AsCXGPkhAAEIQAACCRBAACTgREyAAAQgAIHcCfjbjwDwZ8YZEIAABCAAgegJIACidyEGQAACEIBA7gSq2I8AqEKNcyAAAQhAAAKRE0AARO5Amg8BCEAAArkTqGY/AqAaN86CAAQgAAEIRE0AARC1+2g8BCAAAQjkTqCq/QiAquQ4DwIQgAAEIBAxAQRAxM6j6RCAAAQgkDuB6vYjAKqz40wIQAACEIBAtAQQANG6joZDAAIQgEDuBOrYjwCoQ49zIQABCEAAApESQABE6jiaDQEIQAACuROoZz8CoB4/zoYABCAAAQhESQABEKXbaDQEIAABCOROoK79CIC6BDkfAhCAAAQgECEBBECETqPJEIAABCCQO4H69iMA6jOkBAhAAAIQgEB0BBAA0bmMBkMAAhCAQO4EmrA/SwFw5MiRJUvLKysrR5UOHz58YnV19ZS9v0Ba8WJg7P67Mfs9e90gHYbBYRjwPQj+GrhkfdYF9fnmqxNKigeWlpoIqjGVkY0AMIcr2F8wZ2+MRqNLli4Mh8NTSuaw4xsbG0ft/TJp6MXA2P15Y3aXvbJBAAIQiIHAkvVZy+rzrbHHlRQPLBXCwGLEifDFgLW6gS1pAaCgb868ZGnDHK5gv9wAM4qAAAQgAIEECVicUIw4vkMMaF+C1g4GyQkAU26a2i9G+ubMU+a17KZ1zGY2CEAAAhCoQcDihwK/xECxLGqxJZhYUsOsbacmIwDkHBvxXzDlpql9OW6boXyAAAQgAAEIVCEgMWCx5ZLuG1CsqVJGiOckIQDkFDlHTgoRMm2CAAQgAIH4Cei+AcUaW1bu8T6B5jhGLQBMiS2bI8wnG0ebQ0JJEIAABCAAgZkEiqUBi0FRLwtEKwAs8J8wJXZhpos4CAEIQAACEGiHwJLFID050OkAtElTohQAWus3CHp8w17YIAABCEAAAv0QsKXnUxqQ9lN7vVqjEgCablHwN+Dc5FfP75wNAQhAAALNETiue9EUo5orclJJze6LRgAIrKZb2gj+67vuGVzf+7bB2r4DJAcGf/hHPtv5KoQr1xTfq+rXgPMXzTKqHyPdM5jHwFC1sm1sbBxdX18/pVjVSgUtFBqFABBQBf8m7C8D0qtv/8BA6co7f7B4vfrgY4NrbzlGcmBw444HnF3x6fsfhqkDU649vnuTrgHXL9r67n1FP6Y+jXSzb5/GQX2++nulaw8cG7x+38OFaHBlPSufBqgWq47OylPnWNPnRiEApKrqGC5FKEfrgiicbh2y9inVKZdzIQABCEAgPgIaCCqt3Xtg8LoNUsrY0JAYOB7LPQHBC4C6a/5l4JejCfjxfVFpMQQgAIEuCEgQbBUDNePFcYtdDc8ENE8haAEgFaUplSpmS8lpqkeBv8r5nAMBCEAAAnkSkBjQrIAGkFWFgMWu4O8HCFYA2Lq/7vT3ftRPztI0v5RcnpcuVkMAAhCAQBMENICUENCNrFXKG41GFyyWNfJjQVXqn3dOsALAwOkP+cxr/7bjpWrT67YDfIAABCAAAQhUJKAbNDWrXOF0/VhQsEsBQQoATf0baC/VpKCvkb+dxwYBCEAAAhBolIBmlSsuCRyvPwvQqCmbhQUnAMagvKb+Cf6b/uQNBCAAAQi0REBLAq/f/17vxwZtRjvIWYDgBIAvqHLNvyV/UywEIAABCEBgk4BEwNq9D21+dnxTaxbAsQ7vbEEJgCqj/089cMzbaE6AAAQgAAEIVCWg5QDfewI2Nja8Zrarts3nvKAEgO/oX+sxmv73MZi8EIAABCAAgboEJAI0A+1ajgmAo+NBrusp43ztvQQlAMxMZ4Uk8Gv3HrBT2CAAAQhAAALdE9AMtGKRa82+g1zXcqvmC0YAmDLSc//Odgi8c2YyQgACEIAABBomoBnoG3e+zblUmwV4l3PmccY2X4IRAKaMnAWAoCu1CYayIQABCEAAAvMIvH6f+1MBw+Fw2Qa7Xo+4z6u/zvFgBIAZ4Tz9z+jfaLFBAAIQgEDvBLQEsObxVMD6+rrzYHcwaNe8IASAjyISbKV2sVA6BCAAAQhAwI2AzzKAlfiIpSC2IASATf87/0iCj9IKgjCNgAAEIACBpAloSdp1YOqzDNA2tCAEgM+NEWv7vH+AoW2GlA8BCEAAApkT8BycBnEfQBACwBSREwwpLKXMrzPMhwAEIACBwAj4LAOsr687xLz2DQxCAJiZTjB8AFuZbBCAAAQgAIFOCPgsA3TSIIdKehcAXjcA3n63g0lkgQAEIAABCIRLYGFhYe7vAXTR+t4FQBdGUgcEIAABCECgbQLru+IapIYgAJym/+W49d1xwVWbSRCAAAQgkAeB0e57nAwdjUZz4p5TMbUz9S4AfG6GGO1yg1ubCgVAAAIQgAAEWiLgeuN7S9VvFtu7AAgFxCYR3kAAAhCAAAQqEFhv6D61ClVXOqV3AVCp1ZwEAQhAAAIQgEAtAgiAWvg4GQIQgAAEINAkge7KQgB0x5qaIAABCEAAAsEQQAAE4woaAgEIQAACuRPo0n4EQJe0qQsCEIAABCAQCAEEQCCOoBkQgAAEIJA7gW7tRwB0y5vaIAABCEAAAkEQQAAE4QYaAQEIQAACuRPo2n4EQNfEqQ8CEIAABCAQAAEEQABOoAkQ6JLA4huvDMp0+7VPDJR2v/zMoEz6XKYyn167bCN1QSA/At1bjADonjk1QqBRAgrOCth7Xjwz2PvCqSLd9dwHB2W6++PvH+z7pa/dTPpcpjLP3uftvHEq9+m1zKfXsgy9L5PylEl1S0SoLWpTo0ZSGAQg0DgBBEDjSCkQAu0QUFBVgC0DvQKvgrKCsd7veenMYPcVG8lbUhAuk85rskUqr0xlHXpV3RISaovaVCZ9Rhw06QHKSpFAHzYhAPqgTp0QmEFAwbUM9AqeCqRloFeALQO9gu6MYno/JDuU1M5Z4kCCRnl6bzANgEBmBBAAmTkcc8MjoCCpIKhgvzPQKzDqeHitrtci2aQk+yRoZLuEjl7FQvvr1cDZEIiJQD9tRQD0w51aMyawGfhszb4M+AqCuQe9TS62lCEhgCDI+EuC6Z0QQAB0gplKcieg4KaR7bbAZoEudy6z7BcziSKJo23cTDhp/6xzOQaBmAj01VYEQF/kqTdpAgpeCvi6+Y1RfjOuFlMF/q2CQIy1r5kaKAUCeRFAAOTlb6xtmYACUjlaVaDSzW8tV5lt8RIEYrzJ22YGtC9bIBgeKYH+mo0A6I89NSdCQEFHgV8jfQUkRqTdO7bwgS2p3PXc48XvH+gpiu5bQY0QiIsAAiAuf9HaQAgUAcdGnLpRTUmBP5CmZd0M+UUCTI9Lyi9agtHnrKFgfNAE+mwcAqBP+tQdHQEFGI32FVwU9PU5YCMuW9sub2xsXBwOh6ft/cmtyfYfK9PCwsJBpfKzXsu8OlfJ9l0skx1T2fYS7ibfaAlm6xJBuK2lZRDongACoHvm1BgZAQWSMuiXgT8gEy4rKFt7iuCuIG5p/1NPPTW0pNf958+fP3ju3Llj9vnE1mT7T5fp7NmzF5XKz3ot8+pcJdt3sEx2TGWrjqHqG6eD1pZjpViwNgWzFT60JYLCfzZzo8/BNI6GZEygX9MRAP3yp/aACShIlIE/gNH+ZqBXkLWAe9CCsAJwEeDtfRHcFcQtdTo6V33jdNEEwulSLFibCnGg9iqFIAwKn5oQ0L0C8q0+B3wJ0jQItEoAAdAqXgqPkYCCgoJDMVq0YNGTDQrim6N6C6abgV5B1gLuxZ7a5VWttfOy2qs0TRiYOOjclsLH5lsJAd0noM9ehpEZAg0Q6LsIBEDfHqD+YAgoCPQY+DcDvgX7YmRvr5uj+mAgNdSQrcLAxIHuP9hvQqDz5QP5/OZ9Ao8Xf0VRnxsykWIgEDwBBEDwLqKBbRNQp99T4C+Cvk3naz1dqQj4bdsbYvmlIChnCcREgsBSJ7MDuga2CgGeHAjxKkmtTf3bgwDo3we0oCcC6vR7CPwnLajphrzNUb6CX08Igq1WTGxmQDcpdjo7oGviphD4IDMCwV4dNKwpAgiApkhSTlQEugz8FvA1ij1pU/oK+icU2KKC1XNjSzHQ9ezATSHw+EDXSs8IqD5BAiGYhAAIwQu0oTMC6szLX+xrudJiel9B3wK+7tg/0XJ92RRfCgJx1VKBni5oy3jNCOgJEN0QyrJAW5Qpty8CCIC+yFNvpwTUeasTV2feYsVF0FdQssBfrOm3WBdFGwGJAc0MiLl91FMT8oG9bXaTELjj+VPMBjSLNePSwjAdARCGH2hFSwTUcWvUr1+D0/uWqlHQ0RR/EfQVlFqqTH3y8AAAEABJREFUh2KnEBBzE126iXLzaYIpWSvv1vUjAVkIyRfPVC6HEyEQCgEEQCieoB2NE2h51F8EfY08LfAUgb9xAyiwEgFbGih+jEi+sQIanxUohUDLotKazpYqgVDsQgCE4gna0RiBooO2EZo66MYK/UxBReAvg75Gnp85xLuQCMg35qcTJgSKnyge34zZWBMlMPVDQpphaqxQCoJAhwQQAB3Cpqr2CahTLqZoX2p8inZb4G/fEmpoioCEgGYFLJWPFOqpjEaKL8SmXWu65vS+kUIpJHEC4ZiHAAjHF7SkBgF1vhrxK9UoZtKpBP5JVCLdNxYDxYyAmSDf2kv97eb1xyOD9UlSQpcEEABd0qauVgiUo369NliBgsPmjX0NlktRARCw2YDTWhqwpjR2j4BEgG4SZEnAqLJNJRDSAQRASN6gLV4E1OFqxK/kdeLszAT+2XySOarZgPIeATNKQsBe6m8SASwJ1OdICe0TQAC0z5gaWiCg0b46Wb02WDwj/gZhxlLUFiGw39rciBC4KU5ZEjCebNsIhPUBARCWP2iNAwFNsTY56tcvydl0MI/yObBPOUvTQkAiQLMBul5T5oZt8RJAAMTruyxbrsCvTrUh4y9b4D+oX5JT599QmRQTOQFdC+OlAf2oUO0nBnS9arZKgiByNDS/JoHQTkcAhOYR2jORgDpPBf8Gp/yL6X7r7Gt38BMbzM7oCdi1cfn8+fMHzZDaywI3r9/HB7tffsaKY4NAGAQQAGH4gVbMIKCgrxGUXmdkczqkH4OxUT/T/U60yCQC5WyAvdcNovZSbZMI2PPiE/w9gWr4EjgrPBMQAOH5hBZtIaARk0b+W3ZVfVtM92tEp5Fd1UI4L08CumZMONaeDShEwEtnEAF5XkbBWY0ACM4lNKgksOfFM4O9z58qP1Z+1U1+Norbb5040/2VKXKiXT+X7TrSTwvraYFaswG6L2DvC/WvbbwSD4EQW4oACNErtGmgUb86yZooilG/bvKrWQ6nQ2CTgIRAE7MBu688U1znmwXzBgIdE0AAdAyc6mYT0BSpgn/d9X6t9dtojVH/bNwcrUhAIsCuL80GaFmg8myArnPd31KxGZwWDYEwG4oACNMvWbaq7Az1WhPASa311yyD01sgcOTIkSVLyysrK0cPHz58okz6rNRCla0WaULgYt3ZAIleiQC9ttpYCofADgIIgB1A+NgPAQV9jfxr1q4pf+7wrwmx6dMt4C8p0FuAvzAajS5ZujAcDrUAftzqKpI+K1m+S+N0wo5FsZkIKO4NsMZWflxQwV9/WlivVg5bYgRCNQcBEKpnMmpXE8Hfgsdpm5LVlH/l6diMkHdmqgXzExbwL1mFx81Hy/Y6b1uyDErH7VyJgWiEgF1/WhKofIOggj8iwLzP1hkBBEBnqKloEoEmgr+t9x/jRr9JdPvbNx71F4G/Ris2hYDKq1FOZ6dqNmC8JFBJiJYiQN+LzhpNRS0TCLd4BEC4vkm+Zerkak77a8r/oK33n04eVkQGWrBeHo/6FcCbaPmSlXfBZgSimA0oRYDNeFS6LiUC7nj+FL8V0MSVQxkzCSAAZuLhYFsE6gZ/G/VftClXTfnzbH9bTqpQ7jj4X6hw6rxTJCa0LBCNCDABoHsClObZdstxiYDdLz97y352xEcg5BYjAEL2TqJtqxv8rWM9baN+PX6VKKE4zbLgX4zUW279I1aPy70ELTdjfvGaCTCRKsFSWQTMr4UcEKhOAAFQnR1nViBQN/jbyJ/1/grcuzhF0/Qd1CORccpEgGYEOqiufhV1RED92imhXwJh144ACNs/SbWubvDXzVU28q+0rpoUyACNGa/PdxWUl0wI6vHBAElMbpJEgF2/ekJgcgb2QqAHAgiAHqDnWGUTwd+mVFnvD/fi6TQgmwBYtlmAKJYCSpfZ9aubViUCKj0hUJbDazwEQm8pAiB0DyXQvprBX53mQes8Cf6BXgurq6v6UZ9KrVvfdU+l8+wkzQI8Yq9RbXYdF9ezNRoRYBDY+iWAAOiXf/K1L7zxSp0/eKLO8ph1mgT/gK8UjcZ9mqegf/XBxwZX3vmDg1ff/oHNdH3v2wY+/3zr9Sm7zbx2Peu6Pmjt57puE3TvZYffAARA+D6KuoV7n688ONTPq/KYXxzed177X9t3oAj4W4O9BIHSpx44Nnj9vod9LC7+roDPCaHklQhYXFw8hggIxSN5tgMBkKffQ7e6CP6hN5L2DQYrKytHXTkoyF97y7Gp2XV8bd9Dg63iYGrm8YHRaBTVfQDjZhcvpQiwDywHGITUthjsQQDE4KW82kjwj8jfw+HQefT/+v3vnWuZRMCn73efBbD6P2duoQFnkAhYWFjQb1ogAgL2U6pNQwCk6tk47SL4R+Y3nwB8w3GNf33X3c4UbAbAWYA4F9pxRkRAx8A7qS6OShAAcfgph1YS/BP3skb3LiYqn5JL3lTybBEBqZiEHREQQABE4KQMmqi7oqcvDmcAIAcT9Tioq536LXyXvDZ9nszUuUTAxsYG3wMXxweeJ5bmIQBi8VTC7bROnEf9IvWvBazfdm26Hgl1ybv75WdcsiWZR790aUy9RcDi2hX+emCSV0S7RiEA2uVL6XMIWPDnR37mMErl8J4Xnxi4jOyVz9VmC5bOAsS1zL7zSQRYG7z/gNCel8448bWy2VolEE/hCIB4fJVcSwn+8bvUfOj8YzYK/nc8f2pqkNLxu5774NTjk2iZAEhmCWCrffrbAfbZWwTc9dzjXvysDraMCSAAMnZ+z6aftDVP5+DRc1upfjoBrwCs+wAUpPa8eGag9ypWgV+f7/74+zf3ab9LGo+WXbJGl2csAj7q03Cx3H3lWZ9TyNswgZiKQwDE5K1E2mqjtovjzi0Ri/I1w0TcZfnTh4CClKarNdrf90tfO1Dg12efMpR3OBwm/5chbYblqPG9Kntdk1iW4sr1HPLlSQABkKffe7PaOrOLNmrTD5/01gYqbpaAftK22RLdSjMB8MNuOePNJYFlfN9r3xsvETBrqSVeGjG0PK42IgDi8lfsrb1M8I/dhbe2X0HKAlSnyzmqz+rttM5bLe9mj9n5iyZ2vtuntpuzLE/4nELeDAkgADJ0el8m23Sm9+NNfbWVev0I2Ci1U99afd43yPlZFFbu8ZKZl827rzzDo4EduzG26hAAsXksgPbe9qnnq7SCm/6qUIvkHBul6l6ArkRAltfSWAR43XSp+wE0GxDJZUQzOyaAAOgYeOzV6eaiN/3B73iZoenacefldR6Z4yJgyzu6Kc9rlOprYe7Xks2i6f4ZLxGgpy4QAb5XWpX88Z2DAIjPZ721WJ2I7tz2bMDvWGBQp+V5GtljJGABqjURoOCf+7WkmRa7LrxuftT3lkcDjRrbLQQQALcgYcc0AlU6EQsIXzGtPPanR0ABajzb0/RMwMncg395tVThy1JASa+91xhLRgDE6LUe2qypf3UinlX/rAWEi57nkD0SAu95z3vundZUBSkTf/s1ap+Wx3G//lDUQZXnmD+LbGMeLAVk4e32jEQAtMc2qZL1XLGPQdbxv2Kd1F/3OYe8YRN4+OGH7zh8+PB7V1dXH7fXj62vrz85q8Um/orHPu1aOGbJVwgWNxXaNbTfyvE9d1azkjlmAks3XTqLAJYC2nR9nGUjAOL0W6et1s+0qvPwqXRxcfF9PvnJGx6B5eXlN1mwP2TB/jss/eLa2to1a+UZC+bfbK/vsPQLluZuNnV/2tJBC1iaETg2HA5PWxkXlexkBTAF+4vab59PWtAfWtpv5+h+AtvFNonAWBh53Q+gWTzf7/KkutmXBgEEQBp+bM0KdRbqNHwqUEc+7px8TiNvAAQOHTr0RRbsv9XS+dtvv/0PLEift2Z9q6UDlrZtFtA/sm3HnA92TWhG4PS5c+eOWXA/qKRAr6T32m/vT8wphsNbCIx5SURt2Tv7bZV7eWaXyNFYCSAAYvVcR+3e85L3r4ldVkfeUfOopiYBC/TvsFH+N9vrE5Y+ZUH9v1qR32HpkKU3WZq2/eHLL7/sNAMwrQD2N0PAfKanbJxFwJ6XzvAXA5tBH30pCIDoXdieARr969fEfGqwzkjrkj6nkLdDAhbsH7RA/3ct/ZSlK1b1x2yU/7i9/lVLf9SS6/YLv/Zrv3bDNTP52iOgmRUr3WspgN8GMGKNbfEWhACI13ett7zCjX8XrTPihq3WPeNewbvf/e43W6D/WysrK//RXv+3Bftft7O/z5Lu0Zh6F78dn7nZMg+j/5mEuj3ouxRwU9w/220jqS04AgiA4FwSRoP02J+SR2u0vqupSI9TyNo0AQv0f/LIkSNfYcH++220/4nFxcUXrI4fsoD9NfZ6v6VGttFo5LX+30ilFDKTgIk7r99eYClgJk7ngzFnRADE7L0W2+47+remeE1BWn62hghY0P9SC/jfbel/WqD/Pxacf9yK/joLCG+11za2/3f+/PmPtVEwZVYnYD45bf73enKCGwKr807hzKgEwMKN1wa3feo3SS0zuPOT/973JqHL4ynIFL4T0dlgnf6GNfobLP1ZS61vJiyY/m+dcrUK7FrQLID3DYFaEiC9UvR7fhx2nHP91WqO6+msqATA3k/+h8Ef+/XvJLXMYNerfoM7bvzr6ds7rtbE14ft7Zda6mSzIMP0fyek/Ss5e/asgr/XbNzdH3//gNQMA9+bpv093OwZUQmAZk2ntCYI2GiQG/+aAFmzjI5FADMANf3V5ul2Lei3FCQE2qyGsgeDQewQEACxe7Dn9i8uLvLYX88+KKu3jv/DNjpv9eeXTfD9L6vnUlknr8ES8JoFCNaKdBs26zc2OrO6dwFgHcpdnVlLRU0TODmecmy6XMqrSODcuXM/26YIsLKZ/q/omy5PM5HGLEDrwKtXYHHP5zc3qlc058zeBYB1KAiAOU4K9bCt/XvdcRyqHam1q2URwPR/JBeMBZmTkTQ1u2aGEvd6FwDmeQSAQYhwY/QfsNPaEgG25IMACNjvW5umxwLtM/cCGIQ2trplHjlyZKluGXXPD0EAXK1rBOd3T2A8xdh9xdToTEAiwDJ/j6Wmtv/y5JNP6i8CNlUe5bRMwGbpuEenZcY1ikcAGDwUqkGIbGNqMQKHraysHLVm6vcB7KWRjdF/Ixi7K+Ts2bP6ae7f6a7GXGpKw84QZgDSIJmJFbaueJXRf/jOVvC3dcZTTbbUykMANAm0o7JsFuCdVtUfWmKDwDYCCIBtOPgwj4CtAf+deXk43i+BNoK/WXTNlhT0p4LtLVtMBGwWQLOsPxZTm0Nvayrti0oArO07MHj9vodJDTJY33WPz7V82TqTn/Q5gbzdEmgp+MsIHv8ThUiTzdppOUhCwMkC9Qv0tf6x5vretznxDSVTXALg3ocGr99vTiE1wmFt30PFb1+7Xow2/c/avyusHvK1GPwHTP/34NCGqzQf6n4Ap1L1e/jqH+hvJ8Wb6ftuIACcri8yBQQdKAMAABAASURBVEDA8y+BXR4/VhRAy2nCTgJtBn/Vtb6+zgyAQEScTAB4/Trgbdc+EbG1NN2FQFQzAC4GkcedwO6Xn3XPPBh4dR4+BZO3HoG2g7+17reefvrp37BXtogJ2PLdRZvFc54F8BwgREzGr+kp5UYApORND1s0xafkeMplW0PUT4s6ZidbVwTqBH8LBsdsVPjX57XV8nD3/zxI8Rx3FvK32wyARx8RDwFaukkAAbCJIq83nureudPIi2K/1tYN/lrSOefwtwNGoxECoF9XN1a7fG6FOd8M6NlPWNGpb2nZhwBIy5/O1ux56Yxz3oWFBX7z35lWNxmbCP5lS+eJAJsBYP2/hJXGq7Og5z6ANBw+zYqFaQfYny4Bz2k9PfrnPGJIl1o4ljUZ/EurpokAWyb4VVv+uVLm4zV+AuZPLec5fadZBtju79Q+IQBS86iDPT7TehYAePTPgWlXWdoI/mXbp4gApv9LQAm92qwONwMm5M+qpiAAqpKL9DyN/j2m/3n0LyA/txn8SzN3igALFEz/l3ASejW/Oi8DqL9Qv5GQ+RVNSe80BEB6Pp1pkc/o3wpy7iQsL1uLBLoI/mXzt4iA63feeSczACWYhF59HwnkXoCEnL/FFATAFhg5vPX5Io/XCnPAErSNXQb/EsRYBHzZhz70ofVyH6/JEXAW+Ldf+2RyxvsalGJ+BECKXp1ik6bxdFPPlMM7dzvdJLTzJD43S6CP4F9aIBFQvuc1PQI+jwTuvvKM18+Gp0crTYsQAGn6daJVTP9PxBLszj6Df7BQaFijBIbDofPNgD6zh402MojC0mwEAiBNv060yucLzLP/ExF2tpPg3xnqrCsajUYfdQXgOYBwLZZ8PRJAAPQIv8uqfaf/z549yxJAlw7aUhfBfwsM3rZKYLwM4FSHlg/VjzhlTixTquYgAFL17A67Ft94dceemR+dbw6aWQoHvQkQ/L2RcUJ9Aoj9+gyjLAEBEKXb/Bt922vuf9rTpv+d1wX9W8IZ0wgQ/KeRYX/LBJwFv88yYstt7rD4dKtCAKTr222WeXxx9dO/CIBt9Nr/QPBvnzE1TCbgI/i5D2Ayw1j3IgBi9ZxHuxffeGWg9TuXUzY2NpgOdAHVYB6Cf4MwKcqbwNmzZyX4nb736kfUn3hXEvEJKTcdAZCyd8e2LXqs/w+HQ+e7gsfF81KDAMG/BjxObYzAcOj+OKBPf9JYAymoFQIIgFawhlWoz/o/v/7Xne8I/t2xpqbZBHweB/TpT2bXGsPRtNuIAEjbv4V1Puv/xQn81zoBgn/riKnAg8D4cUCnZQCP/sSjBWTtgwACoA/qHda56LH+b81yvhvY8rJVJEDwrwiO01ol4Hr/T073AbQKPIDCEQABOKHNJix6rP/73A3cZptTLpvgn7J3o7fNeQDg069ETyVhAxAACTtXpnms1/H4n4C1mAj+LcKl6NoEFhcXnZYAVJFHv6Lskab0m40ASNzHu19+1slC1+k/p8LIdAsBgv8tSNgRGAGfxwG5DyAw51VsDgKgIrgYTlt84xXnP+E5HA55/K8lpxL8WwJLsY0TcB0I5HAfQONwAywQARCgU5pq0qLH+n9TdVLOdgIE/+08+BQ2gYWFBedlgLAtoXUuBBZcMpEnTgI+63T2xdevgcVpaKCtJvgH6hiaNZWA1+8BXHP/+yJTKwz2QB4NQwDk4ee5Vo7X/+bmI4MbAYK/GydyhUXA50bAsFpOa6oQQABUoRbJOR436jDt16BPCf4NwqSoTgn4DARuv/bJTtvWZWW51IUASNjTrvcAuN74kzCqxkwj+DeGkoL6I+A0IFhYe6W/FlJzIwQQAI1gDLOQxTfcvqBDngBoxIEE/0YwUkjPBKw/cLofSE8C9NzUlqrPp1gEQKK+dg3+Mp8ZAFGolwj+9fhxdpwEfPqZOC1Mu9UIgET9u+jxCCA3/tS7CAj+9fhxdlgEfJ4E8OlnwrJyemtyOoIASNTbPo8A+tz4kyiuymYR/Cuj48RACfgMCBYclxkDNTX7ZiEAsr8EBk43/Az4dwsBgv8tSNiRAIHxgMCpX0jvSYAEHOhhAgLAA1ZMWV0fAXS94Scm27toK8G/C8rUAQEItEkAAdAm3R7Ldr1Dd2Nj47d7bKZz1UeOHFkap2V7XXY+sYWMBP8WoPZYpF1PW6+tpR6bEkzVrgOD1B4FDMYBHTUEAdAR6C6rWfRYlzMB4DTV12X7VZc65cOHD5+wYHvBXjdGo9Glcbpgr8U+239pfPyE5e9EFFh9R61zPKU2+iZjfez8+fOnfc8LPb/54acsfXno7SzbZ9fKkrX3hKVLlnZeW8U+239pdXX1lPxdnpfTq33HnP44mOtAIyd2MdmKAIjJWy201eeGnxaqv6XIsnO2DuiSHTxuwXZWYF8aHz9u+S+ow9b5dl4rm4KB1Ufwn0z3J4zPf7bA+Y7Jh/vfa9fGsrWvEJLWmuOWZo32l0ywFWJP51g6YfnZJhDwGXBMOD2gXfk1BQGQoM8XPR4BDMl8dbIWyIvAX6Vd6rDtfM0ONN5ZW3ArgkHFdiU58t/JwsTRl9i+j5kf/82hQ4futPdBbBb4l8x/xcyRNWhW0LfDEzedc9zs0uxA49fWxBp73ukzMIi1v+kZcRDVIwCCcEOzjfB8NKf3JYCygzYKGpXZS61ts7NWubVKGp9swYPgP2bh+PJNFkCeN25/zzF/a9nsGlg2UXjJxMmsmSTX+strKwsR4AollXw52oEAyNHrAdlsHfSSddAXGuqgt1pWlKvyt+70fW9BjODvC83y22zMPebTf2uj5l+y2YBV29X5Zr5X8L/QQsXH7bpoo9wWmkqREJhOAAEwnU0WR86ePdvrDMD6+rrW1DWyaoN3IQKqFmydPMG/KrzPnPeFCwsLZ00I/Mi73/3uN39md7vvWgz+RcNN3CzrnpPiQ5r/OfcLnjOOgdLKs1kIgAT9vrj2ahRWWYBtY+S/0/Zi/XfnznmfrW0E/3mQ/I5/tS0LvGBB89v8TvPPbcG/lvBzrdFmOY6asGE5wBUY+YIjgAAIziWdNshZ5TfdqnGAbWJddm7TNFpTfXMzjjMor52jmYnxHvcXCwpZ3PDnTmR7TuNz0oLmJ00IfOX2I819Gs8qNVfg7JIekeCYnSW+o33PDHZNLNf6EAC5er5/ux/psgkW0J1uMCT4d+KVzzUh8GMmBH7ehMBfbLJGC8bL5utOhOW43Xpc0OnaGudP7iWWGcfkwDdgEAKgAYihFbF4PewlgHGQ7bKTlou0FHBUb6alcbsY+U8D1Pz+95gQ+G8mBL7nS77kS/5YE8Xb6L/zYGw29P7rlE2wm1CG0wxh6P3NBLt27Mr3IwIgX98PrONy+oK3gMh79L++657B6/c9XKS1fQcG1/e+zbtZNjKcGhwsCD1qxysFf2vI5YWFhXfZaPZUjsns/3xLdbavv3Hjxgvmg6+vU4jONR96C0tdS7q2rj1wbKBrS9eayvJIuufAu16P8skKgVYIIABawdpvoaH/PrdPJ63OWJ3zq2//wOD1+00AWLr2lmODqw8+NlCHreMetPWb77d01BZ4PmxlfNBS1U3TwEdNUGWZDFoTT3FoBuB7zBeaEXiPlem9aQbH5yRdO7qudC3p2lq798Dg5rX16EDXnE9Z5vt3+eSPIa/Z1NcAoVM8OVeGAMjY+zZq7fwL7ttJf8pGZeqcJ7lJHfbVBx+ddGjqvtFotE0AWMDRb/P/takncKBrAron4OfNLz9m18rn+lRu17NzEC6Dv1531qF9uuYkMHcem/bZR9ROKyPW/aEPOGLl2kW7EQBdUKaOTQLWUTqPFjUK0/Ts5skT3qiz9umotxZhQUZ/wMZ7OWJrGbxvjcBX2rXySRMBJ11rsBHrNnE36zwJy1nHdeyGLTPNu/6Ur0y6AbF8n8KrCarOBwjdc8u7RgRAgv53/W1u6zB/u2vzrVP/HNc61/Y95JRVHbVTRstkNm8dJX6L7WILmIBdL99mQu0FEwJf3WQzXQK7xKXPtdVk+ygLAl0QQAB0QZk6KhFQB+xyomu+CWXdNWEfu8Ij8GYTAj+yurp69tChQ184o3lOs0tr+w7MKGL7oRt3ut9sur6+7lT/9hri/+Q64AjR0tzbhADI/Qro2H5bgw+pk9zdsflUFwABnzXrnH/m1mbLOp8hDODyyKoJCICs3L3dWBtVOU/Hbz+z+iefdcXbr33CqSLXfCpsR/0/p32k4An8lgWjrzl37tyRp59++pdntNZpzdpnxJrzj9y49g/ru+6e4ZKQD9E2BADXQKcErCN3HlXsfvlZp7bd9pqbUNhZmIkBPQGwtnM/n8MhYNfLtz/11FNvOX/+/I/Oa5XldRQArwxcReNtjiJUbVtcXHSqX3lJEAiBAAIgBC803IaQFbkF3Yuu5u6+8szcjlod+Z6XzrgWObAliI+Wmc+ePfuLFjS+v/zMa1AEftx881YL/FN/vKlOa+94fv5vPu158czc629HG5ISAPZdCWm5bgfq+h8pYTBAAGR8FfT0BffqJNVRqyOe5KbdLz8zuOs5v9/vsVHaNgFiAeabrOzHLLGFQeBXrBlfbKP+rzLf/Ka9d97Mt86PDC6+8crg7o+/f6DXSRXomvMRljZdftoEpde1PaneGPeNdt8TY7NpsxFAABiE1LaQv5DqJG1kty0Iz+KvDlodsTrrvS+cGhQds43Mis8Oo7itZU/rpC3YPG4zE/u35vV5b/a8YulYxulXfXhNyft7tv8bzBdfYOlJe19l8wrAurbueu7xQkSW15ZedW3pmvNpgInpzZkln/NCzmvfl4RnAEIm313bEADdsQ6uph6/4D/sC0Od9W5bElDHrKTPvmXM6qQlTKqKAON4j6XjNmI9nWMy270C7wS/fe9tt932Fgv83zvhmPMu+dBEmLO4VMG6jrSMVF5betU+HfNJNvvgVa9P2aHnXb+dmwBD99G09iEAppFhf2sE1Fn6dtRNNEbBeVY5CiBVRYCVu3T48OFL9srmTuBJEw9fYIH/G37u535OMwDuZ07JadfWsSmHWtttNqQ6/Z/sDEBrF0NkBSMAInOYS3M9FHkvX3AFWuuonddrXWyel8cEh1NgUNsQAfNo1j7+mxY0v8oC/xefO3dOa/61CywLkP+sbD3dUe5q/dXq6/Rabt0gKsiGAAIgG1eHZah11Bet4+yko7bgf3He6H8rHWub/rxv1XsCmAnYCnPHe/P5cQv8b7XA/+M7DjX20epQQK67LOHUHru2jul6ccqcaKb13bEtASTqiApmIQAqQAv9FJ8v5JEjR3qZBRBDddTWgba9dnrZgv9B1eeT1KkzE+BDbG7eH11fX3+LBf5vn5uzZoax77x97lutXb/FPR++58WQv89+IQY+qbQRAZCKJyO0Qx21LQVoar6t0ZpG8iq/Eh21DxFQCd3Wk355NBodsVH/13zkIx/5ra0H2nwv35m4rOz7eW2zsi+amGkM6pRAAAAQAElEQVSt/Hn1h3R8tCuuxwBDYtd3WxAAfXsg8/rVUVuQPajRVMMoLlvQ2W/l15phsPMlIlgO8HSO+VOPRv5988E7n3766XOepzeS3WZ+Ttu1Jd81LTBPWtmtzzA0AqF6Ib3NDFZvMmf6EkAA+BKLIL+nIu/9i64gawFD67ZKTRA+aYFHHX8TZQ3UvnEgqVJejvcEfJdN9z9gQfL7qgBr8pyx7w5qxN5AuZetnGN2bZ1ooCyK6IUAlW4lgADYSoP3vRFQR62OdRxoKwkB65wv6nyV07Qhap/KrlhuFiLA+OuPK32e8f8HNup/rSKrxk+T70yMHDT/VRUCmkEoRKWV08mNq41D8CzQBJzzwGCdPwbkSTec7AiAcHzRWEuu732bc1k+X3TnQmtkVGdtAeSEddb7LaDo1/XmTeGXnfPQOueDOr9G9TNPVdlq18xM0w+mLgK+wvj/VfPdr01H0O8R85+eBpEQ0OzQSbu+Zl1bxXVleTTi3292Meqf4r71iO4BmGJCtrsRAIm63vVLaQHtXSEisM5ad+/rLuuD1vkOrZ37x0kdeLFP+y112jmrXWpHRWZJigDzwZdZ+smKTDo/TT609p4wwVJcR/LnOOna0vU0tON6VZ4sRvw7nWBLck4zAK79zM7y+RwGAQRAGH5ovBWu03Kj0cjpi954Az0LVKc9ThftddbIzbNk/+xWPzcG+mML9gz5c5x0bWnkH2xbu2qYzXw4DQxc+5mu2j27Ho7uJIAA2Ekkkc8jx7/QZUp/ORGTOzVDAUOjxoqVJjkTUJEFpwVIwLVfuOGx3Bigmdk3CQGQ6CVwfe9bnS3jRz+cUW3LiAjYhoMPiRBItT9IxD2NmoEAaBRntIVFsQwQIl1EQIheoU1dEbhxp/sNx121iXrcCSAA3FlFlXPkcWduaE8CRAXaGosIMAhsyRAYjUZHXY25Hs0SgKtFeeVDACTqb58vpq1lO93wkyiqRsxCBDSCkUIiIsATABE5a0pTEQBTwKSw2/ULaoqfJYAGHI4IaAAiRfROwPUJgN4b6tEAsk4mgACYzCWJveuOv9DlesdvElBaNgIR0DJgim+dgGt/wPp/665ovQIEQOuI+6vA9VFAtZA7f0WhmYQIaIYjpXRPwKcfWL/97u4bWKlGTppGAAEwjUwC+697PApo5rIMYBCa2hABTZGknI4JOPcD67sRAB37pvHqEACNIw2nwBFPAvTqDERAr/ipvAKB0Wjk/MNgPv1LhaY0dgoFTSeAAJjOJvoj1z0e0eFJgHbcjQhohyul9k/Ap3/pv7W0YBIBBMAkKgnt40mA/p2JCOjfB7TAjYDrEwCu/YpbrW3mouxZBBAAs+gkcMz1Tl3d+etzA1ACaDo1ARHQKW4qq0hA/YDLqWv3PuSSjTyBE0AABO6gus277nEj4Pr6uvP6X9125Xg+IiBHr8djs88AwHVg0bf11D+bAAJgNp/oj67de8DZBu4DcEZVOSMioDI6TmyZwIifAG6ZcHjFIwDC80njLXJdr7P1v6M+o4DGG5pJgYiATBwdn5mPuDTZtT9xKavdPJQ+jwACYB6hBI57Ttc5PwecAJreTEAE9IaeiicQGAt/p+/+Guv/EwjGuQsBEKffvFrtcx+ATQNyH4AX3eqZEQHV2XFmswTse+/8FwA9BxTNNtSjNLLOJ4AAmM8o+hxrHvcB2DIAfxmwQ48jAjqETVVTCfh87697/L7I1Ao5EAQBBEAQbmi/Ea7rdnoMaDwd2H6jqKEggAgoMPBfTwT0fdf33qX6eIK/izXkQQBkcg34TNvxOGD3FwUioHvm1HiTgM/3/Qaj/5vQEvkfAZCII+eZseZ3447T3cDz6uS4HwFEgB8vcjdDwEb/Tjf/qTafgYTy95Wo140AAsCNU/S5NHXHMkD4bkQEhO+jBFt43MUm9R/qR1zykicOAgiAOPzUeSt9pgU7b1ziFSICEndwQOZp/d+1Oeu7Yvnzv64WkQ8BkNE14LMMwK8C9nthIAL65Z9L7V6P/7H+n9xlgQBIzqXTDVrb5/4HPDY2Nvg9gOkoOzmCCOgEc9aV2Pfc+bHf1+9/OApWNNKdAALAnVX0ObWGp+RoyJLP9KBjmWTzJNCnCFhdXf1rns0le0QE9P0eDodOQp+1/4gc69FUBIAHrBSyvn7/e53NsNGB081BzgWSsRKBPkTAysrKl5r/f+p973vfYqVGc1LwBHym/31mD/s1nNp9CCAAfGglkHft3gMD11kACwD8caBAfN6lCLCR/9+wkeHPmOm3v/baa3/FXtnSJOAk8NVfqN9IE0HeViEAMvS/z7O8PqOEDFF2anIXIuDQoUNfZsLvp0vD7P27y/e8pkPg8OHDJ1ytWfP7DRHXYlvJR6F+BBAAfrySyO35hX5Ea4VJGJ6AEW2KAAsKX76wsPCfdmBiBmAHkEQ+Ov/YF9P/iXh8ghkIgAlQUt+lG3o0redo5xK/CeBIqqNsbYgAm/b/Smv+T1jattlSwOebMNi3bScfoiYwFvROv/6nfkIpDoNppS8BBIAvsUTy+84CJGJ2MmY0KQJWVla+2qb6f2waHDvGMsA0OBHu91nW8+wnIqSRd5MRAJn63+c+ABsFLo9HDZnSCtPsJkSAjfz/pvn3R2ZZaMsCLAPMAhTRsfH32OnmP5kV07P/ai/JjwACwI9XMrk9lwEGNgp07jSSgRSBIXVFgPn1h+eZaXkQAPMgRXLcZ/TP1H8kTq3RTARADXixn+ozvWdBgEcCA3V4TRHgYtWbDx069KddMpIneALOQt6nf+jfalpQhQACoAq1RM7R3b0+Kt9n9JAIomjMaFsELC4uch9ANFfD5IYe9nj0TyUw/S8KaaeoBMDul58d7HnxDKkhBruvPOt7dfNIoC+xDvO3KQJsBohlgA592VJVzo/+aYkwpr42lLbedu0TLbmunWLjEgBXnhnseckEAKkxDotvvOJzZfFIoA+tHvK2KAKYAejBn01VOb75z+nRP9V5uwUy+lr/WCNu4hdLikoAxAI15XYOh0PnNcSUOYRsW0siYO/q6upfCtlu2jadgM3gfNP0o7Efof1VCSAAqpLL9zz9lcAvytf8OCxvQwRYEGEZIA73b2uljf6/yHz3jdt28qF3AqPR6LP7bkTvAsBGlHf1DYH6/QjYhfsDfmeQuw8CEgH2/fr2ButGADQIs6ui7Pv6HV3V1Uc9sdZpouzP99323gWAQXBel+obFvVvEvhTKysrRzc/8SZIAuajf2jfr29rsHF/+T3vec/eBsujqJYJ2Ohf/eu7Wq6G4isQWFhY+HMVTmv0lN4FQKPWUFhnBGxkeXzcuXRWJxW5Ezh8+PCj5qN/7X6GW8719XVmAdxQBZHL/HUqiIa01oh4CzZxzhKAQbgcrwuzbvmSTS0yCxDgJWAj/39kzfqgpTY2BEAbVFso0wT6sonA5RaKpsgGCFjsu9pAMbWK6H0GwC7Q3iHUIpj3yfwuQGD+t5H/++079Z1tNcs6LR4HbAtuw+WaQE9+9N8wsuyK610AZEc8LYOZBQjIn6urq//EmvMvLbW2mbj4MyYy9rdWAQU3QsB8dMIK0vq/vbBBYDIBBMBkLux1J8C9AO6sWstpHf4/tdH5P2+tgu0FswywnUdQn2zqX4E/g9/rCAp7lI2JSgBce+vXDV59+wdILTP4/c95n9fFbFON3AvgRazZzBb81dn/s2ZLnV6aCQ2WAabj6f2I7/fxjbs/b6DvPOl9tTl8+rMP9e5/nwZEJQBGt9050B+vId3TKodP/8nVonyPC4lZAA9YTWf9rM/6rO9eWFj4GzY9/31W9m9YanWzepgBaJVw9cJ9R//qS197698e6DsfWwqxvdfv/gvVndfDmVEJgB74ZFvlpx445mU7jxt54Wo084c//OGrZ8+e/Zlz5879/aeeeurPWOFvtvS1ln7c0u9Yanr74ysrK5/XdKGUV5+A7/dw7d6H6ldKCdESQABE67p2G66/Bra274BzJTYqXLapaN145HwOGdshYCLgkqUfsvRVlv6E+eYdVtNjlp609Ial2pvNOLAMUJtiswWYKDtqvnZ+7E+j/3j/5G+z7HItDQGQq+cd7H79vveyFODAKfQsNjPwcRMCj1v6YkufZWv4hyxQ/Atr9y9bqrRZGSwDVCLX3knmU6/H/nxn+dprOSX3RQAB0Bf5COrVCMF3itD3BqQIMKTWxNH58+c/YqLgW00MvNOCxt1moO76/Hf26vPHzP/KO97xjtvsHLYACPjOvr1+38MDzfIF0PRKTeCkZgggAJrhmGwpmiKUEPAwUDcEOk9DepRL1hYImBD4XRMCP23p71r6U4uLiw+YKPg6q+onLV2xNG1707333ssswDQ6He4/cuSIvm96EsSpVn2f9b12ykympAkgAJJ2bzPGVZgF+AnrlPQscjMNoJTOCDz55JMvmCj4ARMDX2Hpj9tU/+db+hYTBeesETcsbW422+N1H4CuCY1UlWy9+oKSvb+kpPerq6un7PWo8m1WwpuZBMTK/OA19e/7fZ7ZgF4OUmlTBBAATZFMuByNFjynCz/bOqXTCSPJxjRbLviYpX9louDInXfe+UfM8MOWPmDpVyw5zQBYkFq2wH7BrolLdo5GqsdNUJS/Uy+huKTPJjR0E9sp5ZMosMRNpQZs1ja+618MZ2XbPMbofxMFb4wAAsAgsM0noBuG1HnMz7mZ413WgX/55ifeRE/gQx/60LrNCpy39I8tfcGuXbuOzDLKAv/SOPBfUICflXfCMQW143YNXbJyNMU9IUveu4ytBJMXG32PY6dG+5sjgABojmXSJSn4V5g6PGWdtzrypNnkatwTTzzxyjTbFZw0kq8Q+HcWqb83ccGEALMBW8joe2Vs/ab+9x3gxr8tDHk7GCAAuAqcCWgpQELA+YTBYLcFgZ/wyE/WBAhoLd83ODmYfVzlOuTLIst46t/L1mtv8ftxL6/CO8tMRU0SQAA0STODsq4++Ohg9KY/6mPpFzJ688EVd14Faa3lt2GFylX5bZQdU5n6PpnA8pr612N/MdlIW7shgADohnMytWgG4MYdn+trD48G+hKLML9NSy8rSLfZdJWvANhmHSGXLcbWPt1IaS9um27g1eydW+6wc9G6ZgkgAJrlmUVpo9v2eNtpSwHcD+BNLZ4TLDAVa/UdtfgRq89rBNxRu1qtxmz2ZizBfvVB/Qp0q02j8EgJIAAidVyEzfbuvCK0MdsmV1mTrgFryerzGgXXqCuYU81mr5v+1PC07vqXRaQmCSAAmqRJWfMILLGGOw9RfMdtZFo+099Z47UGrno7q7DnilZWVr5LNvs0Q+v+mv73OYe8eRFAAOTl796t1RqudWZHe28IDWiMgPn0kSqFaXq6ToCyEXEWswAmmj9gwf8bfRiLa2rr/j72k9eNAALAjRO5GiRgnZluCuT3ARpk2mdRJgC81uMVnK688wcHr779AwOtT5fvNWL1scOuAWwEzAAAEABJREFUo+SvIc1yGN9v8eEiYSWuPueQN08CCIA8/d631dwP0LcHGqp/PJvjHIjX9h0ogv7O6hW0NGK99oDXs+pLCpA7y0rls9lW6XuS5rp/Kl4Nyw4EQFj+yKk1S4cPH9Zvw+dkc9a2auQ/78do1u71+7W60WjkNfsQiwOqBn/NoohzLHbSzn4JIAD65Z977dwUGPkVsLCw8C5XE9b2PeSU9dP3P+yUT5lsGeBz9JpSUvBfX1/XHf/OMyuyv5xF0fvUEva0QwAB0A5XSnUkYOubR1dXV9XZOZ5BtlgJ3Nj7Nqemr++62ymfMtkMgFeQ1DmhJwV/EzbeMxtXH3w0dNNoX2AEEACBOSTH5kgE2HIAf+wlQuf7BGCNUF1MVD4ll7yp5VlZWanylxMHN/Z+7iBdZql5ORx7EADh+CL3lhxHBMR3CdgSwGXXVt9+7ROuWQeLb0z9Q4PbyvCpf9uJAX6oGvwDNIUmRUIAARCJozJpJiIgMkfb7M1vuzZ5wTGo7375Gdcik8lH8J/uSo60RwAB0B5bSq5G4BFmAqqBC/2sPS8+4TSyVz5XW3wEiGuZXecj+HdNnPpKAgiAkgSvoRDQTV2PWKfIrwWG4pEZ7bAp+NMzDm87pGn9O54/NVUE6Phdz31w6vFthY0/+NQ/PiWoF7vOK635B2VEq42h8DYJIADapEvZA88fdimJLQ2HQ5YDShoBv549e/ayjcIvujZR9wHc9dzjgz0vnhnovYK+XvX57o+/v9jnWpbyqX69xpgI/jF6La02IwDS8mdw1ox23VP85GuFhhUzASwHVCDX8Skm1j7qU6WC/p6Xzgw02lfQ16s++5ShvFav8+yD8oeUCP5u3iBXuwQQAO3ypXQjoMeT9Lvv9tZ3kwhgJsCXWsf5+5qGNwFwsmNTG6mO4N8IRgppgAACoAGIFDGfgETA1Qcfm59xcg5EwGQuQezVNLwtA3j9iH/dhlvwP61665bT5fn6hT+Cvw9x8rZNAAHQNmHK3yRwfe/bqt4ToDKO84uBwhBmWlxc1H0Azr8JUNOKy+fOnetUcNRs70DBfzQaccNfXZCc3ygBBECjOClsHgH9sZeKNwYObJR59DB/QGge4l6OazRuSwEHu6jc6okt+C9b8NcfvtKSVheIkqgDI9ongABonzE17CBQRwRYUcVfEdSIyt6zBURAIsBEWqvB2YL/QatHsw0BWT69KTblf9SC/4XpOTgCgf4IIAD6Y591zRIB+tOlFSEsqVNFBFSk1+Jp58+fP60g3UYVKjem4G+zVSeGw2HlP3RV456ZNvB3XCbVdUEAAdAFZeqYSOD1+x8e1BUB6mQnFs7O3ggoSFuw3m8NaOqegMtWXmwjf436jxsD7628YVb3zHifzAkQ8CCAAPCARdbmCdQVAdYinhAwCKFtJgKKoG3t0qN6VYWAzjv51FNP7bfyopj216yUTftXvtlPwf9TDxwb5B787bph64AAAqADyFQxm4BEQM3pTomAS+p8Z9fE0S4JWNC+bMH7hEbvujfAkmsQ3wz8Or/LNtepy66/4mY/m/ZfrlKOgr9+L4PgX4Ue51QhgACoQo1zGiegTk+dnzrBioUX9wWwJFCRXounSQjo3gBLB00M7Ld00MSAbhY8acFSv+anWYKT2m8Bf2hpv6UTLTap8aJ13em+lKoFl9d/1fPTOg9ruiKAAOiKNPXMJaDgf/XBRwd6nZt5cgY9ZqXZgKiCx2RT0twrMWDpoomB0wryep5fr0raH5vVNupf0pS/tbvSer+dV0z3X63+I1kqggSBSgQQAJWwcVJbBBT8r5oI0IioRh0SASwJ1ADIqfMJWODXI36XbBaj0pS/atB1fpXgLxSbiTfdEUAAdMeamhwJSAToRqgaTwioJpYERIHUOIFy1G+Bv/IjfmqUrm+Cv0iQ+iKAAOiLPPXOJCARsLbvoTqPCar8ckmA2QDRINUmYMFfN/pVvsu/bIACv25+LT/zWhLgtUsCCIAuaVOXFwGJAHWSGil5nXhrZmYDbmXCHk8CW270k7D0PPtmdl3TCv6a+r+5h/8h0B8BBEB/7KnZkYBEQM0nBFSTOu3y3oBl7SBBwIWARv0W/Dcsb+Ub/ezc4mY/XccEf9GYnNjbLQEEQLe8qa0igZsjp0frLgmods0GnLIOnScFRIM0lYAF/uIO/zqP95WFaxZLI//yM68QCIEAAiAEL9AGJwISAZoNUGfqdML0TJuzAQiB6ZByPqLrwgJ/rTv8xU/XrAK/rlt9Js0iwLGuCSAAuiZOfbUJqDPVVKo615qFFUJgdXX1lEZ7Ncvi9AQI2HWwbMG/9nS/UGiqX9epXvWZBIHQCCAAQvMI7XEioOB/9cFGlgQGGxsbep77AkLACX2SmSzwNzbdL0CapbrK8/1C4ZzI2D0BBED3zKmxIQISAZoNUGfbQJFLpRCwEeAJBYQGyqSIwAnIz/J3E9P9MlXXpAK/rkt9JkEgZAIIgJC9Q9ucCKiz1VSrOl+nE2ZnKpYFLCBcUGCYnZWjsRLYGvjNhlp399v5xSYhquuQKf8Ch+d/ZO+DAAKgD+rU2TgBBf+rDS0JjBtXCAETAZcsnRjv4yVyAm0E/pvX3mMDCdHI8dD8zAggADJzeMrmqiNWJ9zwKAwhkMBFo8CvezxsZueSmdPIiN/KGTDqF4X6iRL6IYAA6Ic7tbZIQELg6oM2Irvv4Tp/WXBnCzeFgAKJBRR+TGgnoQA/m5+W5C8Fft3j0VQTN6+x+x9uqkjKgUDnBBAAnSOnwq4IaDbgarPLAmr61psFL+kvwmknKSwCWraxdKnpwC8rGfWLQpOJsvoigADoizz1dkJAIzUJAS0L6H3DlS7pL8Ip0FjiyYGG4foWp9G+/GCpfI5fsza+xUzNr5v7dB3pepqaiQMQiIgAAiAiZ9HU6gQU/FuYDSgbpEBzXKNNmxG4YOloeYDXdglsCfrFaN9qa2x938oqtpvXzmODq7aspPfFTv5rjAAF9UcAAdAfe2rumIA6b43eilHcfe2s3dqMwLIl/a2BS1p7tgDFvQIt+FkiS3wluqx4BX2JMHvb3FZcL3ad6HrR6L+5kikJAmEQQACE4Qda0SGBomO//+GBOnat57ZU9bZ7BRSsFLRaqiv5Yk1ILVnSz/Se0BS/RFaTN/VtBVhcH+PAL8G49RjvmyZAeX0SQAD0SZ+6eyVQdPTtCwHZWIgBBS0LXsXMAGJAWGYnC/hLxuuEsbqgkb6lC3aGRvv20s4mQVgIQ7su2qmBUiEQDgEEQDi+oCU9EdgqBNb2HWi7FdvEgIKbgpwFu+yXCoyBfo//qHhY2rCAXzyzb8KpdTYE/rYv+8nls7dfAgiAfvlTe0AEJASuveVYsTTQgRCQ5XqKQMFNNxDqp4c3LPBtzhBYQNQx5UsymX2b0/oSQgr4FuxPmbGtjvKt/GKTvxX4r7zzBwea6tfn4gD/QSATAgiATByNme4EFAg6FgJbG7c5Q2ABUaKgEAQmDPSYYbSCQMHegnwxurdX2VWM8GWjGX/cAn9ntsm/CvxM9Rv5Xjcq75sAAqBvD1B/sAQUKEohoIChzz00thAEVu+2WQITBIUwKG8utAC7bKnxO+GtXudN9Y9TebNesX5vbS2CvQX5YnRvr50F+62Nl//kRwL/Viq8z5kAAiBn72O7E4EicNz/8ODqg48Orj1wbBDAI2EK9IUw0J3wFlBPaSRtSX+4qEgaZUsclMmCsILxUdtfJAvUEgxKmobfmrTvllSep3KUVK7t028eFKN521cEebXBUnmzXqcj+2nOlP+uPvhYsbSjqf5p+djfLQFq658AAqB/H9CCSAgokKzde8CEwDiY3NfObwnUxFGIAxMFyxIHZbIyFYxP2f4iKUiPU/EDOva+fNUd97ek8jyVo6RybZ9+86CX0by1YeYmX5WjfY34AxBtM9vLQQj0QQAB0Ad16oyeQBFgbFZAwSWQWYHomdY1oPCJibKto33tq1su57dBgDJDIIAACMELtCFaAgowO2cFGG12607xlgiTGNMUvz532wJqg0CcBBAAcfqNVgdIQGJAAagcgSooEYzacVTB2kb7eoRPvCXC2qmJUtsgQJlhEEAAhOEHWpEYAQUoBSUFJ41MJQY6+m2BxEjeNEc8taavpKAvphJbN4/yPwQgUIUAAqAKNc6BgAcBBS+JgfKRwlIMMDswHaKYiY8CvoK9kgK+0vSzOBIHAVoZCgEEQCieoB1ZEFBgK8VAOTugVwU6BbwsIEwxUmzEQTwU8PWqgK/9U05hNwQgUIMAAqAGPE6FQF0CCm4K/Ap0Cnjl9HbKswSyWUnBXmmr3eIgHnW5cn64BGhZOAQQAOH4gpZAoCCg4DhplmCrKIglSMoWtVWBXu3XyL5MCvZKOl4Yzn8QgECnBBAAneKmMgj4EyiD6FZRsHXUrPcKrrrJUEkBVef41+R3hupQXapTAV5J7VB7FOTL2Qx9VqBX+3WOXy3kTosA1oREAAEQkjdoCwQ8CSigFkH43gMD3WSopIBbBuAyCOuzko4pKVCXSYFbqfy89VV5dyaVqVSWpzoV4JUU5NUetcvTFLJDAAIdE0AAdAyc6iDQNQEF4zIpOCspUJdJgVup/Lz1VXl3pq7bT33pEMCSsAggAMLyB62BAAQgAAEIdEIAAdAJZiqBAAQgkDsB7A+NAAIgNI/QHghAAAIQgEAHBBAAHUCmCghAAAK5E8D+8AggAMLzCS2CAAQgAAEItE4AAdA6YiqAAAQgkDsB7A+RAAIgRK/QJghAAAIQgEDLBBAALQOmeAhAAAK5E8D+MAkgAML0C62CAAQgAAEItEqgdwGwsbFxuVULKRwCEIAABHokQNWhEuhdAPiAWXjjFZ/s5IUABCAAAQh0RsAnRg2Hw4921rApFfUuABYXF5kBmOIcdkMAAhCInUBO7V9cezUqc3sXAEbLWQDcfu2Tlp0NAhCAAAQgEDeBEJa/excAZ8+edRYAcbub1kMAAhDIjUBe9i5ed58BCGH2u3cBML48nETA7ivPDBa5D2CMjBcIQAACEAiJgGJUSO2Z15ZQBMC8dm4eX3zDXWFtnsQbCEAAAhDonEBOFS56Dk5t9vti33yCEADD4dAZxO6Xn+2bGfVDAAIQgAAEthHYfcUrNjnNem+roIUPQQiA0Wjk/DjEba99ogUMFAkBCEAAAs0SyKs0z8HpD4dAJwgBcP78+dMGw0kRaZpFyfKzQQACEIAABHonoJik5NqQhYUF51lv1zKr5FuoclIb5/gsA9zx/Kk2mkCZEIAABCDQEIGcitnz0hM+5l4OYf1fDQ5GAPgsA9x+7ROD3S8/o/aTIAABCEAAAr0R0Mjf8+7/IKb/BSwYAeCzDKCG73nxCR4JFAgSBCAAgeAI5NMg3xnpEH4AqPROMAJADfIBc1N1ed11qSpIEIAABCAAgUYIaDZayaew8WDX55TW8gYlABYXF0/6WLrnpTMsBfgAIwGAcTAAAAhRSURBVC8EIACBDgjkUIUGoXc990FfU71inG/hvvmDEgC6MWI4HOqJAGc79j5/iqUAZ1pkhAAEIACBugRuBv/HfYu5/NRTT53wPanN/EEJABlqAkAKyemRQOVXuuu5xxEBAkGCAAQg0DuB9BugdX+JAE9Lg7n5r2x3cALAZgEU/L1AyRGIgNKlvEIAAhCAQFsENO3vu+5vbQlu9G9tGgQnAIpGLSxoGUBCQB+dkkTA3R9//6CCY5zKJxMEIAABCMwnkGoOxZiKwX+wsbGhme3g0CwE1yJrUJVZADut2OSgPS+eKd7zHwQgAAEIQKAuAQ0sqw4wLfhfDOnO/60sghQAaqBulhA4vfdNejpAQkBO8z2X/BCAAAQgUJVAeudpQKl4UtGyyxb8D1Y8t/XTghUAsnwMzmspQOcpKfjLaUqautE+EgQgAAEIQMCFgH5tdt8vfe1AA0qX/JPyLCwsHJu0P5R9QQsAQTKAUk+VRIDOlxDQ1I2EgByKGBAVEgQgAIHmCaRQouKEYoYeMa9jj2KXLWcH8Ud/ptkRvAAwgJdtKUA3UFQWATJeQkAOlWMlBjSto31KEgVKykeCAAQgAIF8CCjg733h1ECxQSN+xYkG4sFJi11BB395OHgBoEbaUoCeCvB6NFDnTUsK+prWkRBQkuNJ7y++AC4cdv3u/5iG9pb9+hvZ+nKRTg1gAAPfa+CWL9SUHYuf/r8BXF9x+Lfs8xXslRTw9cd8Ggj6hXdswHpR97AVHwL/LwoBIIYCamC1nnJZn9tIugBIrxQ/qjSLw8If/r4zfn2xSM8MYACDKteA6xdN38kq5ed4jgaA6t9c2XrmO2kDVi1be57WT/ZoBIDwGNjTtq7SqghQPSQIQAACEPAjkHtui00HNVCNiUNUAkBgta4i0Pa+tZkAK5sNAhCAAAQg4ELgsmKSYpNL5pDyRCcABM9A62cV9w89/3CQziVBAAIQgEDTBPIsz5altd6/32JS8Df8TfJQlAKgNOTcuXPHpLzsM7MBBoENAhCAAAS6IWDB/5gtS0ez3j+JStQCQAZJedm6y345wz4jBAwCGwQgAIEuCWRW10mLOUML/no6LWrToxcAJX05w5yy3z7X/s0AK4MNAhCAAAQgsElAS84247zf4syJzZ2Rv0lGAJR+kHPMSZqWOWmzAlqXYVaghMMrBCAAgcYJpFugYkgZ+LXkbDPOScWT5ASALkU5SULAZgX0WMZ+CQI50o4l5Tyzhw0CEIAABBokoIBv8UL3l+1XDEkx8Je4khQApXHlqwkC/TnGrWJAvyVwcuzoi+ZsZgpKWLxCAAIQ8CAQadbL6v+VrP2aLT5mcaAI+gr4FvhPW9xIfsCYhQAwB29u5lSJgdOaIRg7+qA5uxAHtm9IeqoyA5tp0fpY5fNhX5097PJhZ9+zg0r4vJbP96v/VzKOJywGnFay+JB80N8MhvYmOwFgNrO1RCC3L09LGCkWAjMJ2PfsotLMTJ0dpKKYCSAAYvYebYcABCAAAQhUJIAAqAiO0yAAAQjkTgD74yaAAIjbf7QeAhCAAAQgUIkAAqASNk6CAAQgkDsB7I+dAAIgdg/SfghAAAIQgEAFAgiACtA4BQIQgEDuBLA/fgIIgPh9iAUQgAAEIAABbwIIAG9knAABCEAgdwLYnwIBBEAKXsQGCEAAAhCAgCcBBIAnMLJDAAIQyJ0A9qdBAAGQhh+xAgIQgAAEIOBFAAHghYvMEIAABHIngP2pEEAApOJJ7IAABCAAAQh4EEAAeMAiKwQgAIHcCWB/OgQQAOn4EksgAAEIQAACzgQQAM6oyAgBCEAgdwLYnxIBBEBK3sQWCEAAAhCAgCMBBIAjKLJBAAIQyJ0A9qdFAAGQlj+xBgIQgAAEIOBEAAHghIlMEIAABHIngP2pEUAApOZR7IEABCAAAQg4EEAAOEAiCwQgAIHcCWB/egQQAOn5FIsgAAEIQAACcwkgAOYiIgMEIACB3Algf4oEEAApehWbIAABCEAAAnMIIADmAOIwBCAAgdwJYH+aBBAAafoVqyAAAQhAAAIzCSAAZuLhIAQgAIHcCWB/qgQQAKl6FrsgAAEIQAACMwggAGbA4RAEIACB3Algf7oEEADp+hbLIAABCEAAAlMJIACmouEABCAAgdwJYH/KBBAAKXsX2yAAAQhAAAJTCCAApoBhNwQgAIHcCWB/2gQQAGn7F+sgAAEIQAACEwkgACZiYScEIACB3Algf+oEEACpexj7IAABCEAAAhMIIAAmQGEXBCAAgdwJYH/6BBAA6fsYCyEAAQhAAAK3EEAA3IKEHRCAAARyJ4D9ORBAAOTgZWyEAAQgAAEI7CCAANgBhI8QgAAEcieA/XkQQADk4WeshAAEIAABCGwjgADYhoMPEIAABHIngP25EEAA5OJp7IQABCAAAQhsIYAA2AKDtxCAAARyJ4D9+RBAAOTjayyFAAQgAAEIbBJAAGyi4A0EIACB3Algf04EEAA5eRtbIQABCEAAAmMCCIAxCF4gAAEI5E4A+/MigADIy99YCwEIQAACECgIIAAKDPwHAQhAIHcC2J8bAQRAbh7HXghAAAIQgIARQAAYBDYIQAACuRPA/vwIIADy8zkWQwACEIAABAYIAC4CCEAAAtkTAECOBBAAOXodmyEAAQhAIHsCCIDsLwEAQAACuRPA/jwJIADy9DtWQwACEIBA5gQQAJlfAJgPAQjkTgD7cyWAAMjV89gNAQhAAAJZE0AAZO1+jIcABHIngP35EkAA5Ot7LIcABCAAgYwJIAAydj6mQwACuRPA/pwJIABy9j62QwACEIBAtgQQANm6HsMhAIHcCWB/3gT+PwAAAP//5E294gAAAAZJREFUAwBUqcQcnzPbcQAAAABJRU5ErkJggg==;" vertex="1" parent="1">
          <mxGeometry x="200" y="366.5" width="72" height="72" as="geometry" />
        </mxCell>
        <mxCell id="qTVKj7qANSQW3XM0a56Q-14" value="&lt;font style=&quot;font-size: 10px;&quot;&gt;Sd-Wan Hub&lt;/font&gt;" style="text;html=1;align=center;verticalAlign=middle;whiteSpace=wrap;rounded=0;" vertex="1" parent="1">
          <mxGeometry x="196" y="442" width="80" height="30" as="geometry" />
        </mxCell>
        <mxCell id="qTVKj7qANSQW3XM0a56Q-15" value="&lt;font style=&quot;font-size: 10px;&quot;&gt;VRF mgmt&lt;/font&gt;" style="text;whiteSpace=wrap;html=1;" vertex="1" parent="1">
          <mxGeometry x="130" y="370" width="70" height="40" as="geometry" />
        </mxCell>
        <mxCell id="qTVKj7qANSQW3XM0a56Q-19" value="&lt;font style=&quot;font-size: 10px;&quot;&gt;&lt;strong data-start=&quot;2451&quot; data-end=&quot;2466&quot;&gt;Prisma SASE&lt;/strong&gt; (ZTNA/SWG cloud)&lt;/font&gt;" style="text;whiteSpace=wrap;html=1;" vertex="1" parent="1">
          <mxGeometry x="375.81" y="391" width="160" height="40" as="geometry" />
        </mxCell>
        <mxCell id="qTVKj7qANSQW3XM0a56Q-20" value="&lt;font style=&quot;font-size: 10px;&quot;&gt;HTTPS + posture device + MFA (Prisma + Azur&lt;/font&gt;e AD)" style="text;whiteSpace=wrap;html=1;" vertex="1" parent="1">
          <mxGeometry x="50" y="650" width="260" height="40" as="geometry" />
        </mxCell>
        <mxCell id="qTVKj7qANSQW3XM0a56Q-25" value="&lt;font style=&quot;font-size: 10px;&quot;&gt;SD-WAN ↔ VNet Azure (IPsec/ER)&lt;/font&gt;" style="text;whiteSpace=wrap;html=1;" vertex="1" parent="1">
          <mxGeometry x="373.17" y="326.5" width="162.64" height="40" as="geometry" />
        </mxCell>
        <mxCell id="qTVKj7qANSQW3XM0a56Q-26" value="" style="endArrow=classic;startArrow=classic;html=1;rounded=0;entryX=0;entryY=0.25;entryDx=0;entryDy=0;exitX=1;exitY=0;exitDx=0;exitDy=0;" edge="1" parent="1" source="qTVKj7qANSQW3XM0a56Q-13" target="qTVKj7qANSQW3XM0a56Q-22">
          <mxGeometry width="50" height="50" relative="1" as="geometry">
            <mxPoint x="320" y="280" as="sourcePoint" />
            <mxPoint x="428" y="327" as="targetPoint" />
          </mxGeometry>
        </mxCell>
      </root>
    </mxGraphModel>
  </diagram>
</mxfile>
